<?xml version="1.0" encoding="utf-8" standalone="no"?>
<!DOCTYPE svg PUBLIC "-//W3C//DTD SVG 1.1//EN"
  "http://www.w3.org/Graphics/SVG/1.1/DTD/svg11.dtd">
<svg xmlns:xlink="http://www.w3.org/1999/xlink" width="1296pt" height="1152pt" viewBox="0 0 1296 1152" xmlns="http://www.w3.org/2000/svg" version="1.1">
 <metadata>
  <rdf:RDF xmlns:dc="http://purl.org/dc/elements/1.1/" xmlns:cc="http://creativecommons.org/ns#" xmlns:rdf="http://www.w3.org/1999/02/22-rdf-syntax-ns#">
   <cc:Work>
    <dc:type rdf:resource="http://purl.org/dc/dcmitype/StillImage"/>
    <dc:date>2025-07-07T10:00:30.854643</dc:date>
    <dc:format>image/svg+xml</dc:format>
    <dc:creator>
     <cc:Agent>
      <dc:title>Matplotlib v3.10.3, https://matplotlib.org/</dc:title>
     </cc:Agent>
    </dc:creator>
   </cc:Work>
  </rdf:RDF>
 </metadata>
 <defs>
  <style type="text/css">*{stroke-linejoin: round; stroke-linecap: butt}</style>
 </defs>
 <g id="figure_1">
  <g id="patch_1">
   <path d="M 0 1152 
L 1296 1152 
L 1296 0 
L 0 0 
z
" style="fill: #ffffff"/>
  </g>
  <g id="axes_1">
   <g id="patch_2">
    <path d="M 631.99488 352.400076 
Q 483.820474 456.991622 336.559472 560.938426 
" clip-path="url(#p871af23c74)" style="fill: none; stroke: #808080; stroke-linecap: round"/>
    <path d="M 340.980716 560.265672 
L 336.559472 560.938426 
L 338.674015 556.997778 
z
" clip-path="url(#p871af23c74)" style="fill: #808080; stroke: #808080; stroke-linecap: round"/>
   </g>
   <g id="patch_3">
    <path d="M 673.399182 351.579279 
Q 836.065752 456.991372 997.794068 561.795453 
" clip-path="url(#p871af23c74)" style="fill: none; stroke: #808080; stroke-linecap: round"/>
    <path d="M 995.524914 557.941761 
L 997.794068 561.795453 
L 993.349622 561.298561 
z
" clip-path="url(#p871af23c74)" style="fill: #808080; stroke: #808080; stroke-linecap: round"/>
   </g>
   <g id="patch_4">
    <path d="M 131.563295 124.964924 
Q 131.563295 218.974765 131.563295 311.866572 
" clip-path="url(#p871af23c74)" style="fill: none; stroke: #808080; stroke-linecap: round"/>
    <path d="M 133.563295 307.866572 
L 131.563295 311.866572 
L 129.563295 307.866572 
z
" clip-path="url(#p871af23c74)" style="fill: #808080; stroke: #808080; stroke-linecap: round"/>
   </g>
   <g id="patch_5">
    <path d="M 419.539835 124.964924 
Q 419.539835 218.974765 419.539835 311.866572 
" clip-path="url(#p871af23c74)" style="fill: none; stroke: #808080; stroke-linecap: round"/>
    <path d="M 421.539835 307.866572 
L 419.539835 311.866572 
L 417.539835 307.866572 
z
" clip-path="url(#p871af23c74)" style="fill: #808080; stroke: #808080; stroke-linecap: round"/>
   </g>
   <g id="patch_6">
    <path d="M 153.477721 350.017586 
Q 348.281753 456.992515 542.105792 563.429288 
" clip-path="url(#p871af23c74)" style="fill: none; stroke: #808080; stroke-linecap: round"/>
    <path d="M 539.562339 559.750858 
L 542.105792 563.429288 
L 537.636976 563.256992 
z
" clip-path="url(#p871af23c74)" style="fill: #808080; stroke: #808080; stroke-linecap: round"/>
   </g>
   <g id="patch_7">
    <path d="M 130.560852 362.966926 
Q 122.012982 576.001764 113.509936 787.919466 
" clip-path="url(#p871af23c74)" style="fill: none; stroke: #808080; stroke-linecap: round"/>
    <path d="M 115.668696 784.002866 
L 113.509936 787.919466 
L 111.671912 783.842498 
z
" clip-path="url(#p871af23c74)" style="fill: #808080; stroke: #808080; stroke-linecap: round"/>
   </g>
   <g id="patch_8">
    <path d="M 131.563295 242.77686 
C 149.635292 242.77686 149.635292 337.983471 131.563295 337.983471 
C 113.491298 337.983471 113.491298 242.77686 130.445261 242.77686 
" clip-path="url(#p871af23c74)" style="fill: none; stroke: #808080; stroke-linecap: round"/>
    <path d="M 126.445261 240.77686 
L 130.445261 242.77686 
L 126.445261 244.77686 
z
" clip-path="url(#p871af23c74)" style="fill: #808080; stroke: #808080; stroke-linecap: round"/>
   </g>
   <g id="patch_9">
    <path d="M 146.833607 357.773389 
Q 223.392733 456.991974 299.268853 555.325403 
" clip-path="url(#p871af23c74)" style="fill: none; stroke: #808080; stroke-linecap: round"/>
    <path d="M 298.408675 550.93677 
L 299.268853 555.325403 
L 295.24184 553.380366 
z
" clip-path="url(#p871af23c74)" style="fill: #808080; stroke: #808080; stroke-linecap: round"/>
   </g>
   <g id="patch_10">
    <path d="M 112.46281 839.014511 
Q 112.46281 933.024352 112.46281 1025.916158 
" clip-path="url(#p871af23c74)" style="fill: none; stroke: #808080; stroke-linecap: round"/>
    <path d="M 114.46281 1021.916158 
L 112.46281 1025.916158 
L 110.46281 1021.916158 
z
" clip-path="url(#p871af23c74)" style="fill: #808080; stroke: #808080; stroke-linecap: round"/>
   </g>
   <g id="patch_11">
    <path d="M 409.503745 360.882248 
Q 367.37999 456.993627 325.705035 552.081005 
" clip-path="url(#p871af23c74)" style="fill: none; stroke: #808080; stroke-linecap: round"/>
    <path d="M 329.1425 549.220264 
L 325.705035 552.081005 
L 325.478921 547.614589 
z
" clip-path="url(#p871af23c74)" style="fill: #808080; stroke: #808080; stroke-linecap: round"/>
   </g>
   <g id="patch_12">
    <path d="M 299.0069 595.034494 
Q 213.840084 695.010873 129.398284 794.136164 
" clip-path="url(#p871af23c74)" style="fill: none; stroke: #808080; stroke-linecap: round"/>
    <path d="M 133.514654 792.388165 
L 129.398284 794.136164 
L 130.469708 789.794269 
z
" clip-path="url(#p871af23c74)" style="fill: #808080; stroke: #808080; stroke-linecap: round"/>
   </g>
   <g id="patch_13">
    <path d="M 320.211992 600.496788 
Q 339.464674 695.008009 358.494187 788.423696 
" clip-path="url(#p871af23c74)" style="fill: none; stroke: #808080; stroke-linecap: round"/>
    <path d="M 359.655505 784.104977 
L 358.494187 788.423696 
L 355.736002 784.90341 
z
" clip-path="url(#p871af23c74)" style="fill: #808080; stroke: #808080; stroke-linecap: round"/>
   </g>
   <g id="patch_14">
    <path d="M 1033.889863 596.596187 
Q 1101.62688 695.010276 1168.730007 792.503396 
" clip-path="url(#p871af23c74)" style="fill: none; stroke: #808080; stroke-linecap: round"/>
    <path d="M 1168.109613 788.074501 
L 1168.730007 792.503396 
L 1164.814655 790.342374 
z
" clip-path="url(#p871af23c74)" style="fill: #808080; stroke: #808080; stroke-linecap: round"/>
   </g>
   <g id="patch_15">
    <path d="M 1019.713801 362.981453 
Q 1019.713801 456.991294 1019.713801 549.883101 
" clip-path="url(#p871af23c74)" style="fill: none; stroke: #808080; stroke-linecap: round"/>
    <path d="M 1021.713801 545.883101 
L 1019.713801 549.883101 
L 1017.713801 545.883101 
z
" clip-path="url(#p871af23c74)" style="fill: #808080; stroke: #808080; stroke-linecap: round"/>
   </g>
   <g id="patch_16">
    <path d="M 1027.849226 361.623144 
Q 1101.62557 576.000217 1175.038093 789.320108 
" clip-path="url(#p871af23c74)" style="fill: none; stroke: #808080; stroke-linecap: round"/>
    <path d="M 1175.627589 784.886995 
L 1175.038093 789.320108 
L 1171.8453 786.188643 
z
" clip-path="url(#p871af23c74)" style="fill: #808080; stroke: #808080; stroke-linecap: round"/>
   </g>
   <g id="patch_17">
    <path d="M 1005.714419 358.695877 
Q 858.840639 575.999006 712.592937 792.375838 
" clip-path="url(#p871af23c74)" style="fill: none; stroke: #808080; stroke-linecap: round"/>
    <path d="M 716.489873 790.18178 
L 712.592937 792.375838 
L 713.175852 787.941854 
z
" clip-path="url(#p871af23c74)" style="fill: #808080; stroke: #808080; stroke-linecap: round"/>
   </g>
   <g id="patch_18">
    <path d="M 577.189288 597.823751 
Q 631.480448 695.005928 685.226334 791.212053 
" clip-path="url(#p871af23c74)" style="fill: none; stroke: #808080; stroke-linecap: round"/>
    <path d="M 685.021515 786.74461 
L 685.226334 791.212053 
L 681.529488 788.695443 
z
" clip-path="url(#p871af23c74)" style="fill: #808080; stroke: #808080; stroke-linecap: round"/>
   </g>
   <g id="text_1">
    <g id="patch_19">
     <path d="M 498.656104 457.269671 
L 543.72036 425.460263 
Q 547.641833 422.692222 544.873791 418.770749 
L 540.280573 412.263555 
Q 537.512531 408.342083 533.591059 411.110124 
L 488.526803 442.919533 
Q 484.60533 445.687574 487.373372 449.609046 
L 491.96659 456.11624 
Q 494.734632 460.037713 498.656104 457.269671 
z
" clip-path="url(#p871af23c74)" style="fill: #ffffff; opacity: 0.8"/>
    </g>
    <g clip-path="url(#p871af23c74)">
     <!-- extracts_from -->
     <g transform="translate(494.800309 451.807183) rotate(-35.217038) scale(0.08 -0.08)">
      <defs>
       <path id="DejaVuSans-65" d="M 3597 1894 
L 3597 1613 
L 953 1613 
Q 991 1019 1311 708 
Q 1631 397 2203 397 
Q 2534 397 2845 478 
Q 3156 559 3463 722 
L 3463 178 
Q 3153 47 2828 -22 
Q 2503 -91 2169 -91 
Q 1331 -91 842 396 
Q 353 884 353 1716 
Q 353 2575 817 3079 
Q 1281 3584 2069 3584 
Q 2775 3584 3186 3129 
Q 3597 2675 3597 1894 
z
M 3022 2063 
Q 3016 2534 2758 2815 
Q 2500 3097 2075 3097 
Q 1594 3097 1305 2825 
Q 1016 2553 972 2059 
L 3022 2063 
z
" transform="scale(0.015625)"/>
       <path id="DejaVuSans-78" d="M 3513 3500 
L 2247 1797 
L 3578 0 
L 2900 0 
L 1881 1375 
L 863 0 
L 184 0 
L 1544 1831 
L 300 3500 
L 978 3500 
L 1906 2253 
L 2834 3500 
L 3513 3500 
z
" transform="scale(0.015625)"/>
       <path id="DejaVuSans-74" d="M 1172 4494 
L 1172 3500 
L 2356 3500 
L 2356 3053 
L 1172 3053 
L 1172 1153 
Q 1172 725 1289 603 
Q 1406 481 1766 481 
L 2356 481 
L 2356 0 
L 1766 0 
Q 1100 0 847 248 
Q 594 497 594 1153 
L 594 3053 
L 172 3053 
L 172 3500 
L 594 3500 
L 594 4494 
L 1172 4494 
z
" transform="scale(0.015625)"/>
       <path id="DejaVuSans-72" d="M 2631 2963 
Q 2534 3019 2420 3045 
Q 2306 3072 2169 3072 
Q 1681 3072 1420 2755 
Q 1159 2438 1159 1844 
L 1159 0 
L 581 0 
L 581 3500 
L 1159 3500 
L 1159 2956 
Q 1341 3275 1631 3429 
Q 1922 3584 2338 3584 
Q 2397 3584 2469 3576 
Q 2541 3569 2628 3553 
L 2631 2963 
z
" transform="scale(0.015625)"/>
       <path id="DejaVuSans-61" d="M 2194 1759 
Q 1497 1759 1228 1600 
Q 959 1441 959 1056 
Q 959 750 1161 570 
Q 1363 391 1709 391 
Q 2188 391 2477 730 
Q 2766 1069 2766 1631 
L 2766 1759 
L 2194 1759 
z
M 3341 1997 
L 3341 0 
L 2766 0 
L 2766 531 
Q 2569 213 2275 61 
Q 1981 -91 1556 -91 
Q 1019 -91 701 211 
Q 384 513 384 1019 
Q 384 1609 779 1909 
Q 1175 2209 1959 2209 
L 2766 2209 
L 2766 2266 
Q 2766 2663 2505 2880 
Q 2244 3097 1772 3097 
Q 1472 3097 1187 3025 
Q 903 2953 641 2809 
L 641 3341 
Q 956 3463 1253 3523 
Q 1550 3584 1831 3584 
Q 2591 3584 2966 3190 
Q 3341 2797 3341 1997 
z
" transform="scale(0.015625)"/>
       <path id="DejaVuSans-63" d="M 3122 3366 
L 3122 2828 
Q 2878 2963 2633 3030 
Q 2388 3097 2138 3097 
Q 1578 3097 1268 2742 
Q 959 2388 959 1747 
Q 959 1106 1268 751 
Q 1578 397 2138 397 
Q 2388 397 2633 464 
Q 2878 531 3122 666 
L 3122 134 
Q 2881 22 2623 -34 
Q 2366 -91 2075 -91 
Q 1284 -91 818 406 
Q 353 903 353 1747 
Q 353 2603 823 3093 
Q 1294 3584 2113 3584 
Q 2378 3584 2631 3529 
Q 2884 3475 3122 3366 
z
" transform="scale(0.015625)"/>
       <path id="DejaVuSans-73" d="M 2834 3397 
L 2834 2853 
Q 2591 2978 2328 3040 
Q 2066 3103 1784 3103 
Q 1356 3103 1142 2972 
Q 928 2841 928 2578 
Q 928 2378 1081 2264 
Q 1234 2150 1697 2047 
L 1894 2003 
Q 2506 1872 2764 1633 
Q 3022 1394 3022 966 
Q 3022 478 2636 193 
Q 2250 -91 1575 -91 
Q 1294 -91 989 -36 
Q 684 19 347 128 
L 347 722 
Q 666 556 975 473 
Q 1284 391 1588 391 
Q 1994 391 2212 530 
Q 2431 669 2431 922 
Q 2431 1156 2273 1281 
Q 2116 1406 1581 1522 
L 1381 1569 
Q 847 1681 609 1914 
Q 372 2147 372 2553 
Q 372 3047 722 3315 
Q 1072 3584 1716 3584 
Q 2034 3584 2315 3537 
Q 2597 3491 2834 3397 
z
" transform="scale(0.015625)"/>
       <path id="DejaVuSans-5f" d="M 3263 -1063 
L 3263 -1509 
L -63 -1509 
L -63 -1063 
L 3263 -1063 
z
" transform="scale(0.015625)"/>
       <path id="DejaVuSans-66" d="M 2375 4863 
L 2375 4384 
L 1825 4384 
Q 1516 4384 1395 4259 
Q 1275 4134 1275 3809 
L 1275 3500 
L 2222 3500 
L 2222 3053 
L 1275 3053 
L 1275 0 
L 697 0 
L 697 3053 
L 147 3053 
L 147 3500 
L 697 3500 
L 697 3744 
Q 697 4328 969 4595 
Q 1241 4863 1831 4863 
L 2375 4863 
z
" transform="scale(0.015625)"/>
       <path id="DejaVuSans-6f" d="M 1959 3097 
Q 1497 3097 1228 2736 
Q 959 2375 959 1747 
Q 959 1119 1226 758 
Q 1494 397 1959 397 
Q 2419 397 2687 759 
Q 2956 1122 2956 1747 
Q 2956 2369 2687 2733 
Q 2419 3097 1959 3097 
z
M 1959 3584 
Q 2709 3584 3137 3096 
Q 3566 2609 3566 1747 
Q 3566 888 3137 398 
Q 2709 -91 1959 -91 
Q 1206 -91 779 398 
Q 353 888 353 1747 
Q 353 2609 779 3096 
Q 1206 3584 1959 3584 
z
" transform="scale(0.015625)"/>
       <path id="DejaVuSans-6d" d="M 3328 2828 
Q 3544 3216 3844 3400 
Q 4144 3584 4550 3584 
Q 5097 3584 5394 3201 
Q 5691 2819 5691 2113 
L 5691 0 
L 5113 0 
L 5113 2094 
Q 5113 2597 4934 2840 
Q 4756 3084 4391 3084 
Q 3944 3084 3684 2787 
Q 3425 2491 3425 1978 
L 3425 0 
L 2847 0 
L 2847 2094 
Q 2847 2600 2669 2842 
Q 2491 3084 2119 3084 
Q 1678 3084 1418 2786 
Q 1159 2488 1159 1978 
L 1159 0 
L 581 0 
L 581 3500 
L 1159 3500 
L 1159 2956 
Q 1356 3278 1631 3431 
Q 1906 3584 2284 3584 
Q 2666 3584 2933 3390 
Q 3200 3197 3328 2828 
z
" transform="scale(0.015625)"/>
      </defs>
      <use xlink:href="#DejaVuSans-65"/>
      <use xlink:href="#DejaVuSans-78" transform="translate(59.773438 0)"/>
      <use xlink:href="#DejaVuSans-74" transform="translate(118.953125 0)"/>
      <use xlink:href="#DejaVuSans-72" transform="translate(158.162109 0)"/>
      <use xlink:href="#DejaVuSans-61" transform="translate(199.275391 0)"/>
      <use xlink:href="#DejaVuSans-63" transform="translate(260.554688 0)"/>
      <use xlink:href="#DejaVuSans-74" transform="translate(315.535156 0)"/>
      <use xlink:href="#DejaVuSans-73" transform="translate(354.744141 0)"/>
      <use xlink:href="#DejaVuSans-5f" transform="translate(406.84375 0)"/>
      <use xlink:href="#DejaVuSans-66" transform="translate(456.84375 0)"/>
      <use xlink:href="#DejaVuSans-72" transform="translate(492.048828 0)"/>
      <use xlink:href="#DejaVuSans-6f" transform="translate(530.912109 0)"/>
      <use xlink:href="#DejaVuSans-6d" transform="translate(592.09375 0)"/>
     </g>
    </g>
   </g>
   <g id="text_2">
    <g id="patch_20">
     <path d="M 780.667085 431.424379 
L 811.482507 451.393559 
Q 815.510666 454.00391 818.121017 449.97575 
L 822.331566 443.478245 
Q 824.941917 439.450085 820.913757 436.839734 
L 790.098335 416.870554 
Q 786.070175 414.260203 783.459825 418.288363 
L 779.249275 424.785869 
Q 776.638925 428.814028 780.667085 431.424379 
z
" clip-path="url(#p871af23c74)" style="fill: #ffffff; opacity: 0.8"/>
    </g>
    <g clip-path="url(#p871af23c74)">
     <!-- produces -->
     <g transform="translate(784.182221 426) rotate(-327.055732) scale(0.08 -0.08)">
      <defs>
       <path id="DejaVuSans-70" d="M 1159 525 
L 1159 -1331 
L 581 -1331 
L 581 3500 
L 1159 3500 
L 1159 2969 
Q 1341 3281 1617 3432 
Q 1894 3584 2278 3584 
Q 2916 3584 3314 3078 
Q 3713 2572 3713 1747 
Q 3713 922 3314 415 
Q 2916 -91 2278 -91 
Q 1894 -91 1617 61 
Q 1341 213 1159 525 
z
M 3116 1747 
Q 3116 2381 2855 2742 
Q 2594 3103 2138 3103 
Q 1681 3103 1420 2742 
Q 1159 2381 1159 1747 
Q 1159 1113 1420 752 
Q 1681 391 2138 391 
Q 2594 391 2855 752 
Q 3116 1113 3116 1747 
z
" transform="scale(0.015625)"/>
       <path id="DejaVuSans-64" d="M 2906 2969 
L 2906 4863 
L 3481 4863 
L 3481 0 
L 2906 0 
L 2906 525 
Q 2725 213 2448 61 
Q 2172 -91 1784 -91 
Q 1150 -91 751 415 
Q 353 922 353 1747 
Q 353 2572 751 3078 
Q 1150 3584 1784 3584 
Q 2172 3584 2448 3432 
Q 2725 3281 2906 2969 
z
M 947 1747 
Q 947 1113 1208 752 
Q 1469 391 1925 391 
Q 2381 391 2643 752 
Q 2906 1113 2906 1747 
Q 2906 2381 2643 2742 
Q 2381 3103 1925 3103 
Q 1469 3103 1208 2742 
Q 947 2381 947 1747 
z
" transform="scale(0.015625)"/>
       <path id="DejaVuSans-75" d="M 544 1381 
L 544 3500 
L 1119 3500 
L 1119 1403 
Q 1119 906 1312 657 
Q 1506 409 1894 409 
Q 2359 409 2629 706 
Q 2900 1003 2900 1516 
L 2900 3500 
L 3475 3500 
L 3475 0 
L 2900 0 
L 2900 538 
Q 2691 219 2414 64 
Q 2138 -91 1772 -91 
Q 1169 -91 856 284 
Q 544 659 544 1381 
z
M 1991 3584 
L 1991 3584 
z
" transform="scale(0.015625)"/>
      </defs>
      <use xlink:href="#DejaVuSans-70"/>
      <use xlink:href="#DejaVuSans-72" transform="translate(63.476562 0)"/>
      <use xlink:href="#DejaVuSans-6f" transform="translate(102.339844 0)"/>
      <use xlink:href="#DejaVuSans-64" transform="translate(163.521484 0)"/>
      <use xlink:href="#DejaVuSans-75" transform="translate(226.998047 0)"/>
      <use xlink:href="#DejaVuSans-63" transform="translate(290.376953 0)"/>
      <use xlink:href="#DejaVuSans-65" transform="translate(345.357422 0)"/>
      <use xlink:href="#DejaVuSans-73" transform="translate(406.880859 0)"/>
     </g>
    </g>
   </g>
   <g id="text_3">
    <g id="patch_21">
     <path d="M 122.892045 178.895421 
L 122.892045 214.916671 
Q 122.892045 219.716671 127.692045 219.716671 
L 135.434545 219.716671 
Q 140.234545 219.716671 140.234545 214.916671 
L 140.234545 178.895421 
Q 140.234545 174.095421 135.434545 174.095421 
L 127.692045 174.095421 
Q 122.892045 174.095421 122.892045 178.895421 
z
" clip-path="url(#p871af23c74)" style="fill: #ffffff; opacity: 0.8"/>
    </g>
    <g clip-path="url(#p871af23c74)">
     <!-- oversees -->
     <g transform="translate(129.355795 178.895421) rotate(-270) scale(0.08 -0.08)">
      <defs>
       <path id="DejaVuSans-76" d="M 191 3500 
L 800 3500 
L 1894 563 
L 2988 3500 
L 3597 3500 
L 2284 0 
L 1503 0 
L 191 3500 
z
" transform="scale(0.015625)"/>
      </defs>
      <use xlink:href="#DejaVuSans-6f"/>
      <use xlink:href="#DejaVuSans-76" transform="translate(61.181641 0)"/>
      <use xlink:href="#DejaVuSans-65" transform="translate(120.361328 0)"/>
      <use xlink:href="#DejaVuSans-72" transform="translate(181.884766 0)"/>
      <use xlink:href="#DejaVuSans-73" transform="translate(222.998047 0)"/>
      <use xlink:href="#DejaVuSans-65" transform="translate(275.097656 0)"/>
      <use xlink:href="#DejaVuSans-65" transform="translate(336.621094 0)"/>
      <use xlink:href="#DejaVuSans-73" transform="translate(398.144531 0)"/>
     </g>
    </g>
   </g>
   <g id="text_4">
    <g id="patch_22">
     <path d="M 410.868585 178.851046 
L 410.868585 214.961046 
Q 410.868585 219.761046 415.668585 219.761046 
L 423.411085 219.761046 
Q 428.211085 219.761046 428.211085 214.961046 
L 428.211085 178.851046 
Q 428.211085 174.051046 423.411085 174.051046 
L 415.668585 174.051046 
Q 410.868585 174.051046 410.868585 178.851046 
z
" clip-path="url(#p871af23c74)" style="fill: #ffffff; opacity: 0.8"/>
    </g>
    <g clip-path="url(#p871af23c74)">
     <!-- performs -->
     <g transform="translate(417.332335 178.851046) rotate(-270) scale(0.08 -0.08)">
      <use xlink:href="#DejaVuSans-70"/>
      <use xlink:href="#DejaVuSans-65" transform="translate(63.476562 0)"/>
      <use xlink:href="#DejaVuSans-72" transform="translate(125 0)"/>
      <use xlink:href="#DejaVuSans-66" transform="translate(166.113281 0)"/>
      <use xlink:href="#DejaVuSans-6f" transform="translate(201.318359 0)"/>
      <use xlink:href="#DejaVuSans-72" transform="translate(262.5 0)"/>
      <use xlink:href="#DejaVuSans-6d" transform="translate(301.863281 0)"/>
      <use xlink:href="#DejaVuSans-73" transform="translate(399.275391 0)"/>
     </g>
    </g>
   </g>
   <g id="text_5">
    <g id="patch_23">
     <path d="M 279.769719 429.389313 
L 324.682204 454.052611 
Q 328.889565 456.363046 331.200001 452.155685 
L 335.03388 445.174095 
Q 337.344315 440.966734 333.136954 438.656299 
L 288.224469 413.993001 
Q 284.017108 411.682566 281.706673 415.889927 
L 277.872794 422.871517 
Q 275.562358 427.078878 279.769719 429.389313 
z
" clip-path="url(#p871af23c74)" style="fill: #ffffff; opacity: 0.8"/>
    </g>
    <g clip-path="url(#p871af23c74)">
     <!-- is_located_in -->
     <g transform="translate(282.988084 423.528591) rotate(-331.226996) scale(0.08 -0.08)">
      <defs>
       <path id="DejaVuSans-69" d="M 603 3500 
L 1178 3500 
L 1178 0 
L 603 0 
L 603 3500 
z
M 603 4863 
L 1178 4863 
L 1178 4134 
L 603 4134 
L 603 4863 
z
" transform="scale(0.015625)"/>
       <path id="DejaVuSans-6c" d="M 603 4863 
L 1178 4863 
L 1178 0 
L 603 0 
L 603 4863 
z
" transform="scale(0.015625)"/>
       <path id="DejaVuSans-6e" d="M 3513 2113 
L 3513 0 
L 2938 0 
L 2938 2094 
Q 2938 2591 2744 2837 
Q 2550 3084 2163 3084 
Q 1697 3084 1428 2787 
Q 1159 2491 1159 1978 
L 1159 0 
L 581 0 
L 581 3500 
L 1159 3500 
L 1159 2956 
Q 1366 3272 1645 3428 
Q 1925 3584 2291 3584 
Q 2894 3584 3203 3211 
Q 3513 2838 3513 2113 
z
" transform="scale(0.015625)"/>
      </defs>
      <use xlink:href="#DejaVuSans-69"/>
      <use xlink:href="#DejaVuSans-73" transform="translate(27.783203 0)"/>
      <use xlink:href="#DejaVuSans-5f" transform="translate(79.882812 0)"/>
      <use xlink:href="#DejaVuSans-6c" transform="translate(129.882812 0)"/>
      <use xlink:href="#DejaVuSans-6f" transform="translate(157.666016 0)"/>
      <use xlink:href="#DejaVuSans-63" transform="translate(218.847656 0)"/>
      <use xlink:href="#DejaVuSans-61" transform="translate(273.828125 0)"/>
      <use xlink:href="#DejaVuSans-74" transform="translate(335.107422 0)"/>
      <use xlink:href="#DejaVuSans-65" transform="translate(374.316406 0)"/>
      <use xlink:href="#DejaVuSans-64" transform="translate(435.839844 0)"/>
      <use xlink:href="#DejaVuSans-5f" transform="translate(499.316406 0)"/>
      <use xlink:href="#DejaVuSans-69" transform="translate(549.316406 0)"/>
      <use xlink:href="#DejaVuSans-6e" transform="translate(577.099609 0)"/>
     </g>
    </g>
   </g>
   <g id="text_6">
    <g id="patch_24">
     <path d="M 131.83217 547.566083 
L 133.203668 513.384838 
Q 133.39611 508.588697 128.599969 508.396255 
L 120.863694 508.085843 
Q 116.067553 507.893401 115.875112 512.689542 
L 114.503614 546.870788 
Q 114.311172 551.666928 119.107313 551.85937 
L 126.843588 552.169782 
Q 131.639728 552.362224 131.83217 547.566083 
z
" clip-path="url(#p871af23c74)" style="fill: #ffffff; opacity: 0.8"/>
    </g>
    <g clip-path="url(#p871af23c74)">
     <!-- provides -->
     <g transform="translate(125.373617 547.306939) rotate(-87.702281) scale(0.08 -0.08)">
      <use xlink:href="#DejaVuSans-70"/>
      <use xlink:href="#DejaVuSans-72" transform="translate(63.476562 0)"/>
      <use xlink:href="#DejaVuSans-6f" transform="translate(102.339844 0)"/>
      <use xlink:href="#DejaVuSans-76" transform="translate(163.521484 0)"/>
      <use xlink:href="#DejaVuSans-69" transform="translate(222.701172 0)"/>
      <use xlink:href="#DejaVuSans-64" transform="translate(250.484375 0)"/>
      <use xlink:href="#DejaVuSans-65" transform="translate(313.960938 0)"/>
      <use xlink:href="#DejaVuSans-73" transform="translate(375.484375 0)"/>
     </g>
    </g>
   </g>
   <g id="text_7">
    <g id="patch_25">
     <path d="M 101.444545 251.55936 
L 161.682045 251.55936 
Q 166.482045 251.55936 166.482045 246.75936 
L 166.482045 238.79436 
Q 166.482045 233.99436 161.682045 233.99436 
L 101.444545 233.99436 
Q 96.644545 233.99436 96.644545 238.79436 
L 96.644545 246.75936 
Q 96.644545 251.55936 101.444545 251.55936 
z
" clip-path="url(#p871af23c74)" style="fill: #ffffff; opacity: 0.8"/>
    </g>
    <g clip-path="url(#p871af23c74)">
     <!-- compares_with -->
     <g transform="translate(101.444545 244.87311) scale(0.08 -0.08)">
      <defs>
       <path id="DejaVuSans-77" d="M 269 3500 
L 844 3500 
L 1563 769 
L 2278 3500 
L 2956 3500 
L 3675 769 
L 4391 3500 
L 4966 3500 
L 4050 0 
L 3372 0 
L 2619 2869 
L 1863 0 
L 1184 0 
L 269 3500 
z
" transform="scale(0.015625)"/>
       <path id="DejaVuSans-68" d="M 3513 2113 
L 3513 0 
L 2938 0 
L 2938 2094 
Q 2938 2591 2744 2837 
Q 2550 3084 2163 3084 
Q 1697 3084 1428 2787 
Q 1159 2491 1159 1978 
L 1159 0 
L 581 0 
L 581 4863 
L 1159 4863 
L 1159 2956 
Q 1366 3272 1645 3428 
Q 1925 3584 2291 3584 
Q 2894 3584 3203 3211 
Q 3513 2838 3513 2113 
z
" transform="scale(0.015625)"/>
      </defs>
      <use xlink:href="#DejaVuSans-63"/>
      <use xlink:href="#DejaVuSans-6f" transform="translate(54.980469 0)"/>
      <use xlink:href="#DejaVuSans-6d" transform="translate(116.162109 0)"/>
      <use xlink:href="#DejaVuSans-70" transform="translate(213.574219 0)"/>
      <use xlink:href="#DejaVuSans-61" transform="translate(277.050781 0)"/>
      <use xlink:href="#DejaVuSans-72" transform="translate(338.330078 0)"/>
      <use xlink:href="#DejaVuSans-65" transform="translate(377.193359 0)"/>
      <use xlink:href="#DejaVuSans-73" transform="translate(438.716797 0)"/>
      <use xlink:href="#DejaVuSans-5f" transform="translate(490.816406 0)"/>
      <use xlink:href="#DejaVuSans-77" transform="translate(540.816406 0)"/>
      <use xlink:href="#DejaVuSans-69" transform="translate(622.603516 0)"/>
      <use xlink:href="#DejaVuSans-74" transform="translate(650.386719 0)"/>
      <use xlink:href="#DejaVuSans-68" transform="translate(689.595703 0)"/>
     </g>
    </g>
   </g>
   <g id="text_8">
    <g id="patch_26">
     <path d="M 184.760833 421.302419 
L 213.501334 458.549342 
Q 216.433649 462.349543 220.23385 459.417229 
L 226.53981 454.551419 
Q 230.340011 451.619105 227.407697 447.818903 
L 198.667196 410.571981 
Q 195.734881 406.771779 191.93468 409.704094 
L 185.62872 414.569903 
Q 181.828519 417.502218 184.760833 421.302419 
z
" clip-path="url(#p871af23c74)" style="fill: #ffffff; opacity: 0.8"/>
    </g>
    <g clip-path="url(#p871af23c74)">
     <!-- learns_from -->
     <g transform="translate(190.054395 417.217797) rotate(-307.654525) scale(0.08 -0.08)">
      <use xlink:href="#DejaVuSans-6c"/>
      <use xlink:href="#DejaVuSans-65" transform="translate(27.783203 0)"/>
      <use xlink:href="#DejaVuSans-61" transform="translate(89.306641 0)"/>
      <use xlink:href="#DejaVuSans-72" transform="translate(150.585938 0)"/>
      <use xlink:href="#DejaVuSans-6e" transform="translate(189.949219 0)"/>
      <use xlink:href="#DejaVuSans-73" transform="translate(253.328125 0)"/>
      <use xlink:href="#DejaVuSans-5f" transform="translate(305.427734 0)"/>
      <use xlink:href="#DejaVuSans-66" transform="translate(355.427734 0)"/>
      <use xlink:href="#DejaVuSans-72" transform="translate(390.632812 0)"/>
      <use xlink:href="#DejaVuSans-6f" transform="translate(429.496094 0)"/>
      <use xlink:href="#DejaVuSans-6d" transform="translate(490.677734 0)"/>
     </g>
    </g>
   </g>
   <g id="text_9">
    <g id="patch_27">
     <path d="M 103.79156 897.853758 
L 103.79156 924.057508 
Q 103.79156 928.857508 108.59156 928.857508 
L 116.33406 928.857508 
Q 121.13406 928.857508 121.13406 924.057508 
L 121.13406 897.853758 
Q 121.13406 893.053758 116.33406 893.053758 
L 108.59156 893.053758 
Q 103.79156 893.053758 103.79156 897.853758 
z
" clip-path="url(#p871af23c74)" style="fill: #ffffff; opacity: 0.8"/>
    </g>
    <g clip-path="url(#p871af23c74)">
     <!-- serves -->
     <g transform="translate(110.25531 897.853758) rotate(-270) scale(0.08 -0.08)">
      <use xlink:href="#DejaVuSans-73"/>
      <use xlink:href="#DejaVuSans-65" transform="translate(52.099609 0)"/>
      <use xlink:href="#DejaVuSans-72" transform="translate(113.623047 0)"/>
      <use xlink:href="#DejaVuSans-76" transform="translate(154.736328 0)"/>
      <use xlink:href="#DejaVuSans-65" transform="translate(213.916016 0)"/>
      <use xlink:href="#DejaVuSans-73" transform="translate(275.439453 0)"/>
     </g>
    </g>
   </g>
   <g id="text_10">
    <g id="patch_28">
     <path d="M 374.893653 461.451631 
L 395.226522 415.05928 
Q 397.153332 410.662986 392.757038 408.736175 
L 385.665724 405.62819 
Q 381.26943 403.701379 379.34262 408.097673 
L 359.009751 454.490024 
Q 357.082941 458.886318 361.479235 460.813129 
L 368.570549 463.921114 
Q 372.966843 465.847925 374.893653 461.451631 
z
" clip-path="url(#p871af23c74)" style="fill: #ffffff; opacity: 0.8"/>
    </g>
    <g clip-path="url(#p871af23c74)">
     <!-- hasOutcome -->
     <g transform="translate(368.973539 458.85696) rotate(-66.333092) scale(0.08 -0.08)">
      <defs>
       <path id="DejaVuSans-4f" d="M 2522 4238 
Q 1834 4238 1429 3725 
Q 1025 3213 1025 2328 
Q 1025 1447 1429 934 
Q 1834 422 2522 422 
Q 3209 422 3611 934 
Q 4013 1447 4013 2328 
Q 4013 3213 3611 3725 
Q 3209 4238 2522 4238 
z
M 2522 4750 
Q 3503 4750 4090 4092 
Q 4678 3434 4678 2328 
Q 4678 1225 4090 567 
Q 3503 -91 2522 -91 
Q 1538 -91 948 565 
Q 359 1222 359 2328 
Q 359 3434 948 4092 
Q 1538 4750 2522 4750 
z
" transform="scale(0.015625)"/>
      </defs>
      <use xlink:href="#DejaVuSans-68"/>
      <use xlink:href="#DejaVuSans-61" transform="translate(63.378906 0)"/>
      <use xlink:href="#DejaVuSans-73" transform="translate(124.658203 0)"/>
      <use xlink:href="#DejaVuSans-4f" transform="translate(176.757812 0)"/>
      <use xlink:href="#DejaVuSans-75" transform="translate(255.46875 0)"/>
      <use xlink:href="#DejaVuSans-74" transform="translate(318.847656 0)"/>
      <use xlink:href="#DejaVuSans-63" transform="translate(358.056641 0)"/>
      <use xlink:href="#DejaVuSans-6f" transform="translate(413.037109 0)"/>
      <use xlink:href="#DejaVuSans-6d" transform="translate(474.21875 0)"/>
      <use xlink:href="#DejaVuSans-65" transform="translate(571.630859 0)"/>
     </g>
    </g>
   </g>
   <g id="text_11">
    <g id="patch_29">
     <path d="M 230.070692 689.329716 
L 249.122053 666.965535 
Q 252.234729 663.311599 248.580794 660.198923 
L 242.686919 655.178112 
Q 239.032983 652.065436 235.920307 655.719372 
L 216.868946 678.083553 
Q 213.75627 681.737488 217.410206 684.850165 
L 223.30408 689.870976 
Q 226.958016 692.983652 230.070692 689.329716 
z
" clip-path="url(#p871af23c74)" style="fill: #ffffff; opacity: 0.8"/>
    </g>
    <g clip-path="url(#p871af23c74)">
     <!-- stateOf -->
     <g transform="translate(225.150249 685.138141) rotate(-49.573339) scale(0.08 -0.08)">
      <use xlink:href="#DejaVuSans-73"/>
      <use xlink:href="#DejaVuSans-74" transform="translate(52.099609 0)"/>
      <use xlink:href="#DejaVuSans-61" transform="translate(91.308594 0)"/>
      <use xlink:href="#DejaVuSans-74" transform="translate(152.587891 0)"/>
      <use xlink:href="#DejaVuSans-65" transform="translate(191.796875 0)"/>
      <use xlink:href="#DejaVuSans-4f" transform="translate(253.320312 0)"/>
      <use xlink:href="#DejaVuSans-66" transform="translate(332.03125 0)"/>
     </g>
    </g>
   </g>
   <g id="text_12">
    <g id="patch_30">
     <path d="M 323.085692 658.045055 
L 329.844932 691.226098 
Q 330.803053 695.929501 335.506456 694.971381 
L 343.093144 693.425913 
Q 347.796548 692.467792 346.838427 687.764389 
L 340.079187 654.583346 
Q 339.121067 649.879943 334.417663 650.838063 
L 326.830975 652.383531 
Q 322.127572 653.341652 323.085692 658.045055 
z
" clip-path="url(#p871af23c74)" style="fill: #ffffff; opacity: 0.8"/>
    </g>
    <g clip-path="url(#p871af23c74)">
     <!-- contains -->
     <g transform="translate(329.419364 656.754836) rotate(-281.514062) scale(0.08 -0.08)">
      <use xlink:href="#DejaVuSans-63"/>
      <use xlink:href="#DejaVuSans-6f" transform="translate(54.980469 0)"/>
      <use xlink:href="#DejaVuSans-6e" transform="translate(116.162109 0)"/>
      <use xlink:href="#DejaVuSans-74" transform="translate(179.541016 0)"/>
      <use xlink:href="#DejaVuSans-61" transform="translate(218.75 0)"/>
      <use xlink:href="#DejaVuSans-69" transform="translate(280.029297 0)"/>
      <use xlink:href="#DejaVuSans-6e" transform="translate(307.8125 0)"/>
      <use xlink:href="#DejaVuSans-73" transform="translate(371.191406 0)"/>
     </g>
    </g>
   </g>
   <g id="text_13">
    <g id="patch_31">
     <path d="M 1070.547005 665.148861 
L 1087.619837 689.953721 
Q 1090.341285 693.907671 1094.295235 691.186223 
L 1100.673039 686.796472 
Q 1104.626989 684.075024 1101.905542 680.121074 
L 1084.83271 655.316214 
Q 1082.111262 651.362264 1078.157312 654.083711 
L 1071.779508 658.473463 
Q 1067.825558 661.194911 1070.547005 665.148861 
z
" clip-path="url(#p871af23c74)" style="fill: #ffffff; opacity: 0.8"/>
    </g>
    <g clip-path="url(#p871af23c74)">
     <!-- informs -->
     <g transform="translate(1075.871452 661.48412) rotate(-304.539083) scale(0.08 -0.08)">
      <use xlink:href="#DejaVuSans-69"/>
      <use xlink:href="#DejaVuSans-6e" transform="translate(27.783203 0)"/>
      <use xlink:href="#DejaVuSans-66" transform="translate(91.162109 0)"/>
      <use xlink:href="#DejaVuSans-6f" transform="translate(126.367188 0)"/>
      <use xlink:href="#DejaVuSans-72" transform="translate(187.548828 0)"/>
      <use xlink:href="#DejaVuSans-6d" transform="translate(226.912109 0)"/>
      <use xlink:href="#DejaVuSans-73" transform="translate(324.324219 0)"/>
     </g>
    </g>
   </g>
   <g id="text_14">
    <g id="patch_32">
     <path d="M 1011.042551 425.758825 
L 1011.042551 444.086325 
Q 1011.042551 448.886325 1015.842551 448.886325 
L 1023.585051 448.886325 
Q 1028.385051 448.886325 1028.385051 444.086325 
L 1028.385051 425.758825 
Q 1028.385051 420.958825 1023.585051 420.958825 
L 1015.842551 420.958825 
Q 1011.042551 420.958825 1011.042551 425.758825 
z
" clip-path="url(#p871af23c74)" style="fill: #ffffff; opacity: 0.8"/>
    </g>
    <g clip-path="url(#p871af23c74)">
     <!-- uses -->
     <g transform="translate(1017.506301 425.758825) rotate(-270) scale(0.08 -0.08)">
      <use xlink:href="#DejaVuSans-75"/>
      <use xlink:href="#DejaVuSans-73" transform="translate(63.378906 0)"/>
      <use xlink:href="#DejaVuSans-65" transform="translate(115.478516 0)"/>
      <use xlink:href="#DejaVuSans-73" transform="translate(177.001953 0)"/>
     </g>
    </g>
   </g>
   <g id="text_15">
    <g id="patch_33">
     <path d="M 1071.861538 516.159782 
L 1083.353056 549.551487 
Q 1084.915034 554.090234 1089.453781 552.528257 
L 1096.774875 550.008755 
Q 1101.313622 548.446777 1099.751644 543.90803 
L 1088.260127 510.516325 
Q 1086.698149 505.977578 1082.159402 507.539555 
L 1074.838308 510.059057 
Q 1070.299561 511.621035 1071.861538 516.159782 
z
" clip-path="url(#p871af23c74)" style="fill: #ffffff; opacity: 0.8"/>
    </g>
    <g clip-path="url(#p871af23c74)">
     <!-- operates -->
     <g transform="translate(1077.973482 514.0564) rotate(-288.990537) scale(0.08 -0.08)">
      <use xlink:href="#DejaVuSans-6f"/>
      <use xlink:href="#DejaVuSans-70" transform="translate(61.181641 0)"/>
      <use xlink:href="#DejaVuSans-65" transform="translate(124.658203 0)"/>
      <use xlink:href="#DejaVuSans-72" transform="translate(186.181641 0)"/>
      <use xlink:href="#DejaVuSans-61" transform="translate(227.294922 0)"/>
      <use xlink:href="#DejaVuSans-74" transform="translate(288.574219 0)"/>
      <use xlink:href="#DejaVuSans-65" transform="translate(327.783203 0)"/>
      <use xlink:href="#DejaVuSans-73" transform="translate(389.306641 0)"/>
     </g>
    </g>
   </g>
   <g id="text_16">
    <g id="patch_34">
     <path d="M 884.271936 554.056377 
L 910.370566 515.442855 
Q 913.058477 511.46603 909.081651 508.778119 
L 902.482607 504.317868 
Q 898.505782 501.629958 895.817872 505.606783 
L 869.719242 544.220305 
Q 867.031332 548.19713 871.008157 550.88504 
L 877.607201 555.345291 
Q 881.584026 558.033202 884.271936 554.056377 
z
" clip-path="url(#p871af23c74)" style="fill: #ffffff; opacity: 0.8"/>
    </g>
    <g clip-path="url(#p871af23c74)">
     <!-- operates_in -->
     <g transform="translate(878.732343 550.312202) rotate(-55.945494) scale(0.08 -0.08)">
      <use xlink:href="#DejaVuSans-6f"/>
      <use xlink:href="#DejaVuSans-70" transform="translate(61.181641 0)"/>
      <use xlink:href="#DejaVuSans-65" transform="translate(124.658203 0)"/>
      <use xlink:href="#DejaVuSans-72" transform="translate(186.181641 0)"/>
      <use xlink:href="#DejaVuSans-61" transform="translate(227.294922 0)"/>
      <use xlink:href="#DejaVuSans-74" transform="translate(288.574219 0)"/>
      <use xlink:href="#DejaVuSans-65" transform="translate(327.783203 0)"/>
      <use xlink:href="#DejaVuSans-73" transform="translate(389.306641 0)"/>
      <use xlink:href="#DejaVuSans-5f" transform="translate(441.40625 0)"/>
      <use xlink:href="#DejaVuSans-69" transform="translate(491.40625 0)"/>
      <use xlink:href="#DejaVuSans-6e" transform="translate(519.189453 0)"/>
     </g>
    </g>
   </g>
   <g id="text_17">
    <g id="patch_35">
     <path d="M 601.972124 660.193176 
L 620.752548 693.810481 
Q 623.093547 698.000914 627.283979 695.659914 
L 634.237478 691.775318 
Q 638.42791 689.434319 636.08691 685.243887 
L 617.306486 651.626581 
Q 614.965487 647.436149 610.775055 649.777149 
L 603.821556 653.661744 
Q 599.631124 656.002744 601.972124 660.193176 
z
" clip-path="url(#p871af23c74)" style="fill: #ffffff; opacity: 0.8"/>
    </g>
    <g clip-path="url(#p871af23c74)">
     <!-- is_part_of -->
     <g transform="translate(607.809265 656.932237) rotate(-299.190061) scale(0.08 -0.08)">
      <use xlink:href="#DejaVuSans-69"/>
      <use xlink:href="#DejaVuSans-73" transform="translate(27.783203 0)"/>
      <use xlink:href="#DejaVuSans-5f" transform="translate(79.882812 0)"/>
      <use xlink:href="#DejaVuSans-70" transform="translate(129.882812 0)"/>
      <use xlink:href="#DejaVuSans-61" transform="translate(193.359375 0)"/>
      <use xlink:href="#DejaVuSans-72" transform="translate(254.638672 0)"/>
      <use xlink:href="#DejaVuSans-74" transform="translate(295.751953 0)"/>
      <use xlink:href="#DejaVuSans-5f" transform="translate(334.960938 0)"/>
      <use xlink:href="#DejaVuSans-6f" transform="translate(384.960938 0)"/>
      <use xlink:href="#DejaVuSans-66" transform="translate(446.142578 0)"/>
     </g>
    </g>
   </g>
   <g id="PathCollection_1">
    <defs>
     <path id="m8c26b32a07" d="M 0 25 
C 6.630078 25 12.989497 22.365842 17.67767 17.67767 
C 22.365842 12.989497 25 6.630078 25 0 
C 25 -6.630078 22.365842 -12.989497 17.67767 -17.67767 
C 12.989497 -22.365842 6.630078 -25 0 -25 
C -6.630078 -25 -12.989497 -22.365842 -17.67767 -17.67767 
C -22.365842 -12.989497 -25 -6.630078 -25 0 
C -25 6.630078 -22.365842 12.989497 -17.67767 17.67767 
C -12.989497 22.365842 -6.630078 25 0 25 
z
" style="stroke: #add8e6"/>
    </defs>
    <g clip-path="url(#p871af23c74)">
     <use xlink:href="#m8c26b32a07" x="652.418824" y="337.983471" style="fill: #add8e6; stroke: #add8e6"/>
     <use xlink:href="#m8c26b32a07" x="131.563295" y="99.966942" style="fill: #add8e6; stroke: #add8e6"/>
     <use xlink:href="#m8c26b32a07" x="419.539835" y="99.966942" style="fill: #add8e6; stroke: #add8e6"/>
     <use xlink:href="#m8c26b32a07" x="131.563295" y="337.983471" style="fill: #add8e6; stroke: #add8e6"/>
     <use xlink:href="#m8c26b32a07" x="112.46281" y="814.016529" style="fill: #add8e6; stroke: #add8e6"/>
     <use xlink:href="#m8c26b32a07" x="112.46281" y="1052.033058" style="fill: #add8e6; stroke: #add8e6"/>
     <use xlink:href="#m8c26b32a07" x="419.539835" y="337.983471" style="fill: #add8e6; stroke: #add8e6"/>
     <use xlink:href="#m8c26b32a07" x="363.707649" y="814.016529" style="fill: #add8e6; stroke: #add8e6"/>
     <use xlink:href="#m8c26b32a07" x="315.221803" y="576" style="fill: #add8e6; stroke: #add8e6"/>
     <use xlink:href="#m8c26b32a07" x="1019.713801" y="576" style="fill: #add8e6; stroke: #add8e6"/>
     <use xlink:href="#m8c26b32a07" x="1019.713801" y="337.983471" style="fill: #add8e6; stroke: #add8e6"/>
     <use xlink:href="#m8c26b32a07" x="1183.53719" y="814.016529" style="fill: #add8e6; stroke: #add8e6"/>
     <use xlink:href="#m8c26b32a07" x="564.997374" y="576" style="fill: #add8e6; stroke: #add8e6"/>
     <use xlink:href="#m8c26b32a07" x="697.966134" y="814.016529" style="fill: #add8e6; stroke: #add8e6"/>
    </g>
   </g>
   <g id="text_18">
    <g clip-path="url(#p871af23c74)">
     <!-- DfE -->
     <g transform="translate(122.796029 102.45038) scale(0.09 -0.09)">
      <defs>
       <path id="DejaVuSans-Bold-44" d="M 1791 3756 
L 1791 909 
L 2222 909 
Q 2959 909 3348 1275 
Q 3738 1641 3738 2338 
Q 3738 3031 3350 3393 
Q 2963 3756 2222 3756 
L 1791 3756 
z
M 588 4666 
L 1856 4666 
Q 2919 4666 3439 4514 
Q 3959 4363 4331 4000 
Q 4659 3684 4818 3271 
Q 4978 2859 4978 2338 
Q 4978 1809 4818 1395 
Q 4659 981 4331 666 
Q 3956 303 3431 151 
Q 2906 0 1856 0 
L 588 0 
L 588 4666 
z
" transform="scale(0.015625)"/>
       <path id="DejaVuSans-Bold-66" d="M 2841 4863 
L 2841 4128 
L 2222 4128 
Q 1984 4128 1890 4042 
Q 1797 3956 1797 3744 
L 1797 3500 
L 2753 3500 
L 2753 2700 
L 1797 2700 
L 1797 0 
L 678 0 
L 678 2700 
L 122 2700 
L 122 3500 
L 678 3500 
L 678 3744 
Q 678 4316 997 4589 
Q 1316 4863 1984 4863 
L 2841 4863 
z
" transform="scale(0.015625)"/>
       <path id="DejaVuSans-Bold-45" d="M 588 4666 
L 3834 4666 
L 3834 3756 
L 1791 3756 
L 1791 2888 
L 3713 2888 
L 3713 1978 
L 1791 1978 
L 1791 909 
L 3903 909 
L 3903 0 
L 588 0 
L 588 4666 
z
" transform="scale(0.015625)"/>
      </defs>
      <use xlink:href="#DejaVuSans-Bold-44"/>
      <use xlink:href="#DejaVuSans-Bold-66" transform="translate(83.007812 0)"/>
      <use xlink:href="#DejaVuSans-Bold-45" transform="translate(126.513672 0)"/>
     </g>
    </g>
   </g>
   <g id="text_19">
    <g clip-path="url(#p871af23c74)">
     <!-- Ofsted -->
     <g transform="translate(402.654289 102.45038) scale(0.09 -0.09)">
      <defs>
       <path id="DejaVuSans-Bold-4f" d="M 2719 3878 
Q 2169 3878 1866 3472 
Q 1563 3066 1563 2328 
Q 1563 1594 1866 1187 
Q 2169 781 2719 781 
Q 3272 781 3575 1187 
Q 3878 1594 3878 2328 
Q 3878 3066 3575 3472 
Q 3272 3878 2719 3878 
z
M 2719 4750 
Q 3844 4750 4481 4106 
Q 5119 3463 5119 2328 
Q 5119 1197 4481 553 
Q 3844 -91 2719 -91 
Q 1597 -91 958 553 
Q 319 1197 319 2328 
Q 319 3463 958 4106 
Q 1597 4750 2719 4750 
z
" transform="scale(0.015625)"/>
       <path id="DejaVuSans-Bold-73" d="M 3272 3391 
L 3272 2541 
Q 2913 2691 2578 2766 
Q 2244 2841 1947 2841 
Q 1628 2841 1473 2761 
Q 1319 2681 1319 2516 
Q 1319 2381 1436 2309 
Q 1553 2238 1856 2203 
L 2053 2175 
Q 2913 2066 3209 1816 
Q 3506 1566 3506 1031 
Q 3506 472 3093 190 
Q 2681 -91 1863 -91 
Q 1516 -91 1145 -36 
Q 775 19 384 128 
L 384 978 
Q 719 816 1070 734 
Q 1422 653 1784 653 
Q 2113 653 2278 743 
Q 2444 834 2444 1013 
Q 2444 1163 2330 1236 
Q 2216 1309 1875 1350 
L 1678 1375 
Q 931 1469 631 1722 
Q 331 1975 331 2491 
Q 331 3047 712 3315 
Q 1094 3584 1881 3584 
Q 2191 3584 2531 3537 
Q 2872 3491 3272 3391 
z
" transform="scale(0.015625)"/>
       <path id="DejaVuSans-Bold-74" d="M 1759 4494 
L 1759 3500 
L 2913 3500 
L 2913 2700 
L 1759 2700 
L 1759 1216 
Q 1759 972 1856 886 
Q 1953 800 2241 800 
L 2816 800 
L 2816 0 
L 1856 0 
Q 1194 0 917 276 
Q 641 553 641 1216 
L 641 2700 
L 84 2700 
L 84 3500 
L 641 3500 
L 641 4494 
L 1759 4494 
z
" transform="scale(0.015625)"/>
       <path id="DejaVuSans-Bold-65" d="M 4031 1759 
L 4031 1441 
L 1416 1441 
Q 1456 1047 1700 850 
Q 1944 653 2381 653 
Q 2734 653 3104 758 
Q 3475 863 3866 1075 
L 3866 213 
Q 3469 63 3072 -14 
Q 2675 -91 2278 -91 
Q 1328 -91 801 392 
Q 275 875 275 1747 
Q 275 2603 792 3093 
Q 1309 3584 2216 3584 
Q 3041 3584 3536 3087 
Q 4031 2591 4031 1759 
z
M 2881 2131 
Q 2881 2450 2695 2645 
Q 2509 2841 2209 2841 
Q 1884 2841 1681 2658 
Q 1478 2475 1428 2131 
L 2881 2131 
z
" transform="scale(0.015625)"/>
       <path id="DejaVuSans-Bold-64" d="M 2919 2988 
L 2919 4863 
L 4044 4863 
L 4044 0 
L 2919 0 
L 2919 506 
Q 2688 197 2409 53 
Q 2131 -91 1766 -91 
Q 1119 -91 703 423 
Q 288 938 288 1747 
Q 288 2556 703 3070 
Q 1119 3584 1766 3584 
Q 2128 3584 2408 3439 
Q 2688 3294 2919 2988 
z
M 2181 722 
Q 2541 722 2730 984 
Q 2919 1247 2919 1747 
Q 2919 2247 2730 2509 
Q 2541 2772 2181 2772 
Q 1825 2772 1636 2509 
Q 1447 2247 1447 1747 
Q 1447 1247 1636 984 
Q 1825 722 2181 722 
z
" transform="scale(0.015625)"/>
      </defs>
      <use xlink:href="#DejaVuSans-Bold-4f"/>
      <use xlink:href="#DejaVuSans-Bold-66" transform="translate(85.009766 0)"/>
      <use xlink:href="#DejaVuSans-Bold-73" transform="translate(128.515625 0)"/>
      <use xlink:href="#DejaVuSans-Bold-74" transform="translate(188.037109 0)"/>
      <use xlink:href="#DejaVuSans-Bold-65" transform="translate(235.839844 0)"/>
      <use xlink:href="#DejaVuSans-Bold-64" transform="translate(303.662109 0)"/>
     </g>
    </g>
   </g>
   <g id="text_20">
    <g clip-path="url(#p871af23c74)">
     <!-- Local Authority -->
     <g transform="translate(92.81267 340.431752) scale(0.09 -0.09)">
      <defs>
       <path id="DejaVuSans-Bold-4c" d="M 588 4666 
L 1791 4666 
L 1791 909 
L 3903 909 
L 3903 0 
L 588 0 
L 588 4666 
z
" transform="scale(0.015625)"/>
       <path id="DejaVuSans-Bold-6f" d="M 2203 2784 
Q 1831 2784 1636 2517 
Q 1441 2250 1441 1747 
Q 1441 1244 1636 976 
Q 1831 709 2203 709 
Q 2569 709 2762 976 
Q 2956 1244 2956 1747 
Q 2956 2250 2762 2517 
Q 2569 2784 2203 2784 
z
M 2203 3584 
Q 3106 3584 3614 3096 
Q 4122 2609 4122 1747 
Q 4122 884 3614 396 
Q 3106 -91 2203 -91 
Q 1297 -91 786 396 
Q 275 884 275 1747 
Q 275 2609 786 3096 
Q 1297 3584 2203 3584 
z
" transform="scale(0.015625)"/>
       <path id="DejaVuSans-Bold-63" d="M 3366 3391 
L 3366 2478 
Q 3138 2634 2908 2709 
Q 2678 2784 2431 2784 
Q 1963 2784 1702 2511 
Q 1441 2238 1441 1747 
Q 1441 1256 1702 982 
Q 1963 709 2431 709 
Q 2694 709 2930 787 
Q 3166 866 3366 1019 
L 3366 103 
Q 3103 6 2833 -42 
Q 2563 -91 2291 -91 
Q 1344 -91 809 395 
Q 275 881 275 1747 
Q 275 2613 809 3098 
Q 1344 3584 2291 3584 
Q 2566 3584 2833 3536 
Q 3100 3488 3366 3391 
z
" transform="scale(0.015625)"/>
       <path id="DejaVuSans-Bold-61" d="M 2106 1575 
Q 1756 1575 1579 1456 
Q 1403 1338 1403 1106 
Q 1403 894 1545 773 
Q 1688 653 1941 653 
Q 2256 653 2472 879 
Q 2688 1106 2688 1447 
L 2688 1575 
L 2106 1575 
z
M 3816 1997 
L 3816 0 
L 2688 0 
L 2688 519 
Q 2463 200 2181 54 
Q 1900 -91 1497 -91 
Q 953 -91 614 226 
Q 275 544 275 1050 
Q 275 1666 698 1953 
Q 1122 2241 2028 2241 
L 2688 2241 
L 2688 2328 
Q 2688 2594 2478 2717 
Q 2269 2841 1825 2841 
Q 1466 2841 1156 2769 
Q 847 2697 581 2553 
L 581 3406 
Q 941 3494 1303 3539 
Q 1666 3584 2028 3584 
Q 2975 3584 3395 3211 
Q 3816 2838 3816 1997 
z
" transform="scale(0.015625)"/>
       <path id="DejaVuSans-Bold-6c" d="M 538 4863 
L 1656 4863 
L 1656 0 
L 538 0 
L 538 4863 
z
" transform="scale(0.015625)"/>
       <path id="DejaVuSans-Bold-20" transform="scale(0.015625)"/>
       <path id="DejaVuSans-Bold-41" d="M 3419 850 
L 1538 850 
L 1241 0 
L 31 0 
L 1759 4666 
L 3194 4666 
L 4922 0 
L 3713 0 
L 3419 850 
z
M 1838 1716 
L 3116 1716 
L 2478 3572 
L 1838 1716 
z
" transform="scale(0.015625)"/>
       <path id="DejaVuSans-Bold-75" d="M 500 1363 
L 500 3500 
L 1625 3500 
L 1625 3150 
Q 1625 2866 1622 2436 
Q 1619 2006 1619 1863 
Q 1619 1441 1641 1255 
Q 1663 1069 1716 984 
Q 1784 875 1895 815 
Q 2006 756 2150 756 
Q 2500 756 2700 1025 
Q 2900 1294 2900 1772 
L 2900 3500 
L 4019 3500 
L 4019 0 
L 2900 0 
L 2900 506 
Q 2647 200 2364 54 
Q 2081 -91 1741 -91 
Q 1134 -91 817 281 
Q 500 653 500 1363 
z
" transform="scale(0.015625)"/>
       <path id="DejaVuSans-Bold-68" d="M 4056 2131 
L 4056 0 
L 2931 0 
L 2931 347 
L 2931 1625 
Q 2931 2084 2911 2256 
Q 2891 2428 2841 2509 
Q 2775 2619 2662 2680 
Q 2550 2741 2406 2741 
Q 2056 2741 1856 2470 
Q 1656 2200 1656 1722 
L 1656 0 
L 538 0 
L 538 4863 
L 1656 4863 
L 1656 2988 
Q 1909 3294 2193 3439 
Q 2478 3584 2822 3584 
Q 3428 3584 3742 3212 
Q 4056 2841 4056 2131 
z
" transform="scale(0.015625)"/>
       <path id="DejaVuSans-Bold-72" d="M 3138 2547 
Q 2991 2616 2845 2648 
Q 2700 2681 2553 2681 
Q 2122 2681 1889 2404 
Q 1656 2128 1656 1613 
L 1656 0 
L 538 0 
L 538 3500 
L 1656 3500 
L 1656 2925 
Q 1872 3269 2151 3426 
Q 2431 3584 2822 3584 
Q 2878 3584 2943 3579 
Q 3009 3575 3134 3559 
L 3138 2547 
z
" transform="scale(0.015625)"/>
       <path id="DejaVuSans-Bold-69" d="M 538 3500 
L 1656 3500 
L 1656 0 
L 538 0 
L 538 3500 
z
M 538 4863 
L 1656 4863 
L 1656 3950 
L 538 3950 
L 538 4863 
z
" transform="scale(0.015625)"/>
       <path id="DejaVuSans-Bold-79" d="M 78 3500 
L 1197 3500 
L 2138 1125 
L 2938 3500 
L 4056 3500 
L 2584 -331 
Q 2363 -916 2067 -1148 
Q 1772 -1381 1288 -1381 
L 641 -1381 
L 641 -647 
L 991 -647 
Q 1275 -647 1404 -556 
Q 1534 -466 1606 -231 
L 1638 -134 
L 78 3500 
z
" transform="scale(0.015625)"/>
      </defs>
      <use xlink:href="#DejaVuSans-Bold-4c"/>
      <use xlink:href="#DejaVuSans-Bold-6f" transform="translate(63.720703 0)"/>
      <use xlink:href="#DejaVuSans-Bold-63" transform="translate(132.421875 0)"/>
      <use xlink:href="#DejaVuSans-Bold-61" transform="translate(191.699219 0)"/>
      <use xlink:href="#DejaVuSans-Bold-6c" transform="translate(259.179688 0)"/>
      <use xlink:href="#DejaVuSans-Bold-20" transform="translate(293.457031 0)"/>
      <use xlink:href="#DejaVuSans-Bold-41" transform="translate(328.271484 0)"/>
      <use xlink:href="#DejaVuSans-Bold-75" transform="translate(405.664062 0)"/>
      <use xlink:href="#DejaVuSans-Bold-74" transform="translate(476.855469 0)"/>
      <use xlink:href="#DejaVuSans-Bold-68" transform="translate(524.658203 0)"/>
      <use xlink:href="#DejaVuSans-Bold-6f" transform="translate(595.849609 0)"/>
      <use xlink:href="#DejaVuSans-Bold-72" transform="translate(664.550781 0)"/>
      <use xlink:href="#DejaVuSans-Bold-69" transform="translate(713.867188 0)"/>
      <use xlink:href="#DejaVuSans-Bold-74" transform="translate(748.144531 0)"/>
      <use xlink:href="#DejaVuSans-Bold-79" transform="translate(795.947266 0)"/>
     </g>
    </g>
   </g>
   <g id="text_21">
    <g clip-path="url(#p871af23c74)">
     <!-- LA Children’s Social Care -->
     <g transform="translate(49.005779 816.499966) scale(0.09 -0.09)">
      <defs>
       <path id="DejaVuSans-Bold-43" d="M 4288 256 
Q 3956 84 3597 -3 
Q 3238 -91 2847 -91 
Q 1681 -91 1000 561 
Q 319 1213 319 2328 
Q 319 3447 1000 4098 
Q 1681 4750 2847 4750 
Q 3238 4750 3597 4662 
Q 3956 4575 4288 4403 
L 4288 3438 
Q 3953 3666 3628 3772 
Q 3303 3878 2944 3878 
Q 2300 3878 1931 3465 
Q 1563 3053 1563 2328 
Q 1563 1606 1931 1193 
Q 2300 781 2944 781 
Q 3303 781 3628 887 
Q 3953 994 4288 1222 
L 4288 256 
z
" transform="scale(0.015625)"/>
       <path id="DejaVuSans-Bold-6e" d="M 4056 2131 
L 4056 0 
L 2931 0 
L 2931 347 
L 2931 1631 
Q 2931 2084 2911 2256 
Q 2891 2428 2841 2509 
Q 2775 2619 2662 2680 
Q 2550 2741 2406 2741 
Q 2056 2741 1856 2470 
Q 1656 2200 1656 1722 
L 1656 0 
L 538 0 
L 538 3500 
L 1656 3500 
L 1656 2988 
Q 1909 3294 2193 3439 
Q 2478 3584 2822 3584 
Q 3428 3584 3742 3212 
Q 4056 2841 4056 2131 
z
" transform="scale(0.015625)"/>
       <path id="DejaVuSans-Bold-2019" d="M 716 4666 
L 1778 4666 
L 1778 3775 
L 1069 2675 
L 403 2675 
L 716 3775 
L 716 4666 
z
" transform="scale(0.015625)"/>
       <path id="DejaVuSans-Bold-53" d="M 3834 4519 
L 3834 3531 
Q 3450 3703 3084 3790 
Q 2719 3878 2394 3878 
Q 1963 3878 1756 3759 
Q 1550 3641 1550 3391 
Q 1550 3203 1689 3098 
Q 1828 2994 2194 2919 
L 2706 2816 
Q 3484 2659 3812 2340 
Q 4141 2022 4141 1434 
Q 4141 663 3683 286 
Q 3225 -91 2284 -91 
Q 1841 -91 1394 -6 
Q 947 78 500 244 
L 500 1259 
Q 947 1022 1364 901 
Q 1781 781 2169 781 
Q 2563 781 2772 912 
Q 2981 1044 2981 1288 
Q 2981 1506 2839 1625 
Q 2697 1744 2272 1838 
L 1806 1941 
Q 1106 2091 782 2419 
Q 459 2747 459 3303 
Q 459 4000 909 4375 
Q 1359 4750 2203 4750 
Q 2588 4750 2994 4692 
Q 3400 4634 3834 4519 
z
" transform="scale(0.015625)"/>
      </defs>
      <use xlink:href="#DejaVuSans-Bold-4c"/>
      <use xlink:href="#DejaVuSans-Bold-41" transform="translate(63.720703 0)"/>
      <use xlink:href="#DejaVuSans-Bold-20" transform="translate(141.113281 0)"/>
      <use xlink:href="#DejaVuSans-Bold-43" transform="translate(175.927734 0)"/>
      <use xlink:href="#DejaVuSans-Bold-68" transform="translate(249.316406 0)"/>
      <use xlink:href="#DejaVuSans-Bold-69" transform="translate(320.507812 0)"/>
      <use xlink:href="#DejaVuSans-Bold-6c" transform="translate(354.785156 0)"/>
      <use xlink:href="#DejaVuSans-Bold-64" transform="translate(389.0625 0)"/>
      <use xlink:href="#DejaVuSans-Bold-72" transform="translate(460.644531 0)"/>
      <use xlink:href="#DejaVuSans-Bold-65" transform="translate(509.960938 0)"/>
      <use xlink:href="#DejaVuSans-Bold-6e" transform="translate(577.783203 0)"/>
      <use xlink:href="#DejaVuSans-Bold-2019" transform="translate(648.974609 0)"/>
      <use xlink:href="#DejaVuSans-Bold-73" transform="translate(686.962891 0)"/>
      <use xlink:href="#DejaVuSans-Bold-20" transform="translate(746.484375 0)"/>
      <use xlink:href="#DejaVuSans-Bold-53" transform="translate(781.298828 0)"/>
      <use xlink:href="#DejaVuSans-Bold-6f" transform="translate(853.320312 0)"/>
      <use xlink:href="#DejaVuSans-Bold-63" transform="translate(922.021484 0)"/>
      <use xlink:href="#DejaVuSans-Bold-69" transform="translate(981.298828 0)"/>
      <use xlink:href="#DejaVuSans-Bold-61" transform="translate(1015.576172 0)"/>
      <use xlink:href="#DejaVuSans-Bold-6c" transform="translate(1083.056641 0)"/>
      <use xlink:href="#DejaVuSans-Bold-20" transform="translate(1117.333984 0)"/>
      <use xlink:href="#DejaVuSans-Bold-43" transform="translate(1152.148438 0)"/>
      <use xlink:href="#DejaVuSans-Bold-61" transform="translate(1225.537109 0)"/>
      <use xlink:href="#DejaVuSans-Bold-72" transform="translate(1293.017578 0)"/>
      <use xlink:href="#DejaVuSans-Bold-65" transform="translate(1342.333984 0)"/>
     </g>
    </g>
   </g>
   <g id="text_22">
    <g clip-path="url(#p871af23c74)">
     <!-- Children Within Social Care -->
     <g transform="translate(43.136794 1054.516495) scale(0.09 -0.09)">
      <defs>
       <path id="DejaVuSans-Bold-57" d="M 191 4666 
L 1344 4666 
L 2150 1275 
L 2950 4666 
L 4109 4666 
L 4909 1275 
L 5716 4666 
L 6859 4666 
L 5759 0 
L 4372 0 
L 3525 3547 
L 2688 0 
L 1300 0 
L 191 4666 
z
" transform="scale(0.015625)"/>
      </defs>
      <use xlink:href="#DejaVuSans-Bold-43"/>
      <use xlink:href="#DejaVuSans-Bold-68" transform="translate(73.388672 0)"/>
      <use xlink:href="#DejaVuSans-Bold-69" transform="translate(144.580078 0)"/>
      <use xlink:href="#DejaVuSans-Bold-6c" transform="translate(178.857422 0)"/>
      <use xlink:href="#DejaVuSans-Bold-64" transform="translate(213.134766 0)"/>
      <use xlink:href="#DejaVuSans-Bold-72" transform="translate(284.716797 0)"/>
      <use xlink:href="#DejaVuSans-Bold-65" transform="translate(334.033203 0)"/>
      <use xlink:href="#DejaVuSans-Bold-6e" transform="translate(401.855469 0)"/>
      <use xlink:href="#DejaVuSans-Bold-20" transform="translate(473.046875 0)"/>
      <use xlink:href="#DejaVuSans-Bold-57" transform="translate(507.861328 0)"/>
      <use xlink:href="#DejaVuSans-Bold-69" transform="translate(618.164062 0)"/>
      <use xlink:href="#DejaVuSans-Bold-74" transform="translate(652.441406 0)"/>
      <use xlink:href="#DejaVuSans-Bold-68" transform="translate(700.244141 0)"/>
      <use xlink:href="#DejaVuSans-Bold-69" transform="translate(771.435547 0)"/>
      <use xlink:href="#DejaVuSans-Bold-6e" transform="translate(805.712891 0)"/>
      <use xlink:href="#DejaVuSans-Bold-20" transform="translate(876.904297 0)"/>
      <use xlink:href="#DejaVuSans-Bold-53" transform="translate(911.71875 0)"/>
      <use xlink:href="#DejaVuSans-Bold-6f" transform="translate(983.740234 0)"/>
      <use xlink:href="#DejaVuSans-Bold-63" transform="translate(1052.441406 0)"/>
      <use xlink:href="#DejaVuSans-Bold-69" transform="translate(1111.71875 0)"/>
      <use xlink:href="#DejaVuSans-Bold-61" transform="translate(1145.996094 0)"/>
      <use xlink:href="#DejaVuSans-Bold-6c" transform="translate(1213.476562 0)"/>
      <use xlink:href="#DejaVuSans-Bold-20" transform="translate(1247.753906 0)"/>
      <use xlink:href="#DejaVuSans-Bold-43" transform="translate(1282.568359 0)"/>
      <use xlink:href="#DejaVuSans-Bold-61" transform="translate(1355.957031 0)"/>
      <use xlink:href="#DejaVuSans-Bold-72" transform="translate(1423.4375 0)"/>
      <use xlink:href="#DejaVuSans-Bold-65" transform="translate(1472.753906 0)"/>
     </g>
    </g>
   </g>
   <g id="text_23">
    <g clip-path="url(#p871af23c74)">
     <!-- ILACS Inspection -->
     <g transform="translate(376.836242 340.466909) scale(0.09 -0.09)">
      <defs>
       <path id="DejaVuSans-Bold-49" d="M 588 4666 
L 1791 4666 
L 1791 0 
L 588 0 
L 588 4666 
z
" transform="scale(0.015625)"/>
       <path id="DejaVuSans-Bold-70" d="M 1656 506 
L 1656 -1331 
L 538 -1331 
L 538 3500 
L 1656 3500 
L 1656 2988 
Q 1888 3294 2169 3439 
Q 2450 3584 2816 3584 
Q 3463 3584 3878 3070 
Q 4294 2556 4294 1747 
Q 4294 938 3878 423 
Q 3463 -91 2816 -91 
Q 2450 -91 2169 54 
Q 1888 200 1656 506 
z
M 2400 2772 
Q 2041 2772 1848 2508 
Q 1656 2244 1656 1747 
Q 1656 1250 1848 986 
Q 2041 722 2400 722 
Q 2759 722 2948 984 
Q 3138 1247 3138 1747 
Q 3138 2247 2948 2509 
Q 2759 2772 2400 2772 
z
" transform="scale(0.015625)"/>
      </defs>
      <use xlink:href="#DejaVuSans-Bold-49"/>
      <use xlink:href="#DejaVuSans-Bold-4c" transform="translate(37.207031 0)"/>
      <use xlink:href="#DejaVuSans-Bold-41" transform="translate(100.927734 0)"/>
      <use xlink:href="#DejaVuSans-Bold-43" transform="translate(178.320312 0)"/>
      <use xlink:href="#DejaVuSans-Bold-53" transform="translate(253.583984 0)"/>
      <use xlink:href="#DejaVuSans-Bold-20" transform="translate(325.605469 0)"/>
      <use xlink:href="#DejaVuSans-Bold-49" transform="translate(360.419922 0)"/>
      <use xlink:href="#DejaVuSans-Bold-6e" transform="translate(397.626953 0)"/>
      <use xlink:href="#DejaVuSans-Bold-73" transform="translate(468.818359 0)"/>
      <use xlink:href="#DejaVuSans-Bold-70" transform="translate(528.339844 0)"/>
      <use xlink:href="#DejaVuSans-Bold-65" transform="translate(599.921875 0)"/>
      <use xlink:href="#DejaVuSans-Bold-63" transform="translate(667.744141 0)"/>
      <use xlink:href="#DejaVuSans-Bold-74" transform="translate(727.021484 0)"/>
      <use xlink:href="#DejaVuSans-Bold-69" transform="translate(774.824219 0)"/>
      <use xlink:href="#DejaVuSans-Bold-6f" transform="translate(809.101562 0)"/>
      <use xlink:href="#DejaVuSans-Bold-6e" transform="translate(877.802734 0)"/>
     </g>
    </g>
   </g>
   <g id="text_24">
    <g clip-path="url(#p871af23c74)">
     <!-- ILACS Judgements -->
     <g transform="translate(317.343586 816.46481) scale(0.09 -0.09)">
      <defs>
       <path id="DejaVuSans-Bold-4a" d="M 588 4666 
L 1791 4666 
L 1791 453 
Q 1791 -419 1317 -850 
Q 844 -1281 -116 -1281 
L -359 -1281 
L -359 -372 
L -172 -372 
Q 203 -372 395 -162 
Q 588 47 588 453 
L 588 4666 
z
" transform="scale(0.015625)"/>
       <path id="DejaVuSans-Bold-67" d="M 2919 594 
Q 2688 288 2409 144 
Q 2131 0 1766 0 
Q 1125 0 706 504 
Q 288 1009 288 1791 
Q 288 2575 706 3076 
Q 1125 3578 1766 3578 
Q 2131 3578 2409 3434 
Q 2688 3291 2919 2981 
L 2919 3500 
L 4044 3500 
L 4044 353 
Q 4044 -491 3511 -936 
Q 2978 -1381 1966 -1381 
Q 1638 -1381 1331 -1331 
Q 1025 -1281 716 -1178 
L 716 -306 
Q 1009 -475 1290 -558 
Q 1572 -641 1856 -641 
Q 2406 -641 2662 -400 
Q 2919 -159 2919 353 
L 2919 594 
z
M 2181 2772 
Q 1834 2772 1640 2515 
Q 1447 2259 1447 1791 
Q 1447 1309 1634 1061 
Q 1822 813 2181 813 
Q 2531 813 2725 1069 
Q 2919 1325 2919 1791 
Q 2919 2259 2725 2515 
Q 2531 2772 2181 2772 
z
" transform="scale(0.015625)"/>
       <path id="DejaVuSans-Bold-6d" d="M 3781 2919 
Q 3994 3244 4286 3414 
Q 4578 3584 4928 3584 
Q 5531 3584 5847 3212 
Q 6163 2841 6163 2131 
L 6163 0 
L 5038 0 
L 5038 1825 
Q 5041 1866 5042 1909 
Q 5044 1953 5044 2034 
Q 5044 2406 4934 2573 
Q 4825 2741 4581 2741 
Q 4263 2741 4089 2478 
Q 3916 2216 3909 1719 
L 3909 0 
L 2784 0 
L 2784 1825 
Q 2784 2406 2684 2573 
Q 2584 2741 2328 2741 
Q 2006 2741 1831 2477 
Q 1656 2213 1656 1722 
L 1656 0 
L 531 0 
L 531 3500 
L 1656 3500 
L 1656 2988 
Q 1863 3284 2130 3434 
Q 2397 3584 2719 3584 
Q 3081 3584 3359 3409 
Q 3638 3234 3781 2919 
z
" transform="scale(0.015625)"/>
      </defs>
      <use xlink:href="#DejaVuSans-Bold-49"/>
      <use xlink:href="#DejaVuSans-Bold-4c" transform="translate(37.207031 0)"/>
      <use xlink:href="#DejaVuSans-Bold-41" transform="translate(100.927734 0)"/>
      <use xlink:href="#DejaVuSans-Bold-43" transform="translate(178.320312 0)"/>
      <use xlink:href="#DejaVuSans-Bold-53" transform="translate(253.583984 0)"/>
      <use xlink:href="#DejaVuSans-Bold-20" transform="translate(325.605469 0)"/>
      <use xlink:href="#DejaVuSans-Bold-4a" transform="translate(360.419922 0)"/>
      <use xlink:href="#DejaVuSans-Bold-75" transform="translate(397.626953 0)"/>
      <use xlink:href="#DejaVuSans-Bold-64" transform="translate(468.818359 0)"/>
      <use xlink:href="#DejaVuSans-Bold-67" transform="translate(540.400391 0)"/>
      <use xlink:href="#DejaVuSans-Bold-65" transform="translate(611.982422 0)"/>
      <use xlink:href="#DejaVuSans-Bold-6d" transform="translate(679.804688 0)"/>
      <use xlink:href="#DejaVuSans-Bold-65" transform="translate(784.003906 0)"/>
      <use xlink:href="#DejaVuSans-Bold-6e" transform="translate(851.826172 0)"/>
      <use xlink:href="#DejaVuSans-Bold-74" transform="translate(923.017578 0)"/>
      <use xlink:href="#DejaVuSans-Bold-73" transform="translate(970.820312 0)"/>
     </g>
    </g>
   </g>
   <g id="text_25">
    <g clip-path="url(#p871af23c74)">
     <!-- ILACS Report -->
     <g transform="translate(281.803678 578.483438) scale(0.09 -0.09)">
      <defs>
       <path id="DejaVuSans-Bold-52" d="M 2297 2597 
Q 2675 2597 2839 2737 
Q 3003 2878 3003 3200 
Q 3003 3519 2839 3656 
Q 2675 3794 2297 3794 
L 1791 3794 
L 1791 2597 
L 2297 2597 
z
M 1791 1766 
L 1791 0 
L 588 0 
L 588 4666 
L 2425 4666 
Q 3347 4666 3776 4356 
Q 4206 4047 4206 3378 
Q 4206 2916 3982 2619 
Q 3759 2322 3309 2181 
Q 3556 2125 3751 1926 
Q 3947 1728 4147 1325 
L 4800 0 
L 3519 0 
L 2950 1159 
Q 2778 1509 2601 1637 
Q 2425 1766 2131 1766 
L 1791 1766 
z
" transform="scale(0.015625)"/>
      </defs>
      <use xlink:href="#DejaVuSans-Bold-49"/>
      <use xlink:href="#DejaVuSans-Bold-4c" transform="translate(37.207031 0)"/>
      <use xlink:href="#DejaVuSans-Bold-41" transform="translate(100.927734 0)"/>
      <use xlink:href="#DejaVuSans-Bold-43" transform="translate(178.320312 0)"/>
      <use xlink:href="#DejaVuSans-Bold-53" transform="translate(253.583984 0)"/>
      <use xlink:href="#DejaVuSans-Bold-20" transform="translate(325.605469 0)"/>
      <use xlink:href="#DejaVuSans-Bold-52" transform="translate(360.419922 0)"/>
      <use xlink:href="#DejaVuSans-Bold-65" transform="translate(437.421875 0)"/>
      <use xlink:href="#DejaVuSans-Bold-70" transform="translate(505.244141 0)"/>
      <use xlink:href="#DejaVuSans-Bold-6f" transform="translate(576.826172 0)"/>
      <use xlink:href="#DejaVuSans-Bold-72" transform="translate(645.527344 0)"/>
      <use xlink:href="#DejaVuSans-Bold-74" transform="translate(694.84375 0)"/>
     </g>
    </g>
   </g>
   <g id="text_26">
    <g clip-path="url(#p871af23c74)">
     <!-- ILACS Summary -->
     <g transform="translate(979.483801 578.413125) scale(0.09 -0.09)">
      <use xlink:href="#DejaVuSans-Bold-49"/>
      <use xlink:href="#DejaVuSans-Bold-4c" transform="translate(37.207031 0)"/>
      <use xlink:href="#DejaVuSans-Bold-41" transform="translate(100.927734 0)"/>
      <use xlink:href="#DejaVuSans-Bold-43" transform="translate(178.320312 0)"/>
      <use xlink:href="#DejaVuSans-Bold-53" transform="translate(253.583984 0)"/>
      <use xlink:href="#DejaVuSans-Bold-20" transform="translate(325.605469 0)"/>
      <use xlink:href="#DejaVuSans-Bold-53" transform="translate(360.419922 0)"/>
      <use xlink:href="#DejaVuSans-Bold-75" transform="translate(432.441406 0)"/>
      <use xlink:href="#DejaVuSans-Bold-6d" transform="translate(503.632812 0)"/>
      <use xlink:href="#DejaVuSans-Bold-6d" transform="translate(607.832031 0)"/>
      <use xlink:href="#DejaVuSans-Bold-61" transform="translate(712.03125 0)"/>
      <use xlink:href="#DejaVuSans-Bold-72" transform="translate(779.511719 0)"/>
      <use xlink:href="#DejaVuSans-Bold-79" transform="translate(828.828125 0)"/>
     </g>
    </g>
   </g>
   <g id="text_27">
    <g clip-path="url(#p871af23c74)">
     <!-- Ofsted_ILACS_Scrape_Tool -->
     <g transform="translate(586.494527 340.341752) scale(0.09 -0.09)">
      <defs>
       <path id="DejaVuSans-Bold-5f" d="M 3200 -916 
L 3200 -1509 
L 0 -1509 
L 0 -916 
L 3200 -916 
z
" transform="scale(0.015625)"/>
       <path id="DejaVuSans-Bold-54" d="M 31 4666 
L 4331 4666 
L 4331 3756 
L 2784 3756 
L 2784 0 
L 1581 0 
L 1581 3756 
L 31 3756 
L 31 4666 
z
" transform="scale(0.015625)"/>
      </defs>
      <use xlink:href="#DejaVuSans-Bold-4f"/>
      <use xlink:href="#DejaVuSans-Bold-66" transform="translate(85.009766 0)"/>
      <use xlink:href="#DejaVuSans-Bold-73" transform="translate(128.515625 0)"/>
      <use xlink:href="#DejaVuSans-Bold-74" transform="translate(188.037109 0)"/>
      <use xlink:href="#DejaVuSans-Bold-65" transform="translate(235.839844 0)"/>
      <use xlink:href="#DejaVuSans-Bold-64" transform="translate(303.662109 0)"/>
      <use xlink:href="#DejaVuSans-Bold-5f" transform="translate(375.244141 0)"/>
      <use xlink:href="#DejaVuSans-Bold-49" transform="translate(425.244141 0)"/>
      <use xlink:href="#DejaVuSans-Bold-4c" transform="translate(462.451172 0)"/>
      <use xlink:href="#DejaVuSans-Bold-41" transform="translate(526.171875 0)"/>
      <use xlink:href="#DejaVuSans-Bold-43" transform="translate(603.564453 0)"/>
      <use xlink:href="#DejaVuSans-Bold-53" transform="translate(678.828125 0)"/>
      <use xlink:href="#DejaVuSans-Bold-5f" transform="translate(750.849609 0)"/>
      <use xlink:href="#DejaVuSans-Bold-53" transform="translate(800.849609 0)"/>
      <use xlink:href="#DejaVuSans-Bold-63" transform="translate(872.871094 0)"/>
      <use xlink:href="#DejaVuSans-Bold-72" transform="translate(932.148438 0)"/>
      <use xlink:href="#DejaVuSans-Bold-61" transform="translate(981.464844 0)"/>
      <use xlink:href="#DejaVuSans-Bold-70" transform="translate(1048.945312 0)"/>
      <use xlink:href="#DejaVuSans-Bold-65" transform="translate(1120.527344 0)"/>
      <use xlink:href="#DejaVuSans-Bold-5f" transform="translate(1188.349609 0)"/>
      <use xlink:href="#DejaVuSans-Bold-54" transform="translate(1238.349609 0)"/>
      <use xlink:href="#DejaVuSans-Bold-6f" transform="translate(1293.3125 0)"/>
      <use xlink:href="#DejaVuSans-Bold-6f" transform="translate(1362.013672 0)"/>
      <use xlink:href="#DejaVuSans-Bold-6c" transform="translate(1430.714844 0)"/>
     </g>
    </g>
   </g>
   <g id="text_28">
    <g clip-path="url(#p871af23c74)">
     <!-- LIIA -->
     <g transform="translate(1010.015598 340.466909) scale(0.09 -0.09)">
      <use xlink:href="#DejaVuSans-Bold-4c"/>
      <use xlink:href="#DejaVuSans-Bold-49" transform="translate(63.720703 0)"/>
      <use xlink:href="#DejaVuSans-Bold-49" transform="translate(100.927734 0)"/>
      <use xlink:href="#DejaVuSans-Bold-41" transform="translate(138.134766 0)"/>
     </g>
    </g>
   </g>
   <g id="text_29">
    <g clip-path="url(#p871af23c74)">
     <!-- LIIA PowerBI Dashboard -->
     <g transform="translate(1122.339299 816.499966) scale(0.09 -0.09)">
      <defs>
       <path id="DejaVuSans-Bold-50" d="M 588 4666 
L 2584 4666 
Q 3475 4666 3951 4270 
Q 4428 3875 4428 3144 
Q 4428 2409 3951 2014 
Q 3475 1619 2584 1619 
L 1791 1619 
L 1791 0 
L 588 0 
L 588 4666 
z
M 1791 3794 
L 1791 2491 
L 2456 2491 
Q 2806 2491 2997 2661 
Q 3188 2831 3188 3144 
Q 3188 3456 2997 3625 
Q 2806 3794 2456 3794 
L 1791 3794 
z
" transform="scale(0.015625)"/>
       <path id="DejaVuSans-Bold-77" d="M 225 3500 
L 1313 3500 
L 1900 1088 
L 2491 3500 
L 3425 3500 
L 4013 1113 
L 4603 3500 
L 5691 3500 
L 4769 0 
L 3547 0 
L 2956 2406 
L 2369 0 
L 1147 0 
L 225 3500 
z
" transform="scale(0.015625)"/>
       <path id="DejaVuSans-Bold-42" d="M 2456 2859 
Q 2741 2859 2887 2984 
Q 3034 3109 3034 3353 
Q 3034 3594 2887 3720 
Q 2741 3847 2456 3847 
L 1791 3847 
L 1791 2859 
L 2456 2859 
z
M 2497 819 
Q 2859 819 3042 972 
Q 3225 1125 3225 1434 
Q 3225 1738 3044 1889 
Q 2863 2041 2497 2041 
L 1791 2041 
L 1791 819 
L 2497 819 
z
M 3616 2497 
Q 4003 2384 4215 2081 
Q 4428 1778 4428 1338 
Q 4428 663 3972 331 
Q 3516 0 2584 0 
L 588 0 
L 588 4666 
L 2394 4666 
Q 3366 4666 3802 4372 
Q 4238 4078 4238 3431 
Q 4238 3091 4078 2852 
Q 3919 2613 3616 2497 
z
" transform="scale(0.015625)"/>
       <path id="DejaVuSans-Bold-62" d="M 2400 722 
Q 2759 722 2948 984 
Q 3138 1247 3138 1747 
Q 3138 2247 2948 2509 
Q 2759 2772 2400 2772 
Q 2041 2772 1848 2508 
Q 1656 2244 1656 1747 
Q 1656 1250 1848 986 
Q 2041 722 2400 722 
z
M 1656 2988 
Q 1888 3294 2169 3439 
Q 2450 3584 2816 3584 
Q 3463 3584 3878 3070 
Q 4294 2556 4294 1747 
Q 4294 938 3878 423 
Q 3463 -91 2816 -91 
Q 2450 -91 2169 54 
Q 1888 200 1656 506 
L 1656 0 
L 538 0 
L 538 4863 
L 1656 4863 
L 1656 2988 
z
" transform="scale(0.015625)"/>
      </defs>
      <use xlink:href="#DejaVuSans-Bold-4c"/>
      <use xlink:href="#DejaVuSans-Bold-49" transform="translate(63.720703 0)"/>
      <use xlink:href="#DejaVuSans-Bold-49" transform="translate(100.927734 0)"/>
      <use xlink:href="#DejaVuSans-Bold-41" transform="translate(138.134766 0)"/>
      <use xlink:href="#DejaVuSans-Bold-20" transform="translate(215.527344 0)"/>
      <use xlink:href="#DejaVuSans-Bold-50" transform="translate(250.341797 0)"/>
      <use xlink:href="#DejaVuSans-Bold-6f" transform="translate(323.632812 0)"/>
      <use xlink:href="#DejaVuSans-Bold-77" transform="translate(392.333984 0)"/>
      <use xlink:href="#DejaVuSans-Bold-65" transform="translate(484.716797 0)"/>
      <use xlink:href="#DejaVuSans-Bold-72" transform="translate(552.539062 0)"/>
      <use xlink:href="#DejaVuSans-Bold-42" transform="translate(601.855469 0)"/>
      <use xlink:href="#DejaVuSans-Bold-49" transform="translate(678.076172 0)"/>
      <use xlink:href="#DejaVuSans-Bold-20" transform="translate(715.283203 0)"/>
      <use xlink:href="#DejaVuSans-Bold-44" transform="translate(750.097656 0)"/>
      <use xlink:href="#DejaVuSans-Bold-61" transform="translate(833.105469 0)"/>
      <use xlink:href="#DejaVuSans-Bold-73" transform="translate(900.585938 0)"/>
      <use xlink:href="#DejaVuSans-Bold-68" transform="translate(960.107422 0)"/>
      <use xlink:href="#DejaVuSans-Bold-62" transform="translate(1031.298828 0)"/>
      <use xlink:href="#DejaVuSans-Bold-6f" transform="translate(1102.880859 0)"/>
      <use xlink:href="#DejaVuSans-Bold-61" transform="translate(1171.582031 0)"/>
      <use xlink:href="#DejaVuSans-Bold-72" transform="translate(1239.0625 0)"/>
      <use xlink:href="#DejaVuSans-Bold-64" transform="translate(1288.378906 0)"/>
     </g>
    </g>
   </g>
   <g id="text_30">
    <g clip-path="url(#p871af23c74)">
     <!-- Local Authority Area -->
     <g transform="translate(512.889483 578.448281) scale(0.09 -0.09)">
      <use xlink:href="#DejaVuSans-Bold-4c"/>
      <use xlink:href="#DejaVuSans-Bold-6f" transform="translate(63.720703 0)"/>
      <use xlink:href="#DejaVuSans-Bold-63" transform="translate(132.421875 0)"/>
      <use xlink:href="#DejaVuSans-Bold-61" transform="translate(191.699219 0)"/>
      <use xlink:href="#DejaVuSans-Bold-6c" transform="translate(259.179688 0)"/>
      <use xlink:href="#DejaVuSans-Bold-20" transform="translate(293.457031 0)"/>
      <use xlink:href="#DejaVuSans-Bold-41" transform="translate(328.271484 0)"/>
      <use xlink:href="#DejaVuSans-Bold-75" transform="translate(405.664062 0)"/>
      <use xlink:href="#DejaVuSans-Bold-74" transform="translate(476.855469 0)"/>
      <use xlink:href="#DejaVuSans-Bold-68" transform="translate(524.658203 0)"/>
      <use xlink:href="#DejaVuSans-Bold-6f" transform="translate(595.849609 0)"/>
      <use xlink:href="#DejaVuSans-Bold-72" transform="translate(664.550781 0)"/>
      <use xlink:href="#DejaVuSans-Bold-69" transform="translate(713.867188 0)"/>
      <use xlink:href="#DejaVuSans-Bold-74" transform="translate(748.144531 0)"/>
      <use xlink:href="#DejaVuSans-Bold-79" transform="translate(795.947266 0)"/>
      <use xlink:href="#DejaVuSans-Bold-20" transform="translate(861.132812 0)"/>
      <use xlink:href="#DejaVuSans-Bold-41" transform="translate(895.947266 0)"/>
      <use xlink:href="#DejaVuSans-Bold-72" transform="translate(973.339844 0)"/>
      <use xlink:href="#DejaVuSans-Bold-65" transform="translate(1022.65625 0)"/>
      <use xlink:href="#DejaVuSans-Bold-61" transform="translate(1090.478516 0)"/>
     </g>
    </g>
   </g>
   <g id="text_31">
    <g clip-path="url(#p871af23c74)">
     <!-- Region in England -->
     <g transform="translate(652.008477 816.46481) scale(0.09 -0.09)">
      <use xlink:href="#DejaVuSans-Bold-52"/>
      <use xlink:href="#DejaVuSans-Bold-65" transform="translate(77.001953 0)"/>
      <use xlink:href="#DejaVuSans-Bold-67" transform="translate(144.824219 0)"/>
      <use xlink:href="#DejaVuSans-Bold-69" transform="translate(216.40625 0)"/>
      <use xlink:href="#DejaVuSans-Bold-6f" transform="translate(250.683594 0)"/>
      <use xlink:href="#DejaVuSans-Bold-6e" transform="translate(319.384766 0)"/>
      <use xlink:href="#DejaVuSans-Bold-20" transform="translate(390.576172 0)"/>
      <use xlink:href="#DejaVuSans-Bold-69" transform="translate(425.390625 0)"/>
      <use xlink:href="#DejaVuSans-Bold-6e" transform="translate(459.667969 0)"/>
      <use xlink:href="#DejaVuSans-Bold-20" transform="translate(530.859375 0)"/>
      <use xlink:href="#DejaVuSans-Bold-45" transform="translate(565.673828 0)"/>
      <use xlink:href="#DejaVuSans-Bold-6e" transform="translate(633.984375 0)"/>
      <use xlink:href="#DejaVuSans-Bold-67" transform="translate(705.175781 0)"/>
      <use xlink:href="#DejaVuSans-Bold-6c" transform="translate(776.757812 0)"/>
      <use xlink:href="#DejaVuSans-Bold-61" transform="translate(811.035156 0)"/>
      <use xlink:href="#DejaVuSans-Bold-6e" transform="translate(878.515625 0)"/>
      <use xlink:href="#DejaVuSans-Bold-64" transform="translate(949.707031 0)"/>
     </g>
    </g>
   </g>
   <g id="text_32">
    <!-- SCCM Graph – Ofsted_ILACS_Scrape_Tool -->
    <g transform="translate(504.550313 -6) scale(0.14 -0.14)">
     <defs>
      <path id="DejaVuSans-53" d="M 3425 4513 
L 3425 3897 
Q 3066 4069 2747 4153 
Q 2428 4238 2131 4238 
Q 1616 4238 1336 4038 
Q 1056 3838 1056 3469 
Q 1056 3159 1242 3001 
Q 1428 2844 1947 2747 
L 2328 2669 
Q 3034 2534 3370 2195 
Q 3706 1856 3706 1288 
Q 3706 609 3251 259 
Q 2797 -91 1919 -91 
Q 1588 -91 1214 -16 
Q 841 59 441 206 
L 441 856 
Q 825 641 1194 531 
Q 1563 422 1919 422 
Q 2459 422 2753 634 
Q 3047 847 3047 1241 
Q 3047 1584 2836 1778 
Q 2625 1972 2144 2069 
L 1759 2144 
Q 1053 2284 737 2584 
Q 422 2884 422 3419 
Q 422 4038 858 4394 
Q 1294 4750 2059 4750 
Q 2388 4750 2728 4690 
Q 3069 4631 3425 4513 
z
" transform="scale(0.015625)"/>
      <path id="DejaVuSans-43" d="M 4122 4306 
L 4122 3641 
Q 3803 3938 3442 4084 
Q 3081 4231 2675 4231 
Q 1875 4231 1450 3742 
Q 1025 3253 1025 2328 
Q 1025 1406 1450 917 
Q 1875 428 2675 428 
Q 3081 428 3442 575 
Q 3803 722 4122 1019 
L 4122 359 
Q 3791 134 3420 21 
Q 3050 -91 2638 -91 
Q 1578 -91 968 557 
Q 359 1206 359 2328 
Q 359 3453 968 4101 
Q 1578 4750 2638 4750 
Q 3056 4750 3426 4639 
Q 3797 4528 4122 4306 
z
" transform="scale(0.015625)"/>
      <path id="DejaVuSans-4d" d="M 628 4666 
L 1569 4666 
L 2759 1491 
L 3956 4666 
L 4897 4666 
L 4897 0 
L 4281 0 
L 4281 4097 
L 3078 897 
L 2444 897 
L 1241 4097 
L 1241 0 
L 628 0 
L 628 4666 
z
" transform="scale(0.015625)"/>
      <path id="DejaVuSans-20" transform="scale(0.015625)"/>
      <path id="DejaVuSans-47" d="M 3809 666 
L 3809 1919 
L 2778 1919 
L 2778 2438 
L 4434 2438 
L 4434 434 
Q 4069 175 3628 42 
Q 3188 -91 2688 -91 
Q 1594 -91 976 548 
Q 359 1188 359 2328 
Q 359 3472 976 4111 
Q 1594 4750 2688 4750 
Q 3144 4750 3555 4637 
Q 3966 4525 4313 4306 
L 4313 3634 
Q 3963 3931 3569 4081 
Q 3175 4231 2741 4231 
Q 1884 4231 1454 3753 
Q 1025 3275 1025 2328 
Q 1025 1384 1454 906 
Q 1884 428 2741 428 
Q 3075 428 3337 486 
Q 3600 544 3809 666 
z
" transform="scale(0.015625)"/>
      <path id="DejaVuSans-2013" d="M 313 1978 
L 2888 1978 
L 2888 1528 
L 313 1528 
L 313 1978 
z
" transform="scale(0.015625)"/>
      <path id="DejaVuSans-49" d="M 628 4666 
L 1259 4666 
L 1259 0 
L 628 0 
L 628 4666 
z
" transform="scale(0.015625)"/>
      <path id="DejaVuSans-4c" d="M 628 4666 
L 1259 4666 
L 1259 531 
L 3531 531 
L 3531 0 
L 628 0 
L 628 4666 
z
" transform="scale(0.015625)"/>
      <path id="DejaVuSans-41" d="M 2188 4044 
L 1331 1722 
L 3047 1722 
L 2188 4044 
z
M 1831 4666 
L 2547 4666 
L 4325 0 
L 3669 0 
L 3244 1197 
L 1141 1197 
L 716 0 
L 50 0 
L 1831 4666 
z
" transform="scale(0.015625)"/>
      <path id="DejaVuSans-54" d="M -19 4666 
L 3928 4666 
L 3928 4134 
L 2272 4134 
L 2272 0 
L 1638 0 
L 1638 4134 
L -19 4134 
L -19 4666 
z
" transform="scale(0.015625)"/>
     </defs>
     <use xlink:href="#DejaVuSans-53"/>
     <use xlink:href="#DejaVuSans-43" transform="translate(63.476562 0)"/>
     <use xlink:href="#DejaVuSans-43" transform="translate(133.300781 0)"/>
     <use xlink:href="#DejaVuSans-4d" transform="translate(203.125 0)"/>
     <use xlink:href="#DejaVuSans-20" transform="translate(289.404297 0)"/>
     <use xlink:href="#DejaVuSans-47" transform="translate(321.191406 0)"/>
     <use xlink:href="#DejaVuSans-72" transform="translate(398.681641 0)"/>
     <use xlink:href="#DejaVuSans-61" transform="translate(439.794922 0)"/>
     <use xlink:href="#DejaVuSans-70" transform="translate(501.074219 0)"/>
     <use xlink:href="#DejaVuSans-68" transform="translate(564.550781 0)"/>
     <use xlink:href="#DejaVuSans-20" transform="translate(627.929688 0)"/>
     <use xlink:href="#DejaVuSans-2013" transform="translate(659.716797 0)"/>
     <use xlink:href="#DejaVuSans-20" transform="translate(709.716797 0)"/>
     <use xlink:href="#DejaVuSans-4f" transform="translate(741.503906 0)"/>
     <use xlink:href="#DejaVuSans-66" transform="translate(820.214844 0)"/>
     <use xlink:href="#DejaVuSans-73" transform="translate(855.419922 0)"/>
     <use xlink:href="#DejaVuSans-74" transform="translate(907.519531 0)"/>
     <use xlink:href="#DejaVuSans-65" transform="translate(946.728516 0)"/>
     <use xlink:href="#DejaVuSans-64" transform="translate(1008.251953 0)"/>
     <use xlink:href="#DejaVuSans-5f" transform="translate(1071.728516 0)"/>
     <use xlink:href="#DejaVuSans-49" transform="translate(1121.728516 0)"/>
     <use xlink:href="#DejaVuSans-4c" transform="translate(1151.220703 0)"/>
     <use xlink:href="#DejaVuSans-41" transform="translate(1209.183594 0)"/>
     <use xlink:href="#DejaVuSans-43" transform="translate(1275.841797 0)"/>
     <use xlink:href="#DejaVuSans-53" transform="translate(1345.666016 0)"/>
     <use xlink:href="#DejaVuSans-5f" transform="translate(1409.142578 0)"/>
     <use xlink:href="#DejaVuSans-53" transform="translate(1459.142578 0)"/>
     <use xlink:href="#DejaVuSans-63" transform="translate(1522.619141 0)"/>
     <use xlink:href="#DejaVuSans-72" transform="translate(1577.599609 0)"/>
     <use xlink:href="#DejaVuSans-61" transform="translate(1618.712891 0)"/>
     <use xlink:href="#DejaVuSans-70" transform="translate(1679.992188 0)"/>
     <use xlink:href="#DejaVuSans-65" transform="translate(1743.46875 0)"/>
     <use xlink:href="#DejaVuSans-5f" transform="translate(1804.992188 0)"/>
     <use xlink:href="#DejaVuSans-54" transform="translate(1854.992188 0)"/>
     <use xlink:href="#DejaVuSans-6f" transform="translate(1899.076172 0)"/>
     <use xlink:href="#DejaVuSans-6f" transform="translate(1960.257812 0)"/>
     <use xlink:href="#DejaVuSans-6c" transform="translate(2021.439453 0)"/>
    </g>
   </g>
  </g>
 </g>
 <defs>
  <clipPath id="p871af23c74">
   <rect x="0" y="0" width="1296" height="1152"/>
  </clipPath>
 </defs>
</svg>
