<?xml version="1.0" encoding="utf-8" standalone="no"?>
<!DOCTYPE svg PUBLIC "-//W3C//DTD SVG 1.1//EN"
  "http://www.w3.org/Graphics/SVG/1.1/DTD/svg11.dtd">
<svg xmlns:xlink="http://www.w3.org/1999/xlink" width="1296pt" height="1152pt" viewBox="0 0 1296 1152" xmlns="http://www.w3.org/2000/svg" version="1.1">
 <metadata>
  <rdf:RDF xmlns:dc="http://purl.org/dc/elements/1.1/" xmlns:cc="http://creativecommons.org/ns#" xmlns:rdf="http://www.w3.org/1999/02/22-rdf-syntax-ns#">
   <cc:Work>
    <dc:type rdf:resource="http://purl.org/dc/dcmitype/StillImage"/>
    <dc:date>2025-04-25T12:50:37.899377</dc:date>
    <dc:format>image/svg+xml</dc:format>
    <dc:creator>
     <cc:Agent>
      <dc:title>Matplotlib v3.10.1, https://matplotlib.org/</dc:title>
     </cc:Agent>
    </dc:creator>
   </cc:Work>
  </rdf:RDF>
 </metadata>
 <defs>
  <style type="text/css">*{stroke-linejoin: round; stroke-linecap: butt}</style>
 </defs>
 <g id="figure_1">
  <g id="patch_1">
   <path d="M 0 1152 
L 1296 1152 
L 1296 0 
L 0 0 
z
" style="fill: #ffffff"/>
  </g>
  <g id="axes_1">
   <g id="patch_2">
    <path d="M 1169.75571 501.651795 
Q 1057.728163 671.206596 946.316942 839.828582 
" clip-path="url(#pb2aff35a34)" style="fill: none; stroke: #808080; stroke-linecap: round"/>
    <path d="M 950.190644 837.593759 
L 946.316942 839.828582 
L 946.853305 835.388726 
z
" clip-path="url(#pb2aff35a34)" style="fill: #808080; stroke: #808080; stroke-linecap: round"/>
   </g>
   <g id="patch_3">
    <path d="M 1159.205214 486.54405 
Q 780.701868 576.000193 403.286582 665.199181 
" clip-path="url(#pb2aff35a34)" style="fill: none; stroke: #808080; stroke-linecap: round"/>
    <path d="M 407.63935 666.225539 
L 403.286582 665.199181 
L 406.719329 662.332781 
z
" clip-path="url(#pb2aff35a34)" style="fill: #808080; stroke: #808080; stroke-linecap: round"/>
   </g>
   <g id="patch_4">
    <path d="M 815.614691 124.968556 
Q 815.614691 195.174346 815.614691 264.262101 
" clip-path="url(#pb2aff35a34)" style="fill: none; stroke: #808080; stroke-linecap: round"/>
    <path d="M 817.614691 260.262101 
L 815.614691 264.262101 
L 813.614691 260.262101 
z
" clip-path="url(#pb2aff35a34)" style="fill: #808080; stroke: #808080; stroke-linecap: round"/>
   </g>
   <g id="patch_5">
    <path d="M 815.614691 315.381779 
Q 815.614691 385.587569 815.614691 454.675324 
" clip-path="url(#pb2aff35a34)" style="fill: none; stroke: #808080; stroke-linecap: round"/>
    <path d="M 817.614691 450.675324 
L 815.614691 454.675324 
L 813.614691 450.675324 
z
" clip-path="url(#pb2aff35a34)" style="fill: #808080; stroke: #808080; stroke-linecap: round"/>
   </g>
   <g id="patch_6">
    <path d="M 195.186561 505.795003 
Q 195.186561 576.000792 195.186561 645.088547 
" clip-path="url(#pb2aff35a34)" style="fill: none; stroke: #808080; stroke-linecap: round"/>
    <path d="M 197.186561 641.088547 
L 195.186561 645.088547 
L 193.186561 641.088547 
z
" clip-path="url(#pb2aff35a34)" style="fill: #808080; stroke: #808080; stroke-linecap: round"/>
   </g>
   <g id="patch_7">
    <path d="M 189.879371 505.225529 
Q 153.824547 671.207248 118.00705 836.096411 
" clip-path="url(#pb2aff35a34)" style="fill: none; stroke: #808080; stroke-linecap: round"/>
    <path d="M 120.810557 832.612111 
L 118.00705 836.096411 
L 116.901714 831.763025 
z
" clip-path="url(#pb2aff35a34)" style="fill: #808080; stroke: #808080; stroke-linecap: round"/>
   </g>
   <g id="patch_8">
    <path d="M 195.186561 385.586777 
C 221.684012 385.586777 221.684012 480.793388 195.186561 480.793388 
C 168.689109 480.793388 168.689109 385.586777 194.068527 385.586777 
" clip-path="url(#pb2aff35a34)" style="fill: none; stroke: #808080; stroke-linecap: round"/>
    <path d="M 190.068527 383.586777 
L 194.068527 385.586777 
L 190.068527 387.586777 
z
" clip-path="url(#pb2aff35a34)" style="fill: #808080; stroke: #808080; stroke-linecap: round"/>
   </g>
   <g id="patch_9">
    <path d="M 212.49415 498.833484 
Q 286.527138 575.999759 359.786105 652.359255 
" clip-path="url(#pb2aff35a34)" style="fill: none; stroke: #808080; stroke-linecap: round"/>
    <path d="M 358.460096 648.088225 
L 359.786105 652.359255 
L 355.573676 650.857444 
z
" clip-path="url(#pb2aff35a34)" style="fill: #808080; stroke: #808080; stroke-linecap: round"/>
   </g>
   <g id="patch_10">
    <path d="M 112.46281 886.621449 
Q 112.46281 956.827238 112.46281 1025.914994 
" clip-path="url(#pb2aff35a34)" style="fill: none; stroke: #808080; stroke-linecap: round"/>
    <path d="M 114.46281 1021.914994 
L 112.46281 1025.914994 
L 110.46281 1021.914994 
z
" clip-path="url(#pb2aff35a34)" style="fill: #808080; stroke: #808080; stroke-linecap: round"/>
   </g>
   <g id="patch_11">
    <path d="M 792.68737 490.766432 
Q 596.739167 576.000986 401.816203 660.789577 
" clip-path="url(#pb2aff35a34)" style="fill: none; stroke: #808080; stroke-linecap: round"/>
    <path d="M 406.281976 661.028052 
L 401.816203 660.789577 
L 404.686447 657.360043 
z
" clip-path="url(#pb2aff35a34)" style="fill: #808080; stroke: #808080; stroke-linecap: round"/>
   </g>
   <g id="patch_12">
    <path d="M 834.599384 497.055333 
Q 926.759694 575.998191 1018.070893 654.213716 
" clip-path="url(#pb2aff35a34)" style="fill: none; stroke: #808080; stroke-linecap: round"/>
    <path d="M 1016.334117 650.092599 
L 1018.070893 654.213716 
L 1013.731934 653.130467 
z
" clip-path="url(#pb2aff35a34)" style="fill: #808080; stroke: #808080; stroke-linecap: round"/>
   </g>
   <g id="patch_13">
    <path d="M 357.558608 685.77757 
Q 245.166313 766.412635 133.68244 846.395959 
" clip-path="url(#pb2aff35a34)" style="fill: none; stroke: #808080; stroke-linecap: round"/>
    <path d="M 138.098385 845.689254 
L 133.68244 846.395959 
L 135.766643 842.43918 
z
" clip-path="url(#pb2aff35a34)" style="fill: #808080; stroke: #808080; stroke-linecap: round"/>
   </g>
   <g id="patch_14">
    <path d="M 917.080051 881.740251 
Q 861.702829 956.826708 806.989215 1031.013375 
" clip-path="url(#pb2aff35a34)" style="fill: none; stroke: #808080; stroke-linecap: round"/>
    <path d="M 810.973007 1028.98128 
L 806.989215 1031.013375 
L 807.753815 1026.607085 
z
" clip-path="url(#pb2aff35a34)" style="fill: #808080; stroke: #808080; stroke-linecap: round"/>
   </g>
   <g id="patch_15">
    <path d="M 730.273311 687.544099 
Q 821.633297 766.41287 912.146977 844.551047 
" clip-path="url(#pb2aff35a34)" style="fill: none; stroke: #808080; stroke-linecap: round"/>
    <path d="M 910.42607 840.423278 
L 912.146977 844.551047 
L 907.812218 843.451112 
z
" clip-path="url(#pb2aff35a34)" style="fill: #808080; stroke: #808080; stroke-linecap: round"/>
   </g>
   <g id="patch_16">
    <path d="M 716.496975 695.673618 
Q 751.417663 861.620067 786.108122 1026.472443 
" clip-path="url(#pb2aff35a34)" style="fill: none; stroke: #808080; stroke-linecap: round"/>
    <path d="M 787.241564 1022.146324 
L 786.108122 1026.472443 
L 783.327292 1022.970018 
z
" clip-path="url(#pb2aff35a34)" style="fill: #808080; stroke: #808080; stroke-linecap: round"/>
   </g>
   <g id="patch_17">
    <path d="M 692.296259 687.398825 
Q 599.326617 766.413168 507.208893 844.70347 
" clip-path="url(#pb2aff35a34)" style="fill: none; stroke: #808080; stroke-linecap: round"/>
    <path d="M 511.552013 843.637022 
L 507.208893 844.70347 
L 508.961607 840.589105 
z
" clip-path="url(#pb2aff35a34)" style="fill: #808080; stroke: #808080; stroke-linecap: round"/>
   </g>
   <g id="patch_18">
    <path d="M 216.129517 684.857987 
Q 341.246442 766.413718 465.426745 847.358925 
" clip-path="url(#pb2aff35a34)" style="fill: none; stroke: #808080; stroke-linecap: round"/>
    <path d="M 463.167923 843.499168 
L 465.426745 847.358925 
L 460.983646 846.850128 
z
" clip-path="url(#pb2aff35a34)" style="fill: #808080; stroke: #808080; stroke-linecap: round"/>
   </g>
   <g id="text_1">
    <g id="patch_19">
     <path d="M 1079.048652 654.667749 
L 1099.290853 624.030979 
Q 1101.936892 620.026172 1097.932086 617.380133 
L 1091.472249 613.112016 
Q 1087.467442 610.465977 1084.821403 614.470783 
L 1064.579203 645.107554 
Q 1061.933163 649.112361 1065.93797 651.7584 
L 1072.397806 656.026517 
Q 1076.402613 658.672556 1079.048652 654.667749 
z
" clip-path="url(#pb2aff35a34)" style="fill: #ffffff; opacity: 0.8"/>
    </g>
    <g clip-path="url(#pb2aff35a34)">
     <!-- produces -->
     <g transform="translate(1073.655721 651.104554) rotate(-56.546628) scale(0.08 -0.08)">
      <defs>
       <path id="DejaVuSans-70" d="M 1159 525 
L 1159 -1331 
L 581 -1331 
L 581 3500 
L 1159 3500 
L 1159 2969 
Q 1341 3281 1617 3432 
Q 1894 3584 2278 3584 
Q 2916 3584 3314 3078 
Q 3713 2572 3713 1747 
Q 3713 922 3314 415 
Q 2916 -91 2278 -91 
Q 1894 -91 1617 61 
Q 1341 213 1159 525 
z
M 3116 1747 
Q 3116 2381 2855 2742 
Q 2594 3103 2138 3103 
Q 1681 3103 1420 2742 
Q 1159 2381 1159 1747 
Q 1159 1113 1420 752 
Q 1681 391 2138 391 
Q 2594 391 2855 752 
Q 3116 1113 3116 1747 
z
" transform="scale(0.015625)"/>
       <path id="DejaVuSans-72" d="M 2631 2963 
Q 2534 3019 2420 3045 
Q 2306 3072 2169 3072 
Q 1681 3072 1420 2755 
Q 1159 2438 1159 1844 
L 1159 0 
L 581 0 
L 581 3500 
L 1159 3500 
L 1159 2956 
Q 1341 3275 1631 3429 
Q 1922 3584 2338 3584 
Q 2397 3584 2469 3576 
Q 2541 3569 2628 3553 
L 2631 2963 
z
" transform="scale(0.015625)"/>
       <path id="DejaVuSans-6f" d="M 1959 3097 
Q 1497 3097 1228 2736 
Q 959 2375 959 1747 
Q 959 1119 1226 758 
Q 1494 397 1959 397 
Q 2419 397 2687 759 
Q 2956 1122 2956 1747 
Q 2956 2369 2687 2733 
Q 2419 3097 1959 3097 
z
M 1959 3584 
Q 2709 3584 3137 3096 
Q 3566 2609 3566 1747 
Q 3566 888 3137 398 
Q 2709 -91 1959 -91 
Q 1206 -91 779 398 
Q 353 888 353 1747 
Q 353 2609 779 3096 
Q 1206 3584 1959 3584 
z
" transform="scale(0.015625)"/>
       <path id="DejaVuSans-64" d="M 2906 2969 
L 2906 4863 
L 3481 4863 
L 3481 0 
L 2906 0 
L 2906 525 
Q 2725 213 2448 61 
Q 2172 -91 1784 -91 
Q 1150 -91 751 415 
Q 353 922 353 1747 
Q 353 2572 751 3078 
Q 1150 3584 1784 3584 
Q 2172 3584 2448 3432 
Q 2725 3281 2906 2969 
z
M 947 1747 
Q 947 1113 1208 752 
Q 1469 391 1925 391 
Q 2381 391 2643 752 
Q 2906 1113 2906 1747 
Q 2906 2381 2643 2742 
Q 2381 3103 1925 3103 
Q 1469 3103 1208 2742 
Q 947 2381 947 1747 
z
" transform="scale(0.015625)"/>
       <path id="DejaVuSans-75" d="M 544 1381 
L 544 3500 
L 1119 3500 
L 1119 1403 
Q 1119 906 1312 657 
Q 1506 409 1894 409 
Q 2359 409 2629 706 
Q 2900 1003 2900 1516 
L 2900 3500 
L 3475 3500 
L 3475 0 
L 2900 0 
L 2900 538 
Q 2691 219 2414 64 
Q 2138 -91 1772 -91 
Q 1169 -91 856 284 
Q 544 659 544 1381 
z
M 1991 3584 
L 1991 3584 
z
" transform="scale(0.015625)"/>
       <path id="DejaVuSans-63" d="M 3122 3366 
L 3122 2828 
Q 2878 2963 2633 3030 
Q 2388 3097 2138 3097 
Q 1578 3097 1268 2742 
Q 959 2388 959 1747 
Q 959 1106 1268 751 
Q 1578 397 2138 397 
Q 2388 397 2633 464 
Q 2878 531 3122 666 
L 3122 134 
Q 2881 22 2623 -34 
Q 2366 -91 2075 -91 
Q 1284 -91 818 406 
Q 353 903 353 1747 
Q 353 2603 823 3093 
Q 1294 3584 2113 3584 
Q 2378 3584 2631 3529 
Q 2884 3475 3122 3366 
z
" transform="scale(0.015625)"/>
       <path id="DejaVuSans-65" d="M 3597 1894 
L 3597 1613 
L 953 1613 
Q 991 1019 1311 708 
Q 1631 397 2203 397 
Q 2534 397 2845 478 
Q 3156 559 3463 722 
L 3463 178 
Q 3153 47 2828 -22 
Q 2503 -91 2169 -91 
Q 1331 -91 842 396 
Q 353 884 353 1716 
Q 353 2575 817 3079 
Q 1281 3584 2069 3584 
Q 2775 3584 3186 3129 
Q 3597 2675 3597 1894 
z
M 3022 2063 
Q 3016 2534 2758 2815 
Q 2500 3097 2075 3097 
Q 1594 3097 1305 2825 
Q 1016 2553 972 2059 
L 3022 2063 
z
" transform="scale(0.015625)"/>
       <path id="DejaVuSans-73" d="M 2834 3397 
L 2834 2853 
Q 2591 2978 2328 3040 
Q 2066 3103 1784 3103 
Q 1356 3103 1142 2972 
Q 928 2841 928 2578 
Q 928 2378 1081 2264 
Q 1234 2150 1697 2047 
L 1894 2003 
Q 2506 1872 2764 1633 
Q 3022 1394 3022 966 
Q 3022 478 2636 193 
Q 2250 -91 1575 -91 
Q 1294 -91 989 -36 
Q 684 19 347 128 
L 347 722 
Q 666 556 975 473 
Q 1284 391 1588 391 
Q 1994 391 2212 530 
Q 2431 669 2431 922 
Q 2431 1156 2273 1281 
Q 2116 1406 1581 1522 
L 1381 1569 
Q 847 1681 609 1914 
Q 372 2147 372 2553 
Q 372 3047 722 3315 
Q 1072 3584 1716 3584 
Q 2034 3584 2315 3537 
Q 2597 3491 2834 3397 
z
" transform="scale(0.015625)"/>
      </defs>
      <use xlink:href="#DejaVuSans-70"/>
      <use xlink:href="#DejaVuSans-72" transform="translate(63.476562 0)"/>
      <use xlink:href="#DejaVuSans-6f" transform="translate(102.339844 0)"/>
      <use xlink:href="#DejaVuSans-64" transform="translate(163.521484 0)"/>
      <use xlink:href="#DejaVuSans-75" transform="translate(226.998047 0)"/>
      <use xlink:href="#DejaVuSans-63" transform="translate(290.376953 0)"/>
      <use xlink:href="#DejaVuSans-65" transform="translate(345.357422 0)"/>
      <use xlink:href="#DejaVuSans-73" transform="translate(406.880859 0)"/>
     </g>
    </g>
   </g>
   <g id="text_2">
    <g id="patch_20">
     <path d="M 834.761762 572.248034 
L 888.442888 559.560943 
Q 893.114197 558.456917 892.010172 553.785608 
L 890.17818 546.034155 
Q 889.074154 541.362846 884.402845 542.466871 
L 830.721719 555.153963 
Q 826.05041 556.257988 827.154435 560.929297 
L 828.986427 568.68075 
Q 830.090453 573.352059 834.761762 572.248034 
z
" clip-path="url(#pb2aff35a34)" style="fill: #ffffff; opacity: 0.8"/>
    </g>
    <g clip-path="url(#pb2aff35a34)">
     <!-- extracts_from -->
     <g transform="translate(833.223889 565.741047) rotate(-13.297383) scale(0.08 -0.08)">
      <defs>
       <path id="DejaVuSans-78" d="M 3513 3500 
L 2247 1797 
L 3578 0 
L 2900 0 
L 1881 1375 
L 863 0 
L 184 0 
L 1544 1831 
L 300 3500 
L 978 3500 
L 1906 2253 
L 2834 3500 
L 3513 3500 
z
" transform="scale(0.015625)"/>
       <path id="DejaVuSans-74" d="M 1172 4494 
L 1172 3500 
L 2356 3500 
L 2356 3053 
L 1172 3053 
L 1172 1153 
Q 1172 725 1289 603 
Q 1406 481 1766 481 
L 2356 481 
L 2356 0 
L 1766 0 
Q 1100 0 847 248 
Q 594 497 594 1153 
L 594 3053 
L 172 3053 
L 172 3500 
L 594 3500 
L 594 4494 
L 1172 4494 
z
" transform="scale(0.015625)"/>
       <path id="DejaVuSans-61" d="M 2194 1759 
Q 1497 1759 1228 1600 
Q 959 1441 959 1056 
Q 959 750 1161 570 
Q 1363 391 1709 391 
Q 2188 391 2477 730 
Q 2766 1069 2766 1631 
L 2766 1759 
L 2194 1759 
z
M 3341 1997 
L 3341 0 
L 2766 0 
L 2766 531 
Q 2569 213 2275 61 
Q 1981 -91 1556 -91 
Q 1019 -91 701 211 
Q 384 513 384 1019 
Q 384 1609 779 1909 
Q 1175 2209 1959 2209 
L 2766 2209 
L 2766 2266 
Q 2766 2663 2505 2880 
Q 2244 3097 1772 3097 
Q 1472 3097 1187 3025 
Q 903 2953 641 2809 
L 641 3341 
Q 956 3463 1253 3523 
Q 1550 3584 1831 3584 
Q 2591 3584 2966 3190 
Q 3341 2797 3341 1997 
z
" transform="scale(0.015625)"/>
       <path id="DejaVuSans-5f" d="M 3263 -1063 
L 3263 -1509 
L -63 -1509 
L -63 -1063 
L 3263 -1063 
z
" transform="scale(0.015625)"/>
       <path id="DejaVuSans-66" d="M 2375 4863 
L 2375 4384 
L 1825 4384 
Q 1516 4384 1395 4259 
Q 1275 4134 1275 3809 
L 1275 3500 
L 2222 3500 
L 2222 3053 
L 1275 3053 
L 1275 0 
L 697 0 
L 697 3053 
L 147 3053 
L 147 3500 
L 697 3500 
L 697 3744 
Q 697 4328 969 4595 
Q 1241 4863 1831 4863 
L 2375 4863 
z
" transform="scale(0.015625)"/>
       <path id="DejaVuSans-6d" d="M 3328 2828 
Q 3544 3216 3844 3400 
Q 4144 3584 4550 3584 
Q 5097 3584 5394 3201 
Q 5691 2819 5691 2113 
L 5691 0 
L 5113 0 
L 5113 2094 
Q 5113 2597 4934 2840 
Q 4756 3084 4391 3084 
Q 3944 3084 3684 2787 
Q 3425 2491 3425 1978 
L 3425 0 
L 2847 0 
L 2847 2094 
Q 2847 2600 2669 2842 
Q 2491 3084 2119 3084 
Q 1678 3084 1418 2786 
Q 1159 2488 1159 1978 
L 1159 0 
L 581 0 
L 581 3500 
L 1159 3500 
L 1159 2956 
Q 1356 3278 1631 3431 
Q 1906 3584 2284 3584 
Q 2666 3584 2933 3390 
Q 3200 3197 3328 2828 
z
" transform="scale(0.015625)"/>
      </defs>
      <use xlink:href="#DejaVuSans-65"/>
      <use xlink:href="#DejaVuSans-78" transform="translate(59.773438 0)"/>
      <use xlink:href="#DejaVuSans-74" transform="translate(118.953125 0)"/>
      <use xlink:href="#DejaVuSans-72" transform="translate(158.162109 0)"/>
      <use xlink:href="#DejaVuSans-61" transform="translate(199.275391 0)"/>
      <use xlink:href="#DejaVuSans-63" transform="translate(260.554688 0)"/>
      <use xlink:href="#DejaVuSans-74" transform="translate(315.535156 0)"/>
      <use xlink:href="#DejaVuSans-73" transform="translate(354.744141 0)"/>
      <use xlink:href="#DejaVuSans-5f" transform="translate(406.84375 0)"/>
      <use xlink:href="#DejaVuSans-66" transform="translate(456.84375 0)"/>
      <use xlink:href="#DejaVuSans-72" transform="translate(492.048828 0)"/>
      <use xlink:href="#DejaVuSans-6f" transform="translate(530.912109 0)"/>
      <use xlink:href="#DejaVuSans-6d" transform="translate(592.09375 0)"/>
     </g>
    </g>
   </g>
   <g id="text_3">
    <g id="patch_21">
     <path d="M 806.943441 159.853914 
L 806.943441 195.875164 
Q 806.943441 200.675164 811.743441 200.675164 
L 819.485941 200.675164 
Q 824.285941 200.675164 824.285941 195.875164 
L 824.285941 159.853914 
Q 824.285941 155.053914 819.485941 155.053914 
L 811.743441 155.053914 
Q 806.943441 155.053914 806.943441 159.853914 
z
" clip-path="url(#pb2aff35a34)" style="fill: #ffffff; opacity: 0.8"/>
    </g>
    <g clip-path="url(#pb2aff35a34)">
     <!-- oversees -->
     <g transform="translate(813.407191 159.853914) rotate(-270) scale(0.08 -0.08)">
      <defs>
       <path id="DejaVuSans-76" d="M 191 3500 
L 800 3500 
L 1894 563 
L 2988 3500 
L 3597 3500 
L 2284 0 
L 1503 0 
L 191 3500 
z
" transform="scale(0.015625)"/>
      </defs>
      <use xlink:href="#DejaVuSans-6f"/>
      <use xlink:href="#DejaVuSans-76" transform="translate(61.181641 0)"/>
      <use xlink:href="#DejaVuSans-65" transform="translate(120.361328 0)"/>
      <use xlink:href="#DejaVuSans-72" transform="translate(181.884766 0)"/>
      <use xlink:href="#DejaVuSans-73" transform="translate(222.998047 0)"/>
      <use xlink:href="#DejaVuSans-65" transform="translate(275.097656 0)"/>
      <use xlink:href="#DejaVuSans-65" transform="translate(336.621094 0)"/>
      <use xlink:href="#DejaVuSans-73" transform="translate(398.144531 0)"/>
     </g>
    </g>
   </g>
   <g id="text_4">
    <g id="patch_22">
     <path d="M 806.943441 350.222762 
L 806.943441 386.332762 
Q 806.943441 391.132762 811.743441 391.132762 
L 819.485941 391.132762 
Q 824.285941 391.132762 824.285941 386.332762 
L 824.285941 350.222762 
Q 824.285941 345.422762 819.485941 345.422762 
L 811.743441 345.422762 
Q 806.943441 345.422762 806.943441 350.222762 
z
" clip-path="url(#pb2aff35a34)" style="fill: #ffffff; opacity: 0.8"/>
    </g>
    <g clip-path="url(#pb2aff35a34)">
     <!-- performs -->
     <g transform="translate(813.407191 350.222762) rotate(-270) scale(0.08 -0.08)">
      <use xlink:href="#DejaVuSans-70"/>
      <use xlink:href="#DejaVuSans-65" transform="translate(63.476562 0)"/>
      <use xlink:href="#DejaVuSans-72" transform="translate(125 0)"/>
      <use xlink:href="#DejaVuSans-66" transform="translate(166.113281 0)"/>
      <use xlink:href="#DejaVuSans-6f" transform="translate(201.318359 0)"/>
      <use xlink:href="#DejaVuSans-72" transform="translate(262.5 0)"/>
      <use xlink:href="#DejaVuSans-6d" transform="translate(301.863281 0)"/>
      <use xlink:href="#DejaVuSans-73" transform="translate(399.275391 0)"/>
     </g>
    </g>
   </g>
   <g id="text_5">
    <g id="patch_23">
     <path d="M 186.404061 533.07161 
L 186.404061 584.31036 
Q 186.404061 589.11036 191.204061 589.11036 
L 199.169061 589.11036 
Q 203.969061 589.11036 203.969061 584.31036 
L 203.969061 533.07161 
Q 203.969061 528.27161 199.169061 528.27161 
L 191.204061 528.27161 
Q 186.404061 528.27161 186.404061 533.07161 
z
" clip-path="url(#pb2aff35a34)" style="fill: #ffffff; opacity: 0.8"/>
    </g>
    <g clip-path="url(#pb2aff35a34)">
     <!-- is_located_in -->
     <g transform="translate(193.090311 533.07161) rotate(-270) scale(0.08 -0.08)">
      <defs>
       <path id="DejaVuSans-69" d="M 603 3500 
L 1178 3500 
L 1178 0 
L 603 0 
L 603 3500 
z
M 603 4863 
L 1178 4863 
L 1178 4134 
L 603 4134 
L 603 4863 
z
" transform="scale(0.015625)"/>
       <path id="DejaVuSans-6c" d="M 603 4863 
L 1178 4863 
L 1178 0 
L 603 0 
L 603 4863 
z
" transform="scale(0.015625)"/>
       <path id="DejaVuSans-6e" d="M 3513 2113 
L 3513 0 
L 2938 0 
L 2938 2094 
Q 2938 2591 2744 2837 
Q 2550 3084 2163 3084 
Q 1697 3084 1428 2787 
Q 1159 2491 1159 1978 
L 1159 0 
L 581 0 
L 581 3500 
L 1159 3500 
L 1159 2956 
Q 1366 3272 1645 3428 
Q 1925 3584 2291 3584 
Q 2894 3584 3203 3211 
Q 3513 2838 3513 2113 
z
" transform="scale(0.015625)"/>
      </defs>
      <use xlink:href="#DejaVuSans-69"/>
      <use xlink:href="#DejaVuSans-73" transform="translate(27.783203 0)"/>
      <use xlink:href="#DejaVuSans-5f" transform="translate(79.882812 0)"/>
      <use xlink:href="#DejaVuSans-6c" transform="translate(129.882812 0)"/>
      <use xlink:href="#DejaVuSans-6f" transform="translate(157.666016 0)"/>
      <use xlink:href="#DejaVuSans-63" transform="translate(218.847656 0)"/>
      <use xlink:href="#DejaVuSans-61" transform="translate(273.828125 0)"/>
      <use xlink:href="#DejaVuSans-74" transform="translate(335.107422 0)"/>
      <use xlink:href="#DejaVuSans-65" transform="translate(374.316406 0)"/>
      <use xlink:href="#DejaVuSans-64" transform="translate(435.839844 0)"/>
      <use xlink:href="#DejaVuSans-5f" transform="translate(499.316406 0)"/>
      <use xlink:href="#DejaVuSans-69" transform="translate(549.316406 0)"/>
      <use xlink:href="#DejaVuSans-6e" transform="translate(577.099609 0)"/>
     </g>
    </g>
   </g>
   <g id="text_6">
    <g id="patch_24">
     <path d="M 166.572181 653.372174 
L 173.833718 619.943015 
Q 174.852621 615.252404 170.162009 614.233501 
L 162.595954 612.58999 
Q 157.905343 611.571088 156.88644 616.2617 
L 149.624903 649.690858 
Q 148.606001 654.38147 153.296612 655.400372 
L 160.862667 657.043883 
Q 165.553278 658.062786 166.572181 653.372174 
z
" clip-path="url(#pb2aff35a34)" style="fill: #ffffff; opacity: 0.8"/>
    </g>
    <g clip-path="url(#pb2aff35a34)">
     <!-- provides -->
     <g transform="translate(160.255735 652.000105) rotate(-77.744508) scale(0.08 -0.08)">
      <use xlink:href="#DejaVuSans-70"/>
      <use xlink:href="#DejaVuSans-72" transform="translate(63.476562 0)"/>
      <use xlink:href="#DejaVuSans-6f" transform="translate(102.339844 0)"/>
      <use xlink:href="#DejaVuSans-76" transform="translate(163.521484 0)"/>
      <use xlink:href="#DejaVuSans-69" transform="translate(222.701172 0)"/>
      <use xlink:href="#DejaVuSans-64" transform="translate(250.484375 0)"/>
      <use xlink:href="#DejaVuSans-65" transform="translate(313.960938 0)"/>
      <use xlink:href="#DejaVuSans-73" transform="translate(375.484375 0)"/>
     </g>
    </g>
   </g>
   <g id="text_7">
    <g id="patch_25">
     <path d="M 165.067811 394.369277 
L 225.305311 394.369277 
Q 230.105311 394.369277 230.105311 389.569277 
L 230.105311 381.604277 
Q 230.105311 376.804277 225.305311 376.804277 
L 165.067811 376.804277 
Q 160.267811 376.804277 160.267811 381.604277 
L 160.267811 389.569277 
Q 160.267811 394.369277 165.067811 394.369277 
z
" clip-path="url(#pb2aff35a34)" style="fill: #ffffff; opacity: 0.8"/>
    </g>
    <g clip-path="url(#pb2aff35a34)">
     <!-- compares_with -->
     <g transform="translate(165.067811 387.683027) scale(0.08 -0.08)">
      <defs>
       <path id="DejaVuSans-77" d="M 269 3500 
L 844 3500 
L 1563 769 
L 2278 3500 
L 2956 3500 
L 3675 769 
L 4391 3500 
L 4966 3500 
L 4050 0 
L 3372 0 
L 2619 2869 
L 1863 0 
L 1184 0 
L 269 3500 
z
" transform="scale(0.015625)"/>
       <path id="DejaVuSans-68" d="M 3513 2113 
L 3513 0 
L 2938 0 
L 2938 2094 
Q 2938 2591 2744 2837 
Q 2550 3084 2163 3084 
Q 1697 3084 1428 2787 
Q 1159 2491 1159 1978 
L 1159 0 
L 581 0 
L 581 4863 
L 1159 4863 
L 1159 2956 
Q 1366 3272 1645 3428 
Q 1925 3584 2291 3584 
Q 2894 3584 3203 3211 
Q 3513 2838 3513 2113 
z
" transform="scale(0.015625)"/>
      </defs>
      <use xlink:href="#DejaVuSans-63"/>
      <use xlink:href="#DejaVuSans-6f" transform="translate(54.980469 0)"/>
      <use xlink:href="#DejaVuSans-6d" transform="translate(116.162109 0)"/>
      <use xlink:href="#DejaVuSans-70" transform="translate(213.574219 0)"/>
      <use xlink:href="#DejaVuSans-61" transform="translate(277.050781 0)"/>
      <use xlink:href="#DejaVuSans-72" transform="translate(338.330078 0)"/>
      <use xlink:href="#DejaVuSans-65" transform="translate(377.193359 0)"/>
      <use xlink:href="#DejaVuSans-73" transform="translate(438.716797 0)"/>
      <use xlink:href="#DejaVuSans-5f" transform="translate(490.816406 0)"/>
      <use xlink:href="#DejaVuSans-77" transform="translate(540.816406 0)"/>
      <use xlink:href="#DejaVuSans-69" transform="translate(622.603516 0)"/>
      <use xlink:href="#DejaVuSans-74" transform="translate(650.386719 0)"/>
      <use xlink:href="#DejaVuSans-68" transform="translate(689.595703 0)"/>
     </g>
    </g>
   </g>
   <g id="text_8">
    <g id="patch_26">
     <path d="M 246.836792 547.315491 
L 279.407139 581.264307 
Q 282.730202 584.728012 286.193907 581.404949 
L 291.941492 575.890741 
Q 295.405197 572.567678 292.082134 569.103973 
L 259.511787 535.155156 
Q 256.188724 531.691451 252.725019 535.014515 
L 246.977434 540.528723 
Q 243.513729 543.851786 246.836792 547.315491 
z
" clip-path="url(#pb2aff35a34)" style="fill: #ffffff; opacity: 0.8"/>
    </g>
    <g clip-path="url(#pb2aff35a34)">
     <!-- learns_from -->
     <g transform="translate(251.661625 542.686567) rotate(-313.812835) scale(0.08 -0.08)">
      <use xlink:href="#DejaVuSans-6c"/>
      <use xlink:href="#DejaVuSans-65" transform="translate(27.783203 0)"/>
      <use xlink:href="#DejaVuSans-61" transform="translate(89.306641 0)"/>
      <use xlink:href="#DejaVuSans-72" transform="translate(150.585938 0)"/>
      <use xlink:href="#DejaVuSans-6e" transform="translate(189.949219 0)"/>
      <use xlink:href="#DejaVuSans-73" transform="translate(253.328125 0)"/>
      <use xlink:href="#DejaVuSans-5f" transform="translate(305.427734 0)"/>
      <use xlink:href="#DejaVuSans-66" transform="translate(355.427734 0)"/>
      <use xlink:href="#DejaVuSans-72" transform="translate(390.632812 0)"/>
      <use xlink:href="#DejaVuSans-6f" transform="translate(429.496094 0)"/>
      <use xlink:href="#DejaVuSans-6d" transform="translate(490.677734 0)"/>
     </g>
    </g>
   </g>
   <g id="text_9">
    <g id="patch_27">
     <path d="M 103.79156 926.415556 
L 103.79156 952.619306 
Q 103.79156 957.419306 108.59156 957.419306 
L 116.33406 957.419306 
Q 121.13406 957.419306 121.13406 952.619306 
L 121.13406 926.415556 
Q 121.13406 921.615556 116.33406 921.615556 
L 108.59156 921.615556 
Q 103.79156 921.615556 103.79156 926.415556 
z
" clip-path="url(#pb2aff35a34)" style="fill: #ffffff; opacity: 0.8"/>
    </g>
    <g clip-path="url(#pb2aff35a34)">
     <!-- serves -->
     <g transform="translate(110.25531 926.415556) rotate(-270) scale(0.08 -0.08)">
      <use xlink:href="#DejaVuSans-73"/>
      <use xlink:href="#DejaVuSans-65" transform="translate(52.099609 0)"/>
      <use xlink:href="#DejaVuSans-72" transform="translate(113.623047 0)"/>
      <use xlink:href="#DejaVuSans-76" transform="translate(154.736328 0)"/>
      <use xlink:href="#DejaVuSans-65" transform="translate(213.916016 0)"/>
      <use xlink:href="#DejaVuSans-73" transform="translate(275.439453 0)"/>
     </g>
    </g>
   </g>
   <g id="text_10">
    <g id="patch_28">
     <path d="M 619.163082 575.703001 
L 665.611533 555.498616 
Q 670.013143 553.583981 668.098508 549.182371 
L 665.010162 542.082482 
Q 663.095527 537.680872 658.693917 539.595507 
L 612.245466 559.799892 
Q 607.843856 561.714527 609.758491 566.116137 
L 612.846837 573.216026 
Q 614.761472 577.617636 619.163082 575.703001 
z
" clip-path="url(#pb2aff35a34)" style="fill: #ffffff; opacity: 0.8"/>
    </g>
    <g clip-path="url(#pb2aff35a34)">
     <!-- hasOutcome -->
     <g transform="translate(616.584807 569.775729) rotate(-23.508324) scale(0.08 -0.08)">
      <defs>
       <path id="DejaVuSans-4f" d="M 2522 4238 
Q 1834 4238 1429 3725 
Q 1025 3213 1025 2328 
Q 1025 1447 1429 934 
Q 1834 422 2522 422 
Q 3209 422 3611 934 
Q 4013 1447 4013 2328 
Q 4013 3213 3611 3725 
Q 3209 4238 2522 4238 
z
M 2522 4750 
Q 3503 4750 4090 4092 
Q 4678 3434 4678 2328 
Q 4678 1225 4090 567 
Q 3503 -91 2522 -91 
Q 1538 -91 948 565 
Q 359 1222 359 2328 
Q 359 3434 948 4092 
Q 1538 4750 2522 4750 
z
" transform="scale(0.015625)"/>
      </defs>
      <use xlink:href="#DejaVuSans-68"/>
      <use xlink:href="#DejaVuSans-61" transform="translate(63.378906 0)"/>
      <use xlink:href="#DejaVuSans-73" transform="translate(124.658203 0)"/>
      <use xlink:href="#DejaVuSans-4f" transform="translate(176.757812 0)"/>
      <use xlink:href="#DejaVuSans-75" transform="translate(255.46875 0)"/>
      <use xlink:href="#DejaVuSans-74" transform="translate(318.847656 0)"/>
      <use xlink:href="#DejaVuSans-63" transform="translate(358.056641 0)"/>
      <use xlink:href="#DejaVuSans-6f" transform="translate(413.037109 0)"/>
      <use xlink:href="#DejaVuSans-6d" transform="translate(474.21875 0)"/>
      <use xlink:href="#DejaVuSans-65" transform="translate(571.630859 0)"/>
     </g>
    </g>
   </g>
   <g id="text_11">
    <g id="patch_29">
     <path d="M 888.919891 555.002845 
L 911.491252 574.337065 
Q 915.136694 577.459685 918.259313 573.814243 
L 923.296164 567.934069 
Q 926.418784 564.288627 922.773342 561.166008 
L 900.201981 541.831787 
Q 896.556539 538.709168 893.433919 542.35461 
L 888.397069 548.234783 
Q 885.274449 551.880225 888.919891 555.002845 
z
" clip-path="url(#pb2aff35a34)" style="fill: #ffffff; opacity: 0.8"/>
    </g>
    <g clip-path="url(#pb2aff35a34)">
     <!-- records -->
     <g transform="translate(893.124856 550.09384) rotate(-319.417237) scale(0.08 -0.08)">
      <use xlink:href="#DejaVuSans-72"/>
      <use xlink:href="#DejaVuSans-65" transform="translate(38.863281 0)"/>
      <use xlink:href="#DejaVuSans-63" transform="translate(100.386719 0)"/>
      <use xlink:href="#DejaVuSans-6f" transform="translate(155.367188 0)"/>
      <use xlink:href="#DejaVuSans-72" transform="translate(216.548828 0)"/>
      <use xlink:href="#DejaVuSans-64" transform="translate(255.912109 0)"/>
      <use xlink:href="#DejaVuSans-73" transform="translate(319.388672 0)"/>
     </g>
    </g>
   </g>
   <g id="text_12">
    <g id="patch_30">
     <path d="M 263.419652 763.988971 
L 287.290426 746.863052 
Q 291.190514 744.064961 288.392423 740.164873 
L 283.879044 733.873949 
Q 281.080953 729.973861 277.180865 732.771952 
L 253.310092 749.897872 
Q 249.410003 752.695963 252.208094 756.596051 
L 256.721473 762.886974 
Q 259.519564 766.787062 263.419652 763.988971 
z
" clip-path="url(#pb2aff35a34)" style="fill: #ffffff; opacity: 0.8"/>
    </g>
    <g clip-path="url(#pb2aff35a34)">
     <!-- stateOf -->
     <g transform="translate(259.651702 758.737056) rotate(-35.657284) scale(0.08 -0.08)">
      <use xlink:href="#DejaVuSans-73"/>
      <use xlink:href="#DejaVuSans-74" transform="translate(52.099609 0)"/>
      <use xlink:href="#DejaVuSans-61" transform="translate(91.308594 0)"/>
      <use xlink:href="#DejaVuSans-74" transform="translate(152.587891 0)"/>
      <use xlink:href="#DejaVuSans-65" transform="translate(191.796875 0)"/>
      <use xlink:href="#DejaVuSans-4f" transform="translate(253.320312 0)"/>
      <use xlink:href="#DejaVuSans-66" transform="translate(332.03125 0)"/>
     </g>
    </g>
   </g>
   <g id="text_13">
    <g id="patch_31">
     <path d="M 872.759146 956.444513 
L 890.632384 932.210033 
Q 893.481419 928.347003 889.618388 925.497969 
L 883.38724 920.902417 
Q 879.524209 918.053383 876.675175 921.916413 
L 858.801937 946.150893 
Q 855.952903 950.013923 859.815933 952.862958 
L 866.047082 957.458509 
Q 869.910112 960.307544 872.759146 956.444513 
z
" clip-path="url(#pb2aff35a34)" style="fill: #ffffff; opacity: 0.8"/>
    </g>
    <g clip-path="url(#pb2aff35a34)">
     <!-- informs -->
     <g transform="translate(867.557133 952.607962) rotate(-53.590751) scale(0.08 -0.08)">
      <use xlink:href="#DejaVuSans-69"/>
      <use xlink:href="#DejaVuSans-6e" transform="translate(27.783203 0)"/>
      <use xlink:href="#DejaVuSans-66" transform="translate(91.162109 0)"/>
      <use xlink:href="#DejaVuSans-6f" transform="translate(126.367188 0)"/>
      <use xlink:href="#DejaVuSans-72" transform="translate(187.548828 0)"/>
      <use xlink:href="#DejaVuSans-6d" transform="translate(226.912109 0)"/>
      <use xlink:href="#DejaVuSans-73" transform="translate(324.324219 0)"/>
     </g>
    </g>
   </g>
   <g id="text_14">
    <g id="patch_32">
     <path d="M 788.283783 749.078461 
L 802.156938 761.054806 
Q 805.790338 764.191428 808.926961 760.558028 
L 813.986399 754.697278 
Q 817.123021 751.063878 813.489621 747.927255 
L 799.616466 735.95091 
Q 795.983066 732.814287 792.846443 736.447688 
L 787.787005 742.308438 
Q 784.650383 745.941838 788.283783 749.078461 
z
" clip-path="url(#pb2aff35a34)" style="fill: #ffffff; opacity: 0.8"/>
    </g>
    <g clip-path="url(#pb2aff35a34)">
     <!-- uses -->
     <g transform="translate(792.507605 744.185671) rotate(-319.196785) scale(0.08 -0.08)">
      <use xlink:href="#DejaVuSans-75"/>
      <use xlink:href="#DejaVuSans-73" transform="translate(63.378906 0)"/>
      <use xlink:href="#DejaVuSans-65" transform="translate(115.478516 0)"/>
      <use xlink:href="#DejaVuSans-73" transform="translate(177.001953 0)"/>
     </g>
    </g>
   </g>
   <g id="text_15">
    <g id="patch_33">
     <path d="M 731.639167 809.739853 
L 738.911098 844.296762 
Q 739.899531 848.993889 744.596658 848.005456 
L 752.173221 846.411094 
Q 756.870348 845.422661 755.881915 840.725534 
L 748.609985 806.168625 
Q 747.621552 801.471498 742.924425 802.459931 
L 735.347862 804.054293 
Q 730.650735 805.042726 731.639167 809.739853 
z
" clip-path="url(#pb2aff35a34)" style="fill: #ffffff; opacity: 0.8"/>
    </g>
    <g clip-path="url(#pb2aff35a34)">
     <!-- operates -->
     <g transform="translate(737.964387 808.408815) rotate(-281.883564) scale(0.08 -0.08)">
      <use xlink:href="#DejaVuSans-6f"/>
      <use xlink:href="#DejaVuSans-70" transform="translate(61.181641 0)"/>
      <use xlink:href="#DejaVuSans-65" transform="translate(124.658203 0)"/>
      <use xlink:href="#DejaVuSans-72" transform="translate(186.181641 0)"/>
      <use xlink:href="#DejaVuSans-61" transform="translate(227.294922 0)"/>
      <use xlink:href="#DejaVuSans-74" transform="translate(288.574219 0)"/>
      <use xlink:href="#DejaVuSans-65" transform="translate(327.783203 0)"/>
      <use xlink:href="#DejaVuSans-73" transform="translate(389.306641 0)"/>
     </g>
    </g>
   </g>
   <g id="text_16">
    <g id="patch_34">
     <path d="M 608.340862 770.27792 
L 643.853853 740.095641 
Q 647.511353 736.987154 644.402866 733.329654 
L 639.24472 727.26049 
Q 636.136232 723.60299 632.478732 726.711477 
L 596.965741 756.893756 
Q 593.308241 760.002244 596.416728 763.659744 
L 601.574874 769.728908 
Q 604.683362 773.386408 608.340862 770.27792 
z
" clip-path="url(#pb2aff35a34)" style="fill: #ffffff; opacity: 0.8"/>
    </g>
    <g clip-path="url(#pb2aff35a34)">
     <!-- operates_in -->
     <g transform="translate(604.010836 765.183137) rotate(-40.361011) scale(0.08 -0.08)">
      <use xlink:href="#DejaVuSans-6f"/>
      <use xlink:href="#DejaVuSans-70" transform="translate(61.181641 0)"/>
      <use xlink:href="#DejaVuSans-65" transform="translate(124.658203 0)"/>
      <use xlink:href="#DejaVuSans-72" transform="translate(186.181641 0)"/>
      <use xlink:href="#DejaVuSans-61" transform="translate(227.294922 0)"/>
      <use xlink:href="#DejaVuSans-74" transform="translate(288.574219 0)"/>
      <use xlink:href="#DejaVuSans-65" transform="translate(327.783203 0)"/>
      <use xlink:href="#DejaVuSans-73" transform="translate(389.306641 0)"/>
      <use xlink:href="#DejaVuSans-5f" transform="translate(441.40625 0)"/>
      <use xlink:href="#DejaVuSans-69" transform="translate(491.40625 0)"/>
      <use xlink:href="#DejaVuSans-6e" transform="translate(519.189453 0)"/>
     </g>
    </g>
   </g>
   <g id="text_17">
    <g id="patch_35">
     <path d="M 292.558279 745.160577 
L 324.817554 766.188338 
Q 328.838707 768.80947 331.459839 764.788318 
L 335.80928 758.115718 
Q 338.430413 754.094566 334.40926 751.473434 
L 302.149985 730.445673 
Q 298.128833 727.824541 295.507701 731.845693 
L 291.158259 738.518292 
Q 288.537127 742.539445 292.558279 745.160577 
z
" clip-path="url(#pb2aff35a34)" style="fill: #ffffff; opacity: 0.8"/>
    </g>
    <g clip-path="url(#pb2aff35a34)">
     <!-- is_part_of -->
     <g transform="translate(296.209435 739.559237) rotate(-326.902239) scale(0.08 -0.08)">
      <use xlink:href="#DejaVuSans-69"/>
      <use xlink:href="#DejaVuSans-73" transform="translate(27.783203 0)"/>
      <use xlink:href="#DejaVuSans-5f" transform="translate(79.882812 0)"/>
      <use xlink:href="#DejaVuSans-70" transform="translate(129.882812 0)"/>
      <use xlink:href="#DejaVuSans-61" transform="translate(193.359375 0)"/>
      <use xlink:href="#DejaVuSans-72" transform="translate(254.638672 0)"/>
      <use xlink:href="#DejaVuSans-74" transform="translate(295.751953 0)"/>
      <use xlink:href="#DejaVuSans-5f" transform="translate(334.960938 0)"/>
      <use xlink:href="#DejaVuSans-6f" transform="translate(384.960938 0)"/>
      <use xlink:href="#DejaVuSans-66" transform="translate(446.142578 0)"/>
     </g>
    </g>
   </g>
   <g id="PathCollection_1">
    <defs>
     <path id="md49bee23dc" d="M 0 25 
C 6.630078 25 12.989497 22.365842 17.67767 17.67767 
C 22.365842 12.989497 25 6.630078 25 0 
C 25 -6.630078 22.365842 -12.989497 17.67767 -17.67767 
C 12.989497 -22.365842 6.630078 -25 0 -25 
C -6.630078 -25 -12.989497 -22.365842 -17.67767 -17.67767 
C -22.365842 -12.989497 -25 -6.630078 -25 0 
C -25 6.630078 -22.365842 12.989497 -17.67767 17.67767 
C -12.989497 22.365842 -6.630078 25 0 25 
z
" style="stroke: #add8e6"/>
    </defs>
    <g clip-path="url(#pb2aff35a34)">
     <use xlink:href="#md49bee23dc" x="1183.53719" y="480.793388" style="fill: #add8e6; stroke: #add8e6"/>
     <use xlink:href="#md49bee23dc" x="815.614691" y="99.966942" style="fill: #add8e6; stroke: #add8e6"/>
     <use xlink:href="#md49bee23dc" x="815.614691" y="290.380165" style="fill: #add8e6; stroke: #add8e6"/>
     <use xlink:href="#md49bee23dc" x="195.186561" y="480.793388" style="fill: #add8e6; stroke: #add8e6"/>
     <use xlink:href="#md49bee23dc" x="112.46281" y="861.619835" style="fill: #add8e6; stroke: #add8e6"/>
     <use xlink:href="#md49bee23dc" x="112.46281" y="1052.033058" style="fill: #add8e6; stroke: #add8e6"/>
     <use xlink:href="#md49bee23dc" x="815.614691" y="480.793388" style="fill: #add8e6; stroke: #add8e6"/>
     <use xlink:href="#md49bee23dc" x="1037.90892" y="671.206612" style="fill: #add8e6; stroke: #add8e6"/>
     <use xlink:href="#md49bee23dc" x="377.868177" y="671.206612" style="fill: #add8e6; stroke: #add8e6"/>
     <use xlink:href="#md49bee23dc" x="931.919115" y="861.619835" style="fill: #add8e6; stroke: #add8e6"/>
     <use xlink:href="#md49bee23dc" x="711.348297" y="671.206612" style="fill: #add8e6; stroke: #add8e6"/>
     <use xlink:href="#md49bee23dc" x="791.486931" y="1052.033058" style="fill: #add8e6; stroke: #add8e6"/>
     <use xlink:href="#md49bee23dc" x="195.186561" y="671.206612" style="fill: #add8e6; stroke: #add8e6"/>
     <use xlink:href="#md49bee23dc" x="487.304806" y="861.619835" style="fill: #add8e6; stroke: #add8e6"/>
    </g>
   </g>
   <g id="text_18">
    <g clip-path="url(#pb2aff35a34)">
     <!-- Department for Education (DfE) -->
     <g transform="translate(735.063285 102.45038) scale(0.09 -0.09)">
      <defs>
       <path id="DejaVuSans-Bold-44" d="M 1791 3756 
L 1791 909 
L 2222 909 
Q 2959 909 3348 1275 
Q 3738 1641 3738 2338 
Q 3738 3031 3350 3393 
Q 2963 3756 2222 3756 
L 1791 3756 
z
M 588 4666 
L 1856 4666 
Q 2919 4666 3439 4514 
Q 3959 4363 4331 4000 
Q 4659 3684 4818 3271 
Q 4978 2859 4978 2338 
Q 4978 1809 4818 1395 
Q 4659 981 4331 666 
Q 3956 303 3431 151 
Q 2906 0 1856 0 
L 588 0 
L 588 4666 
z
" transform="scale(0.015625)"/>
       <path id="DejaVuSans-Bold-65" d="M 4031 1759 
L 4031 1441 
L 1416 1441 
Q 1456 1047 1700 850 
Q 1944 653 2381 653 
Q 2734 653 3104 758 
Q 3475 863 3866 1075 
L 3866 213 
Q 3469 63 3072 -14 
Q 2675 -91 2278 -91 
Q 1328 -91 801 392 
Q 275 875 275 1747 
Q 275 2603 792 3093 
Q 1309 3584 2216 3584 
Q 3041 3584 3536 3087 
Q 4031 2591 4031 1759 
z
M 2881 2131 
Q 2881 2450 2695 2645 
Q 2509 2841 2209 2841 
Q 1884 2841 1681 2658 
Q 1478 2475 1428 2131 
L 2881 2131 
z
" transform="scale(0.015625)"/>
       <path id="DejaVuSans-Bold-70" d="M 1656 506 
L 1656 -1331 
L 538 -1331 
L 538 3500 
L 1656 3500 
L 1656 2988 
Q 1888 3294 2169 3439 
Q 2450 3584 2816 3584 
Q 3463 3584 3878 3070 
Q 4294 2556 4294 1747 
Q 4294 938 3878 423 
Q 3463 -91 2816 -91 
Q 2450 -91 2169 54 
Q 1888 200 1656 506 
z
M 2400 2772 
Q 2041 2772 1848 2508 
Q 1656 2244 1656 1747 
Q 1656 1250 1848 986 
Q 2041 722 2400 722 
Q 2759 722 2948 984 
Q 3138 1247 3138 1747 
Q 3138 2247 2948 2509 
Q 2759 2772 2400 2772 
z
" transform="scale(0.015625)"/>
       <path id="DejaVuSans-Bold-61" d="M 2106 1575 
Q 1756 1575 1579 1456 
Q 1403 1338 1403 1106 
Q 1403 894 1545 773 
Q 1688 653 1941 653 
Q 2256 653 2472 879 
Q 2688 1106 2688 1447 
L 2688 1575 
L 2106 1575 
z
M 3816 1997 
L 3816 0 
L 2688 0 
L 2688 519 
Q 2463 200 2181 54 
Q 1900 -91 1497 -91 
Q 953 -91 614 226 
Q 275 544 275 1050 
Q 275 1666 698 1953 
Q 1122 2241 2028 2241 
L 2688 2241 
L 2688 2328 
Q 2688 2594 2478 2717 
Q 2269 2841 1825 2841 
Q 1466 2841 1156 2769 
Q 847 2697 581 2553 
L 581 3406 
Q 941 3494 1303 3539 
Q 1666 3584 2028 3584 
Q 2975 3584 3395 3211 
Q 3816 2838 3816 1997 
z
" transform="scale(0.015625)"/>
       <path id="DejaVuSans-Bold-72" d="M 3138 2547 
Q 2991 2616 2845 2648 
Q 2700 2681 2553 2681 
Q 2122 2681 1889 2404 
Q 1656 2128 1656 1613 
L 1656 0 
L 538 0 
L 538 3500 
L 1656 3500 
L 1656 2925 
Q 1872 3269 2151 3426 
Q 2431 3584 2822 3584 
Q 2878 3584 2943 3579 
Q 3009 3575 3134 3559 
L 3138 2547 
z
" transform="scale(0.015625)"/>
       <path id="DejaVuSans-Bold-74" d="M 1759 4494 
L 1759 3500 
L 2913 3500 
L 2913 2700 
L 1759 2700 
L 1759 1216 
Q 1759 972 1856 886 
Q 1953 800 2241 800 
L 2816 800 
L 2816 0 
L 1856 0 
Q 1194 0 917 276 
Q 641 553 641 1216 
L 641 2700 
L 84 2700 
L 84 3500 
L 641 3500 
L 641 4494 
L 1759 4494 
z
" transform="scale(0.015625)"/>
       <path id="DejaVuSans-Bold-6d" d="M 3781 2919 
Q 3994 3244 4286 3414 
Q 4578 3584 4928 3584 
Q 5531 3584 5847 3212 
Q 6163 2841 6163 2131 
L 6163 0 
L 5038 0 
L 5038 1825 
Q 5041 1866 5042 1909 
Q 5044 1953 5044 2034 
Q 5044 2406 4934 2573 
Q 4825 2741 4581 2741 
Q 4263 2741 4089 2478 
Q 3916 2216 3909 1719 
L 3909 0 
L 2784 0 
L 2784 1825 
Q 2784 2406 2684 2573 
Q 2584 2741 2328 2741 
Q 2006 2741 1831 2477 
Q 1656 2213 1656 1722 
L 1656 0 
L 531 0 
L 531 3500 
L 1656 3500 
L 1656 2988 
Q 1863 3284 2130 3434 
Q 2397 3584 2719 3584 
Q 3081 3584 3359 3409 
Q 3638 3234 3781 2919 
z
" transform="scale(0.015625)"/>
       <path id="DejaVuSans-Bold-6e" d="M 4056 2131 
L 4056 0 
L 2931 0 
L 2931 347 
L 2931 1631 
Q 2931 2084 2911 2256 
Q 2891 2428 2841 2509 
Q 2775 2619 2662 2680 
Q 2550 2741 2406 2741 
Q 2056 2741 1856 2470 
Q 1656 2200 1656 1722 
L 1656 0 
L 538 0 
L 538 3500 
L 1656 3500 
L 1656 2988 
Q 1909 3294 2193 3439 
Q 2478 3584 2822 3584 
Q 3428 3584 3742 3212 
Q 4056 2841 4056 2131 
z
" transform="scale(0.015625)"/>
       <path id="DejaVuSans-Bold-20" transform="scale(0.015625)"/>
       <path id="DejaVuSans-Bold-66" d="M 2841 4863 
L 2841 4128 
L 2222 4128 
Q 1984 4128 1890 4042 
Q 1797 3956 1797 3744 
L 1797 3500 
L 2753 3500 
L 2753 2700 
L 1797 2700 
L 1797 0 
L 678 0 
L 678 2700 
L 122 2700 
L 122 3500 
L 678 3500 
L 678 3744 
Q 678 4316 997 4589 
Q 1316 4863 1984 4863 
L 2841 4863 
z
" transform="scale(0.015625)"/>
       <path id="DejaVuSans-Bold-6f" d="M 2203 2784 
Q 1831 2784 1636 2517 
Q 1441 2250 1441 1747 
Q 1441 1244 1636 976 
Q 1831 709 2203 709 
Q 2569 709 2762 976 
Q 2956 1244 2956 1747 
Q 2956 2250 2762 2517 
Q 2569 2784 2203 2784 
z
M 2203 3584 
Q 3106 3584 3614 3096 
Q 4122 2609 4122 1747 
Q 4122 884 3614 396 
Q 3106 -91 2203 -91 
Q 1297 -91 786 396 
Q 275 884 275 1747 
Q 275 2609 786 3096 
Q 1297 3584 2203 3584 
z
" transform="scale(0.015625)"/>
       <path id="DejaVuSans-Bold-45" d="M 588 4666 
L 3834 4666 
L 3834 3756 
L 1791 3756 
L 1791 2888 
L 3713 2888 
L 3713 1978 
L 1791 1978 
L 1791 909 
L 3903 909 
L 3903 0 
L 588 0 
L 588 4666 
z
" transform="scale(0.015625)"/>
       <path id="DejaVuSans-Bold-64" d="M 2919 2988 
L 2919 4863 
L 4044 4863 
L 4044 0 
L 2919 0 
L 2919 506 
Q 2688 197 2409 53 
Q 2131 -91 1766 -91 
Q 1119 -91 703 423 
Q 288 938 288 1747 
Q 288 2556 703 3070 
Q 1119 3584 1766 3584 
Q 2128 3584 2408 3439 
Q 2688 3294 2919 2988 
z
M 2181 722 
Q 2541 722 2730 984 
Q 2919 1247 2919 1747 
Q 2919 2247 2730 2509 
Q 2541 2772 2181 2772 
Q 1825 2772 1636 2509 
Q 1447 2247 1447 1747 
Q 1447 1247 1636 984 
Q 1825 722 2181 722 
z
" transform="scale(0.015625)"/>
       <path id="DejaVuSans-Bold-75" d="M 500 1363 
L 500 3500 
L 1625 3500 
L 1625 3150 
Q 1625 2866 1622 2436 
Q 1619 2006 1619 1863 
Q 1619 1441 1641 1255 
Q 1663 1069 1716 984 
Q 1784 875 1895 815 
Q 2006 756 2150 756 
Q 2500 756 2700 1025 
Q 2900 1294 2900 1772 
L 2900 3500 
L 4019 3500 
L 4019 0 
L 2900 0 
L 2900 506 
Q 2647 200 2364 54 
Q 2081 -91 1741 -91 
Q 1134 -91 817 281 
Q 500 653 500 1363 
z
" transform="scale(0.015625)"/>
       <path id="DejaVuSans-Bold-63" d="M 3366 3391 
L 3366 2478 
Q 3138 2634 2908 2709 
Q 2678 2784 2431 2784 
Q 1963 2784 1702 2511 
Q 1441 2238 1441 1747 
Q 1441 1256 1702 982 
Q 1963 709 2431 709 
Q 2694 709 2930 787 
Q 3166 866 3366 1019 
L 3366 103 
Q 3103 6 2833 -42 
Q 2563 -91 2291 -91 
Q 1344 -91 809 395 
Q 275 881 275 1747 
Q 275 2613 809 3098 
Q 1344 3584 2291 3584 
Q 2566 3584 2833 3536 
Q 3100 3488 3366 3391 
z
" transform="scale(0.015625)"/>
       <path id="DejaVuSans-Bold-69" d="M 538 3500 
L 1656 3500 
L 1656 0 
L 538 0 
L 538 3500 
z
M 538 4863 
L 1656 4863 
L 1656 3950 
L 538 3950 
L 538 4863 
z
" transform="scale(0.015625)"/>
       <path id="DejaVuSans-Bold-28" d="M 2413 -844 
L 1484 -844 
Q 1006 -72 778 623 
Q 550 1319 550 2003 
Q 550 2688 779 3389 
Q 1009 4091 1484 4856 
L 2413 4856 
Q 2013 4116 1813 3408 
Q 1613 2700 1613 2009 
Q 1613 1319 1811 609 
Q 2009 -100 2413 -844 
z
" transform="scale(0.015625)"/>
       <path id="DejaVuSans-Bold-29" d="M 513 -844 
Q 913 -100 1113 609 
Q 1313 1319 1313 2009 
Q 1313 2700 1113 3408 
Q 913 4116 513 4856 
L 1441 4856 
Q 1916 4091 2145 3389 
Q 2375 2688 2375 2003 
Q 2375 1319 2147 623 
Q 1919 -72 1441 -844 
L 513 -844 
z
" transform="scale(0.015625)"/>
      </defs>
      <use xlink:href="#DejaVuSans-Bold-44"/>
      <use xlink:href="#DejaVuSans-Bold-65" transform="translate(83.007812 0)"/>
      <use xlink:href="#DejaVuSans-Bold-70" transform="translate(150.830078 0)"/>
      <use xlink:href="#DejaVuSans-Bold-61" transform="translate(222.412109 0)"/>
      <use xlink:href="#DejaVuSans-Bold-72" transform="translate(289.892578 0)"/>
      <use xlink:href="#DejaVuSans-Bold-74" transform="translate(339.208984 0)"/>
      <use xlink:href="#DejaVuSans-Bold-6d" transform="translate(387.011719 0)"/>
      <use xlink:href="#DejaVuSans-Bold-65" transform="translate(491.210938 0)"/>
      <use xlink:href="#DejaVuSans-Bold-6e" transform="translate(559.033203 0)"/>
      <use xlink:href="#DejaVuSans-Bold-74" transform="translate(630.224609 0)"/>
      <use xlink:href="#DejaVuSans-Bold-20" transform="translate(678.027344 0)"/>
      <use xlink:href="#DejaVuSans-Bold-66" transform="translate(712.841797 0)"/>
      <use xlink:href="#DejaVuSans-Bold-6f" transform="translate(756.347656 0)"/>
      <use xlink:href="#DejaVuSans-Bold-72" transform="translate(825.048828 0)"/>
      <use xlink:href="#DejaVuSans-Bold-20" transform="translate(874.365234 0)"/>
      <use xlink:href="#DejaVuSans-Bold-45" transform="translate(909.179688 0)"/>
      <use xlink:href="#DejaVuSans-Bold-64" transform="translate(977.490234 0)"/>
      <use xlink:href="#DejaVuSans-Bold-75" transform="translate(1049.072266 0)"/>
      <use xlink:href="#DejaVuSans-Bold-63" transform="translate(1120.263672 0)"/>
      <use xlink:href="#DejaVuSans-Bold-61" transform="translate(1179.541016 0)"/>
      <use xlink:href="#DejaVuSans-Bold-74" transform="translate(1247.021484 0)"/>
      <use xlink:href="#DejaVuSans-Bold-69" transform="translate(1294.824219 0)"/>
      <use xlink:href="#DejaVuSans-Bold-6f" transform="translate(1329.101562 0)"/>
      <use xlink:href="#DejaVuSans-Bold-6e" transform="translate(1397.802734 0)"/>
      <use xlink:href="#DejaVuSans-Bold-20" transform="translate(1468.994141 0)"/>
      <use xlink:href="#DejaVuSans-Bold-28" transform="translate(1503.808594 0)"/>
      <use xlink:href="#DejaVuSans-Bold-44" transform="translate(1549.511719 0)"/>
      <use xlink:href="#DejaVuSans-Bold-66" transform="translate(1632.519531 0)"/>
      <use xlink:href="#DejaVuSans-Bold-45" transform="translate(1676.025391 0)"/>
      <use xlink:href="#DejaVuSans-Bold-29" transform="translate(1744.335938 0)"/>
     </g>
    </g>
   </g>
   <g id="text_19">
    <g clip-path="url(#pb2aff35a34)">
     <!-- Ofsted -->
     <g transform="translate(798.729145 292.863603) scale(0.09 -0.09)">
      <defs>
       <path id="DejaVuSans-Bold-4f" d="M 2719 3878 
Q 2169 3878 1866 3472 
Q 1563 3066 1563 2328 
Q 1563 1594 1866 1187 
Q 2169 781 2719 781 
Q 3272 781 3575 1187 
Q 3878 1594 3878 2328 
Q 3878 3066 3575 3472 
Q 3272 3878 2719 3878 
z
M 2719 4750 
Q 3844 4750 4481 4106 
Q 5119 3463 5119 2328 
Q 5119 1197 4481 553 
Q 3844 -91 2719 -91 
Q 1597 -91 958 553 
Q 319 1197 319 2328 
Q 319 3463 958 4106 
Q 1597 4750 2719 4750 
z
" transform="scale(0.015625)"/>
       <path id="DejaVuSans-Bold-73" d="M 3272 3391 
L 3272 2541 
Q 2913 2691 2578 2766 
Q 2244 2841 1947 2841 
Q 1628 2841 1473 2761 
Q 1319 2681 1319 2516 
Q 1319 2381 1436 2309 
Q 1553 2238 1856 2203 
L 2053 2175 
Q 2913 2066 3209 1816 
Q 3506 1566 3506 1031 
Q 3506 472 3093 190 
Q 2681 -91 1863 -91 
Q 1516 -91 1145 -36 
Q 775 19 384 128 
L 384 978 
Q 719 816 1070 734 
Q 1422 653 1784 653 
Q 2113 653 2278 743 
Q 2444 834 2444 1013 
Q 2444 1163 2330 1236 
Q 2216 1309 1875 1350 
L 1678 1375 
Q 931 1469 631 1722 
Q 331 1975 331 2491 
Q 331 3047 712 3315 
Q 1094 3584 1881 3584 
Q 2191 3584 2531 3537 
Q 2872 3491 3272 3391 
z
" transform="scale(0.015625)"/>
      </defs>
      <use xlink:href="#DejaVuSans-Bold-4f"/>
      <use xlink:href="#DejaVuSans-Bold-66" transform="translate(85.009766 0)"/>
      <use xlink:href="#DejaVuSans-Bold-73" transform="translate(128.515625 0)"/>
      <use xlink:href="#DejaVuSans-Bold-74" transform="translate(188.037109 0)"/>
      <use xlink:href="#DejaVuSans-Bold-65" transform="translate(235.839844 0)"/>
      <use xlink:href="#DejaVuSans-Bold-64" transform="translate(303.662109 0)"/>
     </g>
    </g>
   </g>
   <g id="text_20">
    <g clip-path="url(#pb2aff35a34)">
     <!-- Local Authority -->
     <g transform="translate(156.435936 483.24167) scale(0.09 -0.09)">
      <defs>
       <path id="DejaVuSans-Bold-4c" d="M 588 4666 
L 1791 4666 
L 1791 909 
L 3903 909 
L 3903 0 
L 588 0 
L 588 4666 
z
" transform="scale(0.015625)"/>
       <path id="DejaVuSans-Bold-6c" d="M 538 4863 
L 1656 4863 
L 1656 0 
L 538 0 
L 538 4863 
z
" transform="scale(0.015625)"/>
       <path id="DejaVuSans-Bold-41" d="M 3419 850 
L 1538 850 
L 1241 0 
L 31 0 
L 1759 4666 
L 3194 4666 
L 4922 0 
L 3713 0 
L 3419 850 
z
M 1838 1716 
L 3116 1716 
L 2478 3572 
L 1838 1716 
z
" transform="scale(0.015625)"/>
       <path id="DejaVuSans-Bold-68" d="M 4056 2131 
L 4056 0 
L 2931 0 
L 2931 347 
L 2931 1625 
Q 2931 2084 2911 2256 
Q 2891 2428 2841 2509 
Q 2775 2619 2662 2680 
Q 2550 2741 2406 2741 
Q 2056 2741 1856 2470 
Q 1656 2200 1656 1722 
L 1656 0 
L 538 0 
L 538 4863 
L 1656 4863 
L 1656 2988 
Q 1909 3294 2193 3439 
Q 2478 3584 2822 3584 
Q 3428 3584 3742 3212 
Q 4056 2841 4056 2131 
z
" transform="scale(0.015625)"/>
       <path id="DejaVuSans-Bold-79" d="M 78 3500 
L 1197 3500 
L 2138 1125 
L 2938 3500 
L 4056 3500 
L 2584 -331 
Q 2363 -916 2067 -1148 
Q 1772 -1381 1288 -1381 
L 641 -1381 
L 641 -647 
L 991 -647 
Q 1275 -647 1404 -556 
Q 1534 -466 1606 -231 
L 1638 -134 
L 78 3500 
z
" transform="scale(0.015625)"/>
      </defs>
      <use xlink:href="#DejaVuSans-Bold-4c"/>
      <use xlink:href="#DejaVuSans-Bold-6f" transform="translate(63.720703 0)"/>
      <use xlink:href="#DejaVuSans-Bold-63" transform="translate(132.421875 0)"/>
      <use xlink:href="#DejaVuSans-Bold-61" transform="translate(191.699219 0)"/>
      <use xlink:href="#DejaVuSans-Bold-6c" transform="translate(259.179688 0)"/>
      <use xlink:href="#DejaVuSans-Bold-20" transform="translate(293.457031 0)"/>
      <use xlink:href="#DejaVuSans-Bold-41" transform="translate(328.271484 0)"/>
      <use xlink:href="#DejaVuSans-Bold-75" transform="translate(405.664062 0)"/>
      <use xlink:href="#DejaVuSans-Bold-74" transform="translate(476.855469 0)"/>
      <use xlink:href="#DejaVuSans-Bold-68" transform="translate(524.658203 0)"/>
      <use xlink:href="#DejaVuSans-Bold-6f" transform="translate(595.849609 0)"/>
      <use xlink:href="#DejaVuSans-Bold-72" transform="translate(664.550781 0)"/>
      <use xlink:href="#DejaVuSans-Bold-69" transform="translate(713.867188 0)"/>
      <use xlink:href="#DejaVuSans-Bold-74" transform="translate(748.144531 0)"/>
      <use xlink:href="#DejaVuSans-Bold-79" transform="translate(795.947266 0)"/>
     </g>
    </g>
   </g>
   <g id="text_21">
    <g clip-path="url(#pb2aff35a34)">
     <!-- LA Childrens Social Care -->
     <g transform="translate(49.005779 864.103272) scale(0.09 -0.09)">
      <defs>
       <path id="DejaVuSans-Bold-43" d="M 4288 256 
Q 3956 84 3597 -3 
Q 3238 -91 2847 -91 
Q 1681 -91 1000 561 
Q 319 1213 319 2328 
Q 319 3447 1000 4098 
Q 1681 4750 2847 4750 
Q 3238 4750 3597 4662 
Q 3956 4575 4288 4403 
L 4288 3438 
Q 3953 3666 3628 3772 
Q 3303 3878 2944 3878 
Q 2300 3878 1931 3465 
Q 1563 3053 1563 2328 
Q 1563 1606 1931 1193 
Q 2300 781 2944 781 
Q 3303 781 3628 887 
Q 3953 994 4288 1222 
L 4288 256 
z
" transform="scale(0.015625)"/>
       <path id="DejaVuSans-Bold-2019" d="M 716 4666 
L 1778 4666 
L 1778 3775 
L 1069 2675 
L 403 2675 
L 716 3775 
L 716 4666 
z
" transform="scale(0.015625)"/>
       <path id="DejaVuSans-Bold-53" d="M 3834 4519 
L 3834 3531 
Q 3450 3703 3084 3790 
Q 2719 3878 2394 3878 
Q 1963 3878 1756 3759 
Q 1550 3641 1550 3391 
Q 1550 3203 1689 3098 
Q 1828 2994 2194 2919 
L 2706 2816 
Q 3484 2659 3812 2340 
Q 4141 2022 4141 1434 
Q 4141 663 3683 286 
Q 3225 -91 2284 -91 
Q 1841 -91 1394 -6 
Q 947 78 500 244 
L 500 1259 
Q 947 1022 1364 901 
Q 1781 781 2169 781 
Q 2563 781 2772 912 
Q 2981 1044 2981 1288 
Q 2981 1506 2839 1625 
Q 2697 1744 2272 1838 
L 1806 1941 
Q 1106 2091 782 2419 
Q 459 2747 459 3303 
Q 459 4000 909 4375 
Q 1359 4750 2203 4750 
Q 2588 4750 2994 4692 
Q 3400 4634 3834 4519 
z
" transform="scale(0.015625)"/>
      </defs>
      <use xlink:href="#DejaVuSans-Bold-4c"/>
      <use xlink:href="#DejaVuSans-Bold-41" transform="translate(63.720703 0)"/>
      <use xlink:href="#DejaVuSans-Bold-20" transform="translate(141.113281 0)"/>
      <use xlink:href="#DejaVuSans-Bold-43" transform="translate(175.927734 0)"/>
      <use xlink:href="#DejaVuSans-Bold-68" transform="translate(249.316406 0)"/>
      <use xlink:href="#DejaVuSans-Bold-69" transform="translate(320.507812 0)"/>
      <use xlink:href="#DejaVuSans-Bold-6c" transform="translate(354.785156 0)"/>
      <use xlink:href="#DejaVuSans-Bold-64" transform="translate(389.0625 0)"/>
      <use xlink:href="#DejaVuSans-Bold-72" transform="translate(460.644531 0)"/>
      <use xlink:href="#DejaVuSans-Bold-65" transform="translate(509.960938 0)"/>
      <use xlink:href="#DejaVuSans-Bold-6e" transform="translate(577.783203 0)"/>
      <use xlink:href="#DejaVuSans-Bold-2019" transform="translate(648.974609 0)"/>
      <use xlink:href="#DejaVuSans-Bold-73" transform="translate(686.962891 0)"/>
      <use xlink:href="#DejaVuSans-Bold-20" transform="translate(746.484375 0)"/>
      <use xlink:href="#DejaVuSans-Bold-53" transform="translate(781.298828 0)"/>
      <use xlink:href="#DejaVuSans-Bold-6f" transform="translate(853.320312 0)"/>
      <use xlink:href="#DejaVuSans-Bold-63" transform="translate(922.021484 0)"/>
      <use xlink:href="#DejaVuSans-Bold-69" transform="translate(981.298828 0)"/>
      <use xlink:href="#DejaVuSans-Bold-61" transform="translate(1015.576172 0)"/>
      <use xlink:href="#DejaVuSans-Bold-6c" transform="translate(1083.056641 0)"/>
      <use xlink:href="#DejaVuSans-Bold-20" transform="translate(1117.333984 0)"/>
      <use xlink:href="#DejaVuSans-Bold-43" transform="translate(1152.148438 0)"/>
      <use xlink:href="#DejaVuSans-Bold-61" transform="translate(1225.537109 0)"/>
      <use xlink:href="#DejaVuSans-Bold-72" transform="translate(1293.017578 0)"/>
      <use xlink:href="#DejaVuSans-Bold-65" transform="translate(1342.333984 0)"/>
     </g>
    </g>
   </g>
   <g id="text_22">
    <g clip-path="url(#pb2aff35a34)">
     <!-- Children Within Social Care -->
     <g transform="translate(43.136794 1054.516495) scale(0.09 -0.09)">
      <defs>
       <path id="DejaVuSans-Bold-57" d="M 191 4666 
L 1344 4666 
L 2150 1275 
L 2950 4666 
L 4109 4666 
L 4909 1275 
L 5716 4666 
L 6859 4666 
L 5759 0 
L 4372 0 
L 3525 3547 
L 2688 0 
L 1300 0 
L 191 4666 
z
" transform="scale(0.015625)"/>
      </defs>
      <use xlink:href="#DejaVuSans-Bold-43"/>
      <use xlink:href="#DejaVuSans-Bold-68" transform="translate(73.388672 0)"/>
      <use xlink:href="#DejaVuSans-Bold-69" transform="translate(144.580078 0)"/>
      <use xlink:href="#DejaVuSans-Bold-6c" transform="translate(178.857422 0)"/>
      <use xlink:href="#DejaVuSans-Bold-64" transform="translate(213.134766 0)"/>
      <use xlink:href="#DejaVuSans-Bold-72" transform="translate(284.716797 0)"/>
      <use xlink:href="#DejaVuSans-Bold-65" transform="translate(334.033203 0)"/>
      <use xlink:href="#DejaVuSans-Bold-6e" transform="translate(401.855469 0)"/>
      <use xlink:href="#DejaVuSans-Bold-20" transform="translate(473.046875 0)"/>
      <use xlink:href="#DejaVuSans-Bold-57" transform="translate(507.861328 0)"/>
      <use xlink:href="#DejaVuSans-Bold-69" transform="translate(618.164062 0)"/>
      <use xlink:href="#DejaVuSans-Bold-74" transform="translate(652.441406 0)"/>
      <use xlink:href="#DejaVuSans-Bold-68" transform="translate(700.244141 0)"/>
      <use xlink:href="#DejaVuSans-Bold-69" transform="translate(771.435547 0)"/>
      <use xlink:href="#DejaVuSans-Bold-6e" transform="translate(805.712891 0)"/>
      <use xlink:href="#DejaVuSans-Bold-20" transform="translate(876.904297 0)"/>
      <use xlink:href="#DejaVuSans-Bold-53" transform="translate(911.71875 0)"/>
      <use xlink:href="#DejaVuSans-Bold-6f" transform="translate(983.740234 0)"/>
      <use xlink:href="#DejaVuSans-Bold-63" transform="translate(1052.441406 0)"/>
      <use xlink:href="#DejaVuSans-Bold-69" transform="translate(1111.71875 0)"/>
      <use xlink:href="#DejaVuSans-Bold-61" transform="translate(1145.996094 0)"/>
      <use xlink:href="#DejaVuSans-Bold-6c" transform="translate(1213.476562 0)"/>
      <use xlink:href="#DejaVuSans-Bold-20" transform="translate(1247.753906 0)"/>
      <use xlink:href="#DejaVuSans-Bold-43" transform="translate(1282.568359 0)"/>
      <use xlink:href="#DejaVuSans-Bold-61" transform="translate(1355.957031 0)"/>
      <use xlink:href="#DejaVuSans-Bold-72" transform="translate(1423.4375 0)"/>
      <use xlink:href="#DejaVuSans-Bold-65" transform="translate(1472.753906 0)"/>
     </g>
    </g>
   </g>
   <g id="text_23">
    <g clip-path="url(#pb2aff35a34)">
     <!-- ILACS Inspection Event -->
     <g transform="translate(756.930473 483.276826) scale(0.09 -0.09)">
      <defs>
       <path id="DejaVuSans-Bold-49" d="M 588 4666 
L 1791 4666 
L 1791 0 
L 588 0 
L 588 4666 
z
" transform="scale(0.015625)"/>
       <path id="DejaVuSans-Bold-76" d="M 97 3500 
L 1216 3500 
L 2088 1081 
L 2956 3500 
L 4078 3500 
L 2700 0 
L 1472 0 
L 97 3500 
z
" transform="scale(0.015625)"/>
      </defs>
      <use xlink:href="#DejaVuSans-Bold-49"/>
      <use xlink:href="#DejaVuSans-Bold-4c" transform="translate(37.207031 0)"/>
      <use xlink:href="#DejaVuSans-Bold-41" transform="translate(100.927734 0)"/>
      <use xlink:href="#DejaVuSans-Bold-43" transform="translate(178.320312 0)"/>
      <use xlink:href="#DejaVuSans-Bold-53" transform="translate(253.583984 0)"/>
      <use xlink:href="#DejaVuSans-Bold-20" transform="translate(325.605469 0)"/>
      <use xlink:href="#DejaVuSans-Bold-49" transform="translate(360.419922 0)"/>
      <use xlink:href="#DejaVuSans-Bold-6e" transform="translate(397.626953 0)"/>
      <use xlink:href="#DejaVuSans-Bold-73" transform="translate(468.818359 0)"/>
      <use xlink:href="#DejaVuSans-Bold-70" transform="translate(528.339844 0)"/>
      <use xlink:href="#DejaVuSans-Bold-65" transform="translate(599.921875 0)"/>
      <use xlink:href="#DejaVuSans-Bold-63" transform="translate(667.744141 0)"/>
      <use xlink:href="#DejaVuSans-Bold-74" transform="translate(727.021484 0)"/>
      <use xlink:href="#DejaVuSans-Bold-69" transform="translate(774.824219 0)"/>
      <use xlink:href="#DejaVuSans-Bold-6f" transform="translate(809.101562 0)"/>
      <use xlink:href="#DejaVuSans-Bold-6e" transform="translate(877.802734 0)"/>
      <use xlink:href="#DejaVuSans-Bold-20" transform="translate(948.994141 0)"/>
      <use xlink:href="#DejaVuSans-Bold-45" transform="translate(983.808594 0)"/>
      <use xlink:href="#DejaVuSans-Bold-76" transform="translate(1052.119141 0)"/>
      <use xlink:href="#DejaVuSans-Bold-65" transform="translate(1117.304688 0)"/>
      <use xlink:href="#DejaVuSans-Bold-6e" transform="translate(1185.126953 0)"/>
      <use xlink:href="#DejaVuSans-Bold-74" transform="translate(1256.318359 0)"/>
     </g>
    </g>
   </g>
   <g id="text_24">
    <g clip-path="url(#pb2aff35a34)">
     <!-- ILACS Judgement -->
     <g transform="translate(994.223061 673.654893) scale(0.09 -0.09)">
      <defs>
       <path id="DejaVuSans-Bold-4a" d="M 588 4666 
L 1791 4666 
L 1791 453 
Q 1791 -419 1317 -850 
Q 844 -1281 -116 -1281 
L -359 -1281 
L -359 -372 
L -172 -372 
Q 203 -372 395 -162 
Q 588 47 588 453 
L 588 4666 
z
" transform="scale(0.015625)"/>
       <path id="DejaVuSans-Bold-67" d="M 2919 594 
Q 2688 288 2409 144 
Q 2131 0 1766 0 
Q 1125 0 706 504 
Q 288 1009 288 1791 
Q 288 2575 706 3076 
Q 1125 3578 1766 3578 
Q 2131 3578 2409 3434 
Q 2688 3291 2919 2981 
L 2919 3500 
L 4044 3500 
L 4044 353 
Q 4044 -491 3511 -936 
Q 2978 -1381 1966 -1381 
Q 1638 -1381 1331 -1331 
Q 1025 -1281 716 -1178 
L 716 -306 
Q 1009 -475 1290 -558 
Q 1572 -641 1856 -641 
Q 2406 -641 2662 -400 
Q 2919 -159 2919 353 
L 2919 594 
z
M 2181 2772 
Q 1834 2772 1640 2515 
Q 1447 2259 1447 1791 
Q 1447 1309 1634 1061 
Q 1822 813 2181 813 
Q 2531 813 2725 1069 
Q 2919 1325 2919 1791 
Q 2919 2259 2725 2515 
Q 2531 2772 2181 2772 
z
" transform="scale(0.015625)"/>
      </defs>
      <use xlink:href="#DejaVuSans-Bold-49"/>
      <use xlink:href="#DejaVuSans-Bold-4c" transform="translate(37.207031 0)"/>
      <use xlink:href="#DejaVuSans-Bold-41" transform="translate(100.927734 0)"/>
      <use xlink:href="#DejaVuSans-Bold-43" transform="translate(178.320312 0)"/>
      <use xlink:href="#DejaVuSans-Bold-53" transform="translate(253.583984 0)"/>
      <use xlink:href="#DejaVuSans-Bold-20" transform="translate(325.605469 0)"/>
      <use xlink:href="#DejaVuSans-Bold-4a" transform="translate(360.419922 0)"/>
      <use xlink:href="#DejaVuSans-Bold-75" transform="translate(397.626953 0)"/>
      <use xlink:href="#DejaVuSans-Bold-64" transform="translate(468.818359 0)"/>
      <use xlink:href="#DejaVuSans-Bold-67" transform="translate(540.400391 0)"/>
      <use xlink:href="#DejaVuSans-Bold-65" transform="translate(611.982422 0)"/>
      <use xlink:href="#DejaVuSans-Bold-6d" transform="translate(679.804688 0)"/>
      <use xlink:href="#DejaVuSans-Bold-65" transform="translate(784.003906 0)"/>
      <use xlink:href="#DejaVuSans-Bold-6e" transform="translate(851.826172 0)"/>
      <use xlink:href="#DejaVuSans-Bold-74" transform="translate(923.017578 0)"/>
     </g>
    </g>
   </g>
   <g id="text_25">
    <g clip-path="url(#pb2aff35a34)">
     <!-- ILACS Inspection Summary -->
     <g transform="translate(309.586302 673.654893) scale(0.09 -0.09)">
      <use xlink:href="#DejaVuSans-Bold-49"/>
      <use xlink:href="#DejaVuSans-Bold-4c" transform="translate(37.207031 0)"/>
      <use xlink:href="#DejaVuSans-Bold-41" transform="translate(100.927734 0)"/>
      <use xlink:href="#DejaVuSans-Bold-43" transform="translate(178.320312 0)"/>
      <use xlink:href="#DejaVuSans-Bold-53" transform="translate(253.583984 0)"/>
      <use xlink:href="#DejaVuSans-Bold-20" transform="translate(325.605469 0)"/>
      <use xlink:href="#DejaVuSans-Bold-49" transform="translate(360.419922 0)"/>
      <use xlink:href="#DejaVuSans-Bold-6e" transform="translate(397.626953 0)"/>
      <use xlink:href="#DejaVuSans-Bold-73" transform="translate(468.818359 0)"/>
      <use xlink:href="#DejaVuSans-Bold-70" transform="translate(528.339844 0)"/>
      <use xlink:href="#DejaVuSans-Bold-65" transform="translate(599.921875 0)"/>
      <use xlink:href="#DejaVuSans-Bold-63" transform="translate(667.744141 0)"/>
      <use xlink:href="#DejaVuSans-Bold-74" transform="translate(727.021484 0)"/>
      <use xlink:href="#DejaVuSans-Bold-69" transform="translate(774.824219 0)"/>
      <use xlink:href="#DejaVuSans-Bold-6f" transform="translate(809.101562 0)"/>
      <use xlink:href="#DejaVuSans-Bold-6e" transform="translate(877.802734 0)"/>
      <use xlink:href="#DejaVuSans-Bold-20" transform="translate(948.994141 0)"/>
      <use xlink:href="#DejaVuSans-Bold-53" transform="translate(983.808594 0)"/>
      <use xlink:href="#DejaVuSans-Bold-75" transform="translate(1055.830078 0)"/>
      <use xlink:href="#DejaVuSans-Bold-6d" transform="translate(1127.021484 0)"/>
      <use xlink:href="#DejaVuSans-Bold-6d" transform="translate(1231.220703 0)"/>
      <use xlink:href="#DejaVuSans-Bold-61" transform="translate(1335.419922 0)"/>
      <use xlink:href="#DejaVuSans-Bold-72" transform="translate(1402.900391 0)"/>
      <use xlink:href="#DejaVuSans-Bold-79" transform="translate(1452.216797 0)"/>
     </g>
    </g>
   </g>
   <g id="text_26">
    <g clip-path="url(#pb2aff35a34)">
     <!-- All ILACS Summary -->
     <g transform="translate(883.554662 864.068116) scale(0.09 -0.09)">
      <use xlink:href="#DejaVuSans-Bold-41"/>
      <use xlink:href="#DejaVuSans-Bold-6c" transform="translate(77.392578 0)"/>
      <use xlink:href="#DejaVuSans-Bold-6c" transform="translate(111.669922 0)"/>
      <use xlink:href="#DejaVuSans-Bold-20" transform="translate(145.947266 0)"/>
      <use xlink:href="#DejaVuSans-Bold-49" transform="translate(180.761719 0)"/>
      <use xlink:href="#DejaVuSans-Bold-4c" transform="translate(217.96875 0)"/>
      <use xlink:href="#DejaVuSans-Bold-41" transform="translate(281.689453 0)"/>
      <use xlink:href="#DejaVuSans-Bold-43" transform="translate(359.082031 0)"/>
      <use xlink:href="#DejaVuSans-Bold-53" transform="translate(434.345703 0)"/>
      <use xlink:href="#DejaVuSans-Bold-20" transform="translate(506.367188 0)"/>
      <use xlink:href="#DejaVuSans-Bold-53" transform="translate(541.181641 0)"/>
      <use xlink:href="#DejaVuSans-Bold-75" transform="translate(613.203125 0)"/>
      <use xlink:href="#DejaVuSans-Bold-6d" transform="translate(684.394531 0)"/>
      <use xlink:href="#DejaVuSans-Bold-6d" transform="translate(788.59375 0)"/>
      <use xlink:href="#DejaVuSans-Bold-61" transform="translate(892.792969 0)"/>
      <use xlink:href="#DejaVuSans-Bold-72" transform="translate(960.273438 0)"/>
      <use xlink:href="#DejaVuSans-Bold-79" transform="translate(1009.589844 0)"/>
     </g>
    </g>
   </g>
   <g id="text_27">
    <g clip-path="url(#pb2aff35a34)">
     <!-- Ofsted_ILACS_Scrape_Tool -->
     <g transform="translate(1117.612893 483.15167) scale(0.09 -0.09)">
      <defs>
       <path id="DejaVuSans-Bold-5f" d="M 3200 -916 
L 3200 -1509 
L 0 -1509 
L 0 -916 
L 3200 -916 
z
" transform="scale(0.015625)"/>
       <path id="DejaVuSans-Bold-54" d="M 31 4666 
L 4331 4666 
L 4331 3756 
L 2784 3756 
L 2784 0 
L 1581 0 
L 1581 3756 
L 31 3756 
L 31 4666 
z
" transform="scale(0.015625)"/>
      </defs>
      <use xlink:href="#DejaVuSans-Bold-4f"/>
      <use xlink:href="#DejaVuSans-Bold-66" transform="translate(85.009766 0)"/>
      <use xlink:href="#DejaVuSans-Bold-73" transform="translate(128.515625 0)"/>
      <use xlink:href="#DejaVuSans-Bold-74" transform="translate(188.037109 0)"/>
      <use xlink:href="#DejaVuSans-Bold-65" transform="translate(235.839844 0)"/>
      <use xlink:href="#DejaVuSans-Bold-64" transform="translate(303.662109 0)"/>
      <use xlink:href="#DejaVuSans-Bold-5f" transform="translate(375.244141 0)"/>
      <use xlink:href="#DejaVuSans-Bold-49" transform="translate(425.244141 0)"/>
      <use xlink:href="#DejaVuSans-Bold-4c" transform="translate(462.451172 0)"/>
      <use xlink:href="#DejaVuSans-Bold-41" transform="translate(526.171875 0)"/>
      <use xlink:href="#DejaVuSans-Bold-43" transform="translate(603.564453 0)"/>
      <use xlink:href="#DejaVuSans-Bold-53" transform="translate(678.828125 0)"/>
      <use xlink:href="#DejaVuSans-Bold-5f" transform="translate(750.849609 0)"/>
      <use xlink:href="#DejaVuSans-Bold-53" transform="translate(800.849609 0)"/>
      <use xlink:href="#DejaVuSans-Bold-63" transform="translate(872.871094 0)"/>
      <use xlink:href="#DejaVuSans-Bold-72" transform="translate(932.148438 0)"/>
      <use xlink:href="#DejaVuSans-Bold-61" transform="translate(981.464844 0)"/>
      <use xlink:href="#DejaVuSans-Bold-70" transform="translate(1048.945312 0)"/>
      <use xlink:href="#DejaVuSans-Bold-65" transform="translate(1120.527344 0)"/>
      <use xlink:href="#DejaVuSans-Bold-5f" transform="translate(1188.349609 0)"/>
      <use xlink:href="#DejaVuSans-Bold-54" transform="translate(1238.349609 0)"/>
      <use xlink:href="#DejaVuSans-Bold-6f" transform="translate(1293.3125 0)"/>
      <use xlink:href="#DejaVuSans-Bold-6f" transform="translate(1362.013672 0)"/>
      <use xlink:href="#DejaVuSans-Bold-6c" transform="translate(1430.714844 0)"/>
     </g>
    </g>
   </g>
   <g id="text_28">
    <g clip-path="url(#pb2aff35a34)">
     <!-- LIIA -->
     <g transform="translate(701.650094 673.690049) scale(0.09 -0.09)">
      <use xlink:href="#DejaVuSans-Bold-4c"/>
      <use xlink:href="#DejaVuSans-Bold-49" transform="translate(63.720703 0)"/>
      <use xlink:href="#DejaVuSans-Bold-49" transform="translate(100.927734 0)"/>
      <use xlink:href="#DejaVuSans-Bold-41" transform="translate(138.134766 0)"/>
     </g>
    </g>
   </g>
   <g id="text_29">
    <g clip-path="url(#pb2aff35a34)">
     <!-- LIIA PowerBI Dashboard -->
     <g transform="translate(730.28904 1054.516495) scale(0.09 -0.09)">
      <defs>
       <path id="DejaVuSans-Bold-50" d="M 588 4666 
L 2584 4666 
Q 3475 4666 3951 4270 
Q 4428 3875 4428 3144 
Q 4428 2409 3951 2014 
Q 3475 1619 2584 1619 
L 1791 1619 
L 1791 0 
L 588 0 
L 588 4666 
z
M 1791 3794 
L 1791 2491 
L 2456 2491 
Q 2806 2491 2997 2661 
Q 3188 2831 3188 3144 
Q 3188 3456 2997 3625 
Q 2806 3794 2456 3794 
L 1791 3794 
z
" transform="scale(0.015625)"/>
       <path id="DejaVuSans-Bold-77" d="M 225 3500 
L 1313 3500 
L 1900 1088 
L 2491 3500 
L 3425 3500 
L 4013 1113 
L 4603 3500 
L 5691 3500 
L 4769 0 
L 3547 0 
L 2956 2406 
L 2369 0 
L 1147 0 
L 225 3500 
z
" transform="scale(0.015625)"/>
       <path id="DejaVuSans-Bold-42" d="M 2456 2859 
Q 2741 2859 2887 2984 
Q 3034 3109 3034 3353 
Q 3034 3594 2887 3720 
Q 2741 3847 2456 3847 
L 1791 3847 
L 1791 2859 
L 2456 2859 
z
M 2497 819 
Q 2859 819 3042 972 
Q 3225 1125 3225 1434 
Q 3225 1738 3044 1889 
Q 2863 2041 2497 2041 
L 1791 2041 
L 1791 819 
L 2497 819 
z
M 3616 2497 
Q 4003 2384 4215 2081 
Q 4428 1778 4428 1338 
Q 4428 663 3972 331 
Q 3516 0 2584 0 
L 588 0 
L 588 4666 
L 2394 4666 
Q 3366 4666 3802 4372 
Q 4238 4078 4238 3431 
Q 4238 3091 4078 2852 
Q 3919 2613 3616 2497 
z
" transform="scale(0.015625)"/>
       <path id="DejaVuSans-Bold-62" d="M 2400 722 
Q 2759 722 2948 984 
Q 3138 1247 3138 1747 
Q 3138 2247 2948 2509 
Q 2759 2772 2400 2772 
Q 2041 2772 1848 2508 
Q 1656 2244 1656 1747 
Q 1656 1250 1848 986 
Q 2041 722 2400 722 
z
M 1656 2988 
Q 1888 3294 2169 3439 
Q 2450 3584 2816 3584 
Q 3463 3584 3878 3070 
Q 4294 2556 4294 1747 
Q 4294 938 3878 423 
Q 3463 -91 2816 -91 
Q 2450 -91 2169 54 
Q 1888 200 1656 506 
L 1656 0 
L 538 0 
L 538 4863 
L 1656 4863 
L 1656 2988 
z
" transform="scale(0.015625)"/>
      </defs>
      <use xlink:href="#DejaVuSans-Bold-4c"/>
      <use xlink:href="#DejaVuSans-Bold-49" transform="translate(63.720703 0)"/>
      <use xlink:href="#DejaVuSans-Bold-49" transform="translate(100.927734 0)"/>
      <use xlink:href="#DejaVuSans-Bold-41" transform="translate(138.134766 0)"/>
      <use xlink:href="#DejaVuSans-Bold-20" transform="translate(215.527344 0)"/>
      <use xlink:href="#DejaVuSans-Bold-50" transform="translate(250.341797 0)"/>
      <use xlink:href="#DejaVuSans-Bold-6f" transform="translate(323.632812 0)"/>
      <use xlink:href="#DejaVuSans-Bold-77" transform="translate(392.333984 0)"/>
      <use xlink:href="#DejaVuSans-Bold-65" transform="translate(484.716797 0)"/>
      <use xlink:href="#DejaVuSans-Bold-72" transform="translate(552.539062 0)"/>
      <use xlink:href="#DejaVuSans-Bold-42" transform="translate(601.855469 0)"/>
      <use xlink:href="#DejaVuSans-Bold-49" transform="translate(678.076172 0)"/>
      <use xlink:href="#DejaVuSans-Bold-20" transform="translate(715.283203 0)"/>
      <use xlink:href="#DejaVuSans-Bold-44" transform="translate(750.097656 0)"/>
      <use xlink:href="#DejaVuSans-Bold-61" transform="translate(833.105469 0)"/>
      <use xlink:href="#DejaVuSans-Bold-73" transform="translate(900.585938 0)"/>
      <use xlink:href="#DejaVuSans-Bold-68" transform="translate(960.107422 0)"/>
      <use xlink:href="#DejaVuSans-Bold-62" transform="translate(1031.298828 0)"/>
      <use xlink:href="#DejaVuSans-Bold-6f" transform="translate(1102.880859 0)"/>
      <use xlink:href="#DejaVuSans-Bold-61" transform="translate(1171.582031 0)"/>
      <use xlink:href="#DejaVuSans-Bold-72" transform="translate(1239.0625 0)"/>
      <use xlink:href="#DejaVuSans-Bold-64" transform="translate(1288.378906 0)"/>
     </g>
    </g>
   </g>
   <g id="text_30">
    <g clip-path="url(#pb2aff35a34)">
     <!-- Local Authority Area -->
     <g transform="translate(143.07867 673.654893) scale(0.09 -0.09)">
      <use xlink:href="#DejaVuSans-Bold-4c"/>
      <use xlink:href="#DejaVuSans-Bold-6f" transform="translate(63.720703 0)"/>
      <use xlink:href="#DejaVuSans-Bold-63" transform="translate(132.421875 0)"/>
      <use xlink:href="#DejaVuSans-Bold-61" transform="translate(191.699219 0)"/>
      <use xlink:href="#DejaVuSans-Bold-6c" transform="translate(259.179688 0)"/>
      <use xlink:href="#DejaVuSans-Bold-20" transform="translate(293.457031 0)"/>
      <use xlink:href="#DejaVuSans-Bold-41" transform="translate(328.271484 0)"/>
      <use xlink:href="#DejaVuSans-Bold-75" transform="translate(405.664062 0)"/>
      <use xlink:href="#DejaVuSans-Bold-74" transform="translate(476.855469 0)"/>
      <use xlink:href="#DejaVuSans-Bold-68" transform="translate(524.658203 0)"/>
      <use xlink:href="#DejaVuSans-Bold-6f" transform="translate(595.849609 0)"/>
      <use xlink:href="#DejaVuSans-Bold-72" transform="translate(664.550781 0)"/>
      <use xlink:href="#DejaVuSans-Bold-69" transform="translate(713.867188 0)"/>
      <use xlink:href="#DejaVuSans-Bold-74" transform="translate(748.144531 0)"/>
      <use xlink:href="#DejaVuSans-Bold-79" transform="translate(795.947266 0)"/>
      <use xlink:href="#DejaVuSans-Bold-20" transform="translate(861.132812 0)"/>
      <use xlink:href="#DejaVuSans-Bold-41" transform="translate(895.947266 0)"/>
      <use xlink:href="#DejaVuSans-Bold-72" transform="translate(973.339844 0)"/>
      <use xlink:href="#DejaVuSans-Bold-65" transform="translate(1022.65625 0)"/>
      <use xlink:href="#DejaVuSans-Bold-61" transform="translate(1090.478516 0)"/>
     </g>
    </g>
   </g>
   <g id="text_31">
    <g clip-path="url(#pb2aff35a34)">
     <!-- Region in England -->
     <g transform="translate(441.347149 864.068116) scale(0.09 -0.09)">
      <defs>
       <path id="DejaVuSans-Bold-52" d="M 2297 2597 
Q 2675 2597 2839 2737 
Q 3003 2878 3003 3200 
Q 3003 3519 2839 3656 
Q 2675 3794 2297 3794 
L 1791 3794 
L 1791 2597 
L 2297 2597 
z
M 1791 1766 
L 1791 0 
L 588 0 
L 588 4666 
L 2425 4666 
Q 3347 4666 3776 4356 
Q 4206 4047 4206 3378 
Q 4206 2916 3982 2619 
Q 3759 2322 3309 2181 
Q 3556 2125 3751 1926 
Q 3947 1728 4147 1325 
L 4800 0 
L 3519 0 
L 2950 1159 
Q 2778 1509 2601 1637 
Q 2425 1766 2131 1766 
L 1791 1766 
z
" transform="scale(0.015625)"/>
      </defs>
      <use xlink:href="#DejaVuSans-Bold-52"/>
      <use xlink:href="#DejaVuSans-Bold-65" transform="translate(77.001953 0)"/>
      <use xlink:href="#DejaVuSans-Bold-67" transform="translate(144.824219 0)"/>
      <use xlink:href="#DejaVuSans-Bold-69" transform="translate(216.40625 0)"/>
      <use xlink:href="#DejaVuSans-Bold-6f" transform="translate(250.683594 0)"/>
      <use xlink:href="#DejaVuSans-Bold-6e" transform="translate(319.384766 0)"/>
      <use xlink:href="#DejaVuSans-Bold-20" transform="translate(390.576172 0)"/>
      <use xlink:href="#DejaVuSans-Bold-69" transform="translate(425.390625 0)"/>
      <use xlink:href="#DejaVuSans-Bold-6e" transform="translate(459.667969 0)"/>
      <use xlink:href="#DejaVuSans-Bold-20" transform="translate(530.859375 0)"/>
      <use xlink:href="#DejaVuSans-Bold-45" transform="translate(565.673828 0)"/>
      <use xlink:href="#DejaVuSans-Bold-6e" transform="translate(633.984375 0)"/>
      <use xlink:href="#DejaVuSans-Bold-67" transform="translate(705.175781 0)"/>
      <use xlink:href="#DejaVuSans-Bold-6c" transform="translate(776.757812 0)"/>
      <use xlink:href="#DejaVuSans-Bold-61" transform="translate(811.035156 0)"/>
      <use xlink:href="#DejaVuSans-Bold-6e" transform="translate(878.515625 0)"/>
      <use xlink:href="#DejaVuSans-Bold-64" transform="translate(949.707031 0)"/>
     </g>
    </g>
   </g>
   <g id="text_32">
    <!-- SCCM Graph  Ofsted_ILACS_Scrape_Tool -->
    <g transform="translate(504.550313 -6) scale(0.14 -0.14)">
     <defs>
      <path id="DejaVuSans-53" d="M 3425 4513 
L 3425 3897 
Q 3066 4069 2747 4153 
Q 2428 4238 2131 4238 
Q 1616 4238 1336 4038 
Q 1056 3838 1056 3469 
Q 1056 3159 1242 3001 
Q 1428 2844 1947 2747 
L 2328 2669 
Q 3034 2534 3370 2195 
Q 3706 1856 3706 1288 
Q 3706 609 3251 259 
Q 2797 -91 1919 -91 
Q 1588 -91 1214 -16 
Q 841 59 441 206 
L 441 856 
Q 825 641 1194 531 
Q 1563 422 1919 422 
Q 2459 422 2753 634 
Q 3047 847 3047 1241 
Q 3047 1584 2836 1778 
Q 2625 1972 2144 2069 
L 1759 2144 
Q 1053 2284 737 2584 
Q 422 2884 422 3419 
Q 422 4038 858 4394 
Q 1294 4750 2059 4750 
Q 2388 4750 2728 4690 
Q 3069 4631 3425 4513 
z
" transform="scale(0.015625)"/>
      <path id="DejaVuSans-43" d="M 4122 4306 
L 4122 3641 
Q 3803 3938 3442 4084 
Q 3081 4231 2675 4231 
Q 1875 4231 1450 3742 
Q 1025 3253 1025 2328 
Q 1025 1406 1450 917 
Q 1875 428 2675 428 
Q 3081 428 3442 575 
Q 3803 722 4122 1019 
L 4122 359 
Q 3791 134 3420 21 
Q 3050 -91 2638 -91 
Q 1578 -91 968 557 
Q 359 1206 359 2328 
Q 359 3453 968 4101 
Q 1578 4750 2638 4750 
Q 3056 4750 3426 4639 
Q 3797 4528 4122 4306 
z
" transform="scale(0.015625)"/>
      <path id="DejaVuSans-4d" d="M 628 4666 
L 1569 4666 
L 2759 1491 
L 3956 4666 
L 4897 4666 
L 4897 0 
L 4281 0 
L 4281 4097 
L 3078 897 
L 2444 897 
L 1241 4097 
L 1241 0 
L 628 0 
L 628 4666 
z
" transform="scale(0.015625)"/>
      <path id="DejaVuSans-20" transform="scale(0.015625)"/>
      <path id="DejaVuSans-47" d="M 3809 666 
L 3809 1919 
L 2778 1919 
L 2778 2438 
L 4434 2438 
L 4434 434 
Q 4069 175 3628 42 
Q 3188 -91 2688 -91 
Q 1594 -91 976 548 
Q 359 1188 359 2328 
Q 359 3472 976 4111 
Q 1594 4750 2688 4750 
Q 3144 4750 3555 4637 
Q 3966 4525 4313 4306 
L 4313 3634 
Q 3963 3931 3569 4081 
Q 3175 4231 2741 4231 
Q 1884 4231 1454 3753 
Q 1025 3275 1025 2328 
Q 1025 1384 1454 906 
Q 1884 428 2741 428 
Q 3075 428 3337 486 
Q 3600 544 3809 666 
z
" transform="scale(0.015625)"/>
      <path id="DejaVuSans-2013" d="M 313 1978 
L 2888 1978 
L 2888 1528 
L 313 1528 
L 313 1978 
z
" transform="scale(0.015625)"/>
      <path id="DejaVuSans-49" d="M 628 4666 
L 1259 4666 
L 1259 0 
L 628 0 
L 628 4666 
z
" transform="scale(0.015625)"/>
      <path id="DejaVuSans-4c" d="M 628 4666 
L 1259 4666 
L 1259 531 
L 3531 531 
L 3531 0 
L 628 0 
L 628 4666 
z
" transform="scale(0.015625)"/>
      <path id="DejaVuSans-41" d="M 2188 4044 
L 1331 1722 
L 3047 1722 
L 2188 4044 
z
M 1831 4666 
L 2547 4666 
L 4325 0 
L 3669 0 
L 3244 1197 
L 1141 1197 
L 716 0 
L 50 0 
L 1831 4666 
z
" transform="scale(0.015625)"/>
      <path id="DejaVuSans-54" d="M -19 4666 
L 3928 4666 
L 3928 4134 
L 2272 4134 
L 2272 0 
L 1638 0 
L 1638 4134 
L -19 4134 
L -19 4666 
z
" transform="scale(0.015625)"/>
     </defs>
     <use xlink:href="#DejaVuSans-53"/>
     <use xlink:href="#DejaVuSans-43" transform="translate(63.476562 0)"/>
     <use xlink:href="#DejaVuSans-43" transform="translate(133.300781 0)"/>
     <use xlink:href="#DejaVuSans-4d" transform="translate(203.125 0)"/>
     <use xlink:href="#DejaVuSans-20" transform="translate(289.404297 0)"/>
     <use xlink:href="#DejaVuSans-47" transform="translate(321.191406 0)"/>
     <use xlink:href="#DejaVuSans-72" transform="translate(398.681641 0)"/>
     <use xlink:href="#DejaVuSans-61" transform="translate(439.794922 0)"/>
     <use xlink:href="#DejaVuSans-70" transform="translate(501.074219 0)"/>
     <use xlink:href="#DejaVuSans-68" transform="translate(564.550781 0)"/>
     <use xlink:href="#DejaVuSans-20" transform="translate(627.929688 0)"/>
     <use xlink:href="#DejaVuSans-2013" transform="translate(659.716797 0)"/>
     <use xlink:href="#DejaVuSans-20" transform="translate(709.716797 0)"/>
     <use xlink:href="#DejaVuSans-4f" transform="translate(741.503906 0)"/>
     <use xlink:href="#DejaVuSans-66" transform="translate(820.214844 0)"/>
     <use xlink:href="#DejaVuSans-73" transform="translate(855.419922 0)"/>
     <use xlink:href="#DejaVuSans-74" transform="translate(907.519531 0)"/>
     <use xlink:href="#DejaVuSans-65" transform="translate(946.728516 0)"/>
     <use xlink:href="#DejaVuSans-64" transform="translate(1008.251953 0)"/>
     <use xlink:href="#DejaVuSans-5f" transform="translate(1071.728516 0)"/>
     <use xlink:href="#DejaVuSans-49" transform="translate(1121.728516 0)"/>
     <use xlink:href="#DejaVuSans-4c" transform="translate(1151.220703 0)"/>
     <use xlink:href="#DejaVuSans-41" transform="translate(1209.183594 0)"/>
     <use xlink:href="#DejaVuSans-43" transform="translate(1275.841797 0)"/>
     <use xlink:href="#DejaVuSans-53" transform="translate(1345.666016 0)"/>
     <use xlink:href="#DejaVuSans-5f" transform="translate(1409.142578 0)"/>
     <use xlink:href="#DejaVuSans-53" transform="translate(1459.142578 0)"/>
     <use xlink:href="#DejaVuSans-63" transform="translate(1522.619141 0)"/>
     <use xlink:href="#DejaVuSans-72" transform="translate(1577.599609 0)"/>
     <use xlink:href="#DejaVuSans-61" transform="translate(1618.712891 0)"/>
     <use xlink:href="#DejaVuSans-70" transform="translate(1679.992188 0)"/>
     <use xlink:href="#DejaVuSans-65" transform="translate(1743.46875 0)"/>
     <use xlink:href="#DejaVuSans-5f" transform="translate(1804.992188 0)"/>
     <use xlink:href="#DejaVuSans-54" transform="translate(1854.992188 0)"/>
     <use xlink:href="#DejaVuSans-6f" transform="translate(1899.076172 0)"/>
     <use xlink:href="#DejaVuSans-6f" transform="translate(1960.257812 0)"/>
     <use xlink:href="#DejaVuSans-6c" transform="translate(2021.439453 0)"/>
    </g>
   </g>
  </g>
 </g>
 <defs>
  <clipPath id="pb2aff35a34">
   <rect x="0" y="0" width="1296" height="1152"/>
  </clipPath>
 </defs>
</svg>
